<svg width="359" height="543" viewBox="0 0 359 543" fill="none" xmlns="http://www.w3.org/2000/svg">
<path d="M228.498 542.699H68.6242L78.3436 498.136L111.186 464.55H241.875L228.498 542.699Z" fill="#51495B"/>
<path d="M243.495 450.115C243.495 450.115 219.798 462.742 172.455 466.829C125.112 470.916 106.039 458.472 106.039 458.472L140.005 161.91L216.767 164.53L243.495 450.115Z" fill="#DFF2F7"/>
<g style="mix-blend-mode:multiply" opacity="0.2">
<path d="M168.17 187.847L163.102 190.467L154.297 180.616C154.297 180.616 155.786 233.143 152.807 295.18C149.829 357.217 150.195 402.985 123.336 459.625C119.835 470.759 104.707 477.964 104.707 477.964L86.4177 515.086V542.594H74.2685L68.7295 531.617L73.7199 507.227L92.8974 464.262L96.9732 254.206C96.9732 254.206 131.984 165.736 132.324 165.474C132.663 165.212 152.651 158.295 154.401 158.767C156.152 159.239 172.69 169.823 172.69 169.823L168.17 187.847Z" fill="#6DB8BC"/>
</g>
<g style="mix-blend-mode:multiply" opacity="0.2">
<path d="M189.175 185.2L192.467 189.654L204.016 181.192L216.871 451.791L219.771 542.725H230.692C230.692 542.725 238.53 402.722 239.81 310.191C241.091 217.659 210.574 164.582 210.574 164.582L182.043 179.829L189.175 185.2Z" fill="#6DB8BC"/>
</g>
<path d="M111.186 475.213L107.266 488.155L93.8892 503.821L81.7138 519.461L74.5549 524.832L68.624 512.624L98.2002 471.964L107.528 471.283L111.186 475.213Z" fill="#36313F"/>
<path d="M223.822 448.124C206.023 454.448 187.358 457.983 168.484 458.603C149.205 459.052 129.916 458.37 110.716 456.56L101.99 475.474C101.99 475.474 129.763 482.836 173.553 480.059C217.342 477.282 230.693 472.75 230.693 472.75L223.822 448.124Z" fill="#36313F"/>
<path d="M208.589 171.447L192.207 185.908L178.411 158.872L163.832 185.908L145.935 164.766L147.66 151.956L152.153 146.48L204.669 149.519L211.854 160.26L208.589 171.447Z" fill="#DFF2F7"/>
<path d="M96.2665 165.579C96.2665 165.579 79.7018 169.037 64.9136 189.969C50.1255 210.901 24.991 285.906 12.6588 325.491C0.326675 365.077 -4.37626 400.208 4.82059 423.682C14.0174 447.155 38.133 482.26 56.579 498.11C81.0342 484.304 77.4809 451.242 77.4809 451.242C77.4809 451.242 54.9069 410.399 54.0969 400.916C53.287 391.432 83.9605 307.048 83.9605 307.048L108.285 252.032L96.2665 165.579Z" fill="#FCF0E8"/>
<path d="M94.6998 260.153L96.2673 165.578L119.233 157.457L128.561 192.824L136.242 260.153L139.9 316.61C139.9 316.61 142.748 330.233 141.729 355.016C140.71 379.799 134.439 428.868 106.039 470.287L99.2981 480.033L107.267 488.233C103.118 501.627 93.961 512.893 81.7145 519.671C70.5842 514.195 56.4493 498.319 56.4493 498.319L77.3512 451.451L83.282 437.959L89.9707 318.653L94.6998 260.153Z" fill="#FCF0E8"/>
<path d="M221.992 359.076L228.498 542.698H292.955L284.045 442.726L289.088 364.787L329.977 322.504L331.31 318.443C331.31 318.443 314.536 267.357 301.968 237.937C289.401 208.516 281.328 200.814 270.25 189.811C259.172 178.808 233.907 168.669 233.907 168.669L221.992 359.076Z" fill="#FCF0E8"/>
<path d="M273.202 349.776V254.311L304.973 325.753L273.202 349.776Z" fill="#EAD9D0"/>
<path d="M292.955 434.579C292.955 434.579 297.971 442.439 311.401 442.701C318.542 443.073 325.689 442.077 332.459 439.767L339.723 426.432L343.041 429.707C343.041 429.707 351.637 417.498 351.637 394.732C351.637 371.966 341.186 343.908 341.186 343.908L307.821 390.383L292.955 434.579Z" fill="#EAD9D0"/>
<path d="M306.933 423.681C306.933 423.681 310.382 436.335 321.329 440.081C332.277 443.827 345.967 434.71 345.262 417.839C344.556 400.967 333.609 389.283 325.692 390.383C317.776 391.484 306.933 423.681 306.933 423.681Z" fill="#F5E5E6"/>
<path d="M315.502 422.214C315.057 422.398 305.991 425.437 299.825 422.214C293.659 418.992 292.954 405.579 292.954 405.579L320.649 383.677C320.649 383.677 332.197 388.681 329.454 400.208C326.71 411.735 315.502 422.214 315.502 422.214Z" fill="#DBC3B9"/>
<path d="M358.351 325.229L280.335 460.097C279.938 460.78 279.37 461.347 278.687 461.743C278.004 462.138 277.23 462.347 276.442 462.35H221.261C220.481 462.35 219.714 462.148 219.035 461.764C218.356 461.38 217.788 460.826 217.385 460.156C216.983 459.486 216.76 458.723 216.739 457.942C216.718 457.16 216.898 456.386 217.263 455.695L288.434 320.802C288.819 320.073 289.395 319.464 290.099 319.04C290.803 318.615 291.61 318.391 292.432 318.391H354.432C355.235 318.378 356.027 318.581 356.725 318.978C357.423 319.376 358.002 319.954 358.402 320.652C358.802 321.35 359.009 322.142 359 322.947C358.991 323.752 358.767 324.54 358.351 325.229Z" fill="#322875"/>
<path d="M204.565 149.519C204.565 149.519 199.34 152.48 179.64 151.851C159.94 151.222 152.075 146.611 152.075 146.611C154.535 140.767 156.103 134.585 156.726 128.273C157.04 120.151 204.069 127.067 204.069 127.067C203.679 134.553 203.845 142.058 204.565 149.519Z" fill="#934624"/>
<path d="M158.216 16.6423C153.963 17.0486 149.917 18.6688 146.555 21.3108C143.193 23.9528 140.657 27.5059 139.247 31.549C133.839 45.9317 135.459 59.8691 135.877 65.4231C136.295 70.9771 131.278 87.9272 148.026 103.515C164.774 119.103 209.373 122.351 209.373 122.351C209.373 122.351 215.748 123.583 226.408 115.304C237.068 107.026 238.296 96.9655 241.013 90.7828C244.323 82.629 245.623 73.7949 244.802 65.0301C243.574 56.6205 247.623 42.8142 237.773 24.6589C227.923 6.5037 207.413 -0.70076 188.758 0.111379C182.743 0.330002 176.859 1.93494 171.562 4.80174C166.266 7.66853 161.699 11.7201 158.216 16.6423Z" fill="#4C266E"/>
<path d="M226.46 57.643C226.46 57.643 226.878 73.3618 221 100.948C215.121 128.535 193.017 146.271 174.963 142.865C156.909 139.459 143.95 115.619 146.223 74.7503C158.581 66.2098 161.429 47.1114 162.84 39.9855C163.78 35.5599 165.8 31.4372 168.719 27.9868C168.719 27.9868 187.348 60.0794 226.46 57.643Z" fill="#AA633F"/>
<path d="M221.992 359.077C221.992 359.077 214.154 182.79 204.67 149.492C213.893 152.269 236.598 167.438 236.598 167.438C236.598 167.438 240.386 196.439 235.526 258.502C230.667 320.566 221.992 359.077 221.992 359.077Z" fill="white"/>
<path d="M141.73 355.016C141.73 355.016 145.518 294.316 147.687 239.038C149.855 183.76 147.687 151.929 147.687 151.929C147.687 151.929 137.236 149.048 115.785 156.357C129.554 204.614 141.73 355.016 141.73 355.016Z" fill="white"/>
<path d="M329.454 400.155C329.454 400.155 326.345 384.437 323.915 382.524C321.485 380.612 307.56 376.97 305.783 379.695C304.006 382.419 311.479 385.249 311.479 385.249C311.479 385.249 302.961 382.943 302.543 386.454C302.125 389.964 307.272 392.689 307.272 392.689C307.272 392.689 300.244 391.065 299.852 393.632C299.46 396.2 305.26 399.605 305.26 399.605C305.26 399.605 299.538 398.662 299.826 401.099C300.113 403.535 302.674 405.971 303.51 408.277C304.346 410.582 304.163 422.502 311.348 423.053C318.533 423.603 330.944 411.263 329.454 400.155Z" fill="#AA633F"/>
<path d="M83.882 307.047L94.6988 260.153C94.6988 260.153 102.798 317.789 99.5585 372.804C96.3187 427.82 99.2972 451.949 106.038 470.104L99.2972 479.85L77.4024 451.032C77.4024 451.032 79.571 418.363 82.0008 380.297C84.4307 342.231 83.882 307.047 83.882 307.047Z" fill="#EAD9D0"/>
<path d="M78.3428 517.287L76.0435 542.751H50.6477C51.695 527.803 53.6319 512.931 56.448 498.215C70.3739 509.427 78.3428 517.287 78.3428 517.287Z" fill="#EAD9D0"/>
<path d="M190.901 183.341C191.058 183.655 181.339 213.809 181.339 213.809H174.311L165.218 183.341L178.439 158.872L190.901 183.341Z" fill="#F05452"/>
<path d="M181.338 213.809L204.565 385.93L178.438 438.169L154.113 386.533L174.127 213.809C174.127 213.809 178.438 209.618 181.338 213.809Z" fill="#F05452"/>
<path d="M173.631 542.699C173.631 542.699 175.773 522.238 175.642 504.345C175.512 486.451 174.65 476.706 174.65 476.706H177.262C178.089 486.892 178.316 497.118 177.942 507.331C177.393 525.67 175.851 542.699 175.851 542.699H173.631Z" fill="#36313F"/>
</svg>
