<svg width="9" height="6" viewBox="0 0 9 6" fill="none" xmlns="http://www.w3.org/2000/svg">
<path d="M4.06815 5.8272C4.10382 5.88049 4.15155 5.92407 4.20724 5.95417C4.26292 5.98427 4.32488 6 4.38779 6C4.4507 6 4.51266 5.98427 4.56834 5.95417C4.62403 5.92407 4.67176 5.88049 4.70743 5.8272L8.20719 0.627557C8.2477 0.567584 8.27146 0.497339 8.27588 0.424453C8.2803 0.351568 8.26522 0.27883 8.23227 0.214143C8.19932 0.149456 8.14977 0.0952928 8.08899 0.0575393C8.02822 0.0197859 7.95855 -0.00011453 7.88755 4.95827e-07H0.88803C0.817197 0.000301439 0.747783 0.0204577 0.687253 0.0583016C0.626724 0.0961456 0.57737 0.150245 0.544498 0.214783C0.511625 0.279321 0.49648 0.351854 0.500689 0.424584C0.504898 0.497313 0.528302 0.567486 0.568386 0.627557L4.06815 5.8272Z" fill="#828282"/>
</svg>
