<svg width="11" height="14" viewBox="0 0 11 14" fill="none" xmlns="http://www.w3.org/2000/svg">
<path d="M10.3429 7.36755C10.4317 7.3064 10.5043 7.22457 10.5545 7.12911C10.6046 7.03365 10.6309 6.92743 10.6309 6.81959C10.6309 6.71175 10.6046 6.60553 10.5545 6.51007C10.5043 6.41462 10.4317 6.33279 10.3429 6.27163L1.67679 0.272042C1.57683 0.202598 1.45976 0.161874 1.33828 0.154295C1.21681 0.146716 1.09558 0.172572 0.987764 0.229055C0.879952 0.285538 0.789681 0.370487 0.726758 0.474671C0.663836 0.578856 0.630669 0.698294 0.63086 0.820005L0.63086 12.8192C0.631362 12.9406 0.664956 13.0596 0.728029 13.1634C0.791102 13.2671 0.881268 13.3517 0.988831 13.4081C1.09639 13.4644 1.21728 13.4904 1.3385 13.4832C1.45971 13.476 1.57667 13.4359 1.67679 13.3671L10.3429 7.36755Z" fill="#383838"/>
</svg>
