<svg width="13" height="15" viewBox="0 0 13 15" fill="none" xmlns="http://www.w3.org/2000/svg">
<path d="M10.4413 3.54864L11.4792 2.51077L12.4892 3.52079L11.4514 4.55866C12.4769 5.84238 12.972 7.47006 12.835 9.10742C12.698 10.7448 11.9392 12.2675 10.7145 13.3629C9.48988 14.4583 7.89226 15.0432 6.24981 14.9975C4.60736 14.9518 3.04476 14.2789 1.88293 13.1171C0.72109 11.9552 0.0482149 10.3926 0.00249208 8.75019C-0.0432307 7.10774 0.541669 5.51013 1.63707 4.28545C2.73247 3.06078 4.25522 2.30201 5.89258 2.16499C7.52994 2.02796 9.15762 2.52307 10.4413 3.54864ZM6.4284 13.5717C7.08502 13.5717 7.73521 13.4424 8.34185 13.1911C8.94849 12.9398 9.4997 12.5715 9.964 12.1072C10.4283 11.6429 10.7966 11.0917 11.0479 10.4851C11.2992 9.87842 11.4285 9.22823 11.4285 8.5716C11.4285 7.91498 11.2992 7.26479 11.0479 6.65815C10.7966 6.05151 10.4283 5.5003 9.964 5.036C9.4997 4.5717 8.94849 4.20339 8.34185 3.95211C7.73521 3.70083 7.08502 3.5715 6.4284 3.5715C5.10229 3.5715 3.83049 4.0983 2.89279 5.036C1.95509 5.9737 1.42829 7.24549 1.42829 8.5716C1.42829 9.89771 1.95509 11.1695 2.89279 12.1072C3.83049 13.0449 5.10229 13.5717 6.4284 13.5717ZM5.7141 5.0001H7.1427V9.2859H5.7141V5.0001ZM3.5712 0H9.2856V1.4286H3.5712V0Z" fill="#828282"/>
</svg>
