<svg xmlns="http://www.w3.org/2000/svg" viewBox="0 0 1237.59 204.72">
  <defs>
    <style>
      .cls-1 {
        fill: #2c58b1;
      }
    </style>
  </defs>
  <title>Covid Watch Logo Blue</title>
  <g id="Layer_2" data-name="Layer 2">
    <g id="LOGOS">
      <path id="Covid_Watch_Logo_-_Blue" data-name="Covid Watch Logo - Blue" class="cls-1" d="M199.49,113a13.34,13.34,0,0,1-17.4-.86c-2.76-2.65-5.56-5.19-9.32-6.34-6.07-1.86-12.07-.83-17.82,1.14l-.46.17a4,4,0,0,0-2.45,3.17A50.07,50.07,0,0,1,143.16,132a4,4,0,0,0-.62,3.52,12,12,0,0,0,1.41,3,52.81,52.81,0,0,0,6.23,8c4.07,4.22,9.34,5.38,15,5.43a13.39,13.39,0,1,1-13.37,13.75c-.08-3.83-.26-7.61-2.1-11.07-3-5.61-7.95-9.13-13.4-11.8l-.11-.05a4,4,0,0,0-4.1.39,50,50,0,0,1-21.9,9.16,4.1,4.1,0,0,0-3,2.22,12,12,0,0,0-1,2.84,53.1,53.1,0,0,0-1.23,10c-.11,5.86,2.8,10.4,6.8,14.47a13.39,13.39,0,1,1-19.18.27c2.65-2.76,5.2-5.56,6.35-9.32,1.85-6.07.82-12.07-1.14-17.82l0-.07a4,4,0,0,0-3.23-2.61,50,50,0,0,1-21.85-9.07,4.1,4.1,0,0,0-3.72-.59A12.1,12.1,0,0,0,66.24,144a53.4,53.4,0,0,0-8,6.23c-4.22,4.07-5.38,9.34-5.43,15a13.38,13.38,0,1,1-13.75-13.37c3.83-.08,7.61-.26,11.08-2.1,5.61-3,9.12-7.95,11.8-13.4,0-.06.05-.11.07-.16a4,4,0,0,0-.38-4.08,50,50,0,0,1-9-21.75,4.08,4.08,0,0,0-2-2.93,11.75,11.75,0,0,0-3.28-1.2,53,53,0,0,0-10-1.23c-5.86-.11-10.41,2.8-14.48,6.8a13.39,13.39,0,1,1-.26-19.18c2.76,2.65,5.56,5.2,9.32,6.35,6.07,1.85,12.07.82,17.81-1.14.19-.07.38-.13.55-.21a4,4,0,0,0,2.44-3.13,50.1,50.1,0,0,1,8.91-21.38,4,4,0,0,0,.65-3.41,11.56,11.56,0,0,0-1.55-3.46,53.33,53.33,0,0,0-6.22-8c-4.07-4.22-9.34-5.38-15-5.43A13.38,13.38,0,1,1,52.86,39.09c.08,3.83.26,7.61,2.11,11.08,3,5.61,8,9.12,13.4,11.8.3.14.59.27.88.38A4,4,0,0,0,73,61.81,49.81,49.81,0,0,1,94.21,53a4,4,0,0,0,2.73-1.76,11.49,11.49,0,0,0,1.55-3.85,53,53,0,0,0,1.23-10c.11-5.86-2.81-10.41-6.8-14.48a13.38,13.38,0,1,1,19.17-.26c-2.65,2.76-5.19,5.56-6.34,9.32-1.86,6.07-.83,12.07,1.14,17.81a9,9,0,0,0,.38,1A4,4,0,0,0,110.33,53a50,50,0,0,1,21.23,8.72,4.08,4.08,0,0,0,3.37.64,12,12,0,0,0,3.55-1.58,52.74,52.74,0,0,0,8-6.22c4.22-4.07,5.38-9.34,5.43-15a13.39,13.39,0,1,1,13.75,13.37c-3.83.08-7.61.26-11.07,2.11-5.61,3-9.13,8-11.8,13.4-.13.27-.25.54-.35.81A4,4,0,0,0,143,73a50,50,0,0,1,9,21.37,4.06,4.06,0,0,0,2,2.89,12.06,12.06,0,0,0,3.38,1.26,53.1,53.1,0,0,0,10,1.23c5.86.11,10.4-2.81,14.47-6.8a13.39,13.39,0,1,1,17.67,20Zm145.76,13a31.13,31.13,0,0,1-8.64,5.4A32.94,32.94,0,0,1,323,133.88a31.62,31.62,0,0,1-12.35-2.29,26.57,26.57,0,0,1-9.38-6.55,29.09,29.09,0,0,1-6-10.19,39.09,39.09,0,0,1-2.09-13.1,33.35,33.35,0,0,1,2.29-12.49,32.41,32.41,0,0,1,6.28-10.05,28.33,28.33,0,0,1,9.18-6.69,26,26,0,0,1,10.87-2.36,28.69,28.69,0,0,1,12.89,2.77,56.08,56.08,0,0,1,9,5.33l7.69-18.49A61.09,61.09,0,0,0,338.77,54a53.33,53.33,0,0,0-17.69-2.7A50,50,0,0,0,301.37,55a44.29,44.29,0,0,0-15.32,10.67A47.5,47.5,0,0,0,276.19,82a60.45,60.45,0,0,0-3.44,20.79,53.31,53.31,0,0,0,3.38,19,47.81,47.81,0,0,0,9.78,15.79,46.07,46.07,0,0,0,15.66,10.87,56.07,56.07,0,0,0,21,4.25,49.32,49.32,0,0,0,14-1.62,55,55,0,0,0,10.73-4,38.17,38.17,0,0,0,6-3.64Zm25.51-4a50.86,50.86,0,0,0,27,27,51.31,51.31,0,0,0,39.29,0A52.47,52.47,0,0,0,453.31,138a50.46,50.46,0,0,0,11.07-16.13,48.9,48.9,0,0,0,4-19.71,48.24,48.24,0,0,0-4-19.44,52,52,0,0,0-11.07-16.27,53.1,53.1,0,0,0-16.26-11.14,49.67,49.67,0,0,0-39.29,0,51.36,51.36,0,0,0-16.13,11.14,52.22,52.22,0,0,0-10.87,16.27,49,49,0,0,0-3.91,19.44A49.71,49.71,0,0,0,370.76,121.87ZM389.39,89.6a31.19,31.19,0,0,1,6.48-10.19,29.87,29.87,0,0,1,9.72-6.82,30.92,30.92,0,0,1,24,0,29.07,29.07,0,0,1,9.65,6.82,32.57,32.57,0,0,1,6.48,10.19,33.37,33.37,0,0,1-6.27,35,28.59,28.59,0,0,1-21.34,9.25,30.11,30.11,0,0,1-22.07-9.25,31.84,31.84,0,0,1-9-22.47A33.87,33.87,0,0,1,389.39,89.6Zm83.3-37.26,45.36,104L563.41,52.34H540.19L513.86,121.6l11.34,2.29-29-71.55ZM580.55,151.7h19.58V52.34H580.55Zm79.78,0a55.26,55.26,0,0,0,19.17-3.31,47.68,47.68,0,0,0,15.93-9.58,45.5,45.5,0,0,0,10.87-15.12,48.06,48.06,0,0,0,4-19.91,59.79,59.79,0,0,0-3-18.5,47.65,47.65,0,0,0-9.38-16.6A45.12,45.12,0,0,0,681,56.8q-10.53-4.45-25.52-4.46h-29.7V151.7Zm-15-80.59h15.93a33,33,0,0,1,8.23,1.28A28.61,28.61,0,0,1,679,77.05a26.36,26.36,0,0,1,7.83,9.51Q690,92.71,690,102.43a34.44,34.44,0,0,1-2.36,13.16,24.73,24.73,0,0,1-6.75,9.52,29.68,29.68,0,0,1-10.46,5.73,43.71,43.71,0,0,1-13.5,2H645.35Zm159.84,85.18,28.62-61.42-9-26.87-18.49,46,3.1,1.35L788.18,53H765.23Zm51.16-.27L894.69,53H873.63l-18.22,59.8,3.51.54L834.48,53H815Zm50.09-4.32,34.29-82.35-14.18,9.72,28.62,72.63h22.68L933,48.43H932L887.13,151.7Zm5.26-19.44h42.8l-6.89-16.47H917.78Zm65.75-61h23.22V151.7h19.57V71.24h24.17V52.34h-67Zm148.9,54.68a31.13,31.13,0,0,1-8.64,5.4,32.89,32.89,0,0,1-13.63,2.56,31.62,31.62,0,0,1-12.35-2.29,26.61,26.61,0,0,1-9.39-6.55,29.07,29.07,0,0,1-6-10.19,39.08,39.08,0,0,1-2.1-13.1,33.35,33.35,0,0,1,2.3-12.49,32.41,32.41,0,0,1,6.28-10.05,28.33,28.33,0,0,1,9.18-6.69,26,26,0,0,1,10.86-2.36,28.73,28.73,0,0,1,12.9,2.77,55.93,55.93,0,0,1,9,5.33l7.7-18.49A61.2,61.2,0,0,0,1119.87,54a53.27,53.27,0,0,0-17.68-2.7A50,50,0,0,0,1082.48,55a44.29,44.29,0,0,0-15.32,10.67A47.5,47.5,0,0,0,1057.3,82a60.45,60.45,0,0,0-3.44,20.79,53.31,53.31,0,0,0,3.37,19,47.84,47.84,0,0,0,9.79,15.79,46.07,46.07,0,0,0,15.66,10.87,56,56,0,0,0,21,4.25,49.32,49.32,0,0,0,14-1.62,55.07,55.07,0,0,0,10.74-4,37.94,37.94,0,0,0,6-3.64ZM1218,52.34v40.1H1173.6V52.34H1154V151.7h19.57V111.34H1218V151.7h19.57V52.34Z"/>
    </g>
  </g>
</svg>
