<svg width="209" height="285" viewBox="0 0 209 285" fill="none" xmlns="http://www.w3.org/2000/svg">
<path d="M76.1341 315.725H169.097L163.445 289.813L144.348 270.284H68.3556L76.1341 315.725Z" fill="#51495B"/>
<path d="M67.4139 261.89C67.4139 261.89 81.1935 269.232 108.722 271.609C136.251 273.985 147.341 266.749 147.341 266.749L127.591 94.306L82.9558 95.8294L67.4139 261.89Z" fill="#DFF2F7"/>
<g style="mix-blend-mode:multiply" opacity="0.2">
<path d="M111.213 109.388L114.16 110.911L119.28 105.183C119.28 105.183 118.414 135.726 120.146 171.799C121.878 207.872 121.666 234.485 137.283 267.42C139.319 273.894 148.116 278.083 148.116 278.083L158.75 299.669V315.664H165.815L169.036 309.282L166.134 295.099L154.983 270.116L152.613 147.974C152.613 147.974 132.255 96.5305 132.057 96.3781C131.86 96.2258 120.237 92.2042 119.22 92.4784C118.202 92.7526 108.585 98.9069 108.585 98.9069L111.213 109.388Z" fill="#6DB8BC"/>
</g>
<g style="mix-blend-mode:multiply" opacity="0.2">
<path d="M98.999 107.849L97.0848 110.438L90.3697 105.518L82.895 262.865L81.2086 315.74H74.8582C74.8582 315.74 70.3004 234.332 69.556 180.528C68.8116 126.723 86.5564 95.8597 86.5564 95.8597L103.147 104.726L98.999 107.849Z" fill="#6DB8BC"/>
</g>
<path d="M144.348 276.484L146.627 284.009L154.405 293.119L161.485 302.213L165.648 305.336L169.097 298.237L151.899 274.595L146.475 274.199L144.348 276.484Z" fill="#36313F"/>
<path d="M78.8534 260.732C89.2031 264.41 100.057 266.465 111.031 266.826C122.241 267.087 133.457 266.69 144.622 265.637L149.696 276.636C149.696 276.636 133.546 280.917 108.084 279.302C82.6211 277.687 74.8578 275.052 74.8578 275.052L78.8534 260.732Z" fill="#36313F"/>
<path d="M87.7107 99.8515L97.2363 108.26L105.258 92.5394L113.735 108.26L124.142 95.967L123.139 88.5178L120.526 85.334L89.9896 87.1011L85.8116 93.3468L87.7107 99.8515Z" fill="#DFF2F7"/>
<path d="M153.023 96.4392C153.023 96.4392 162.655 98.45 171.254 110.622C179.853 122.793 194.468 166.407 201.639 189.425C208.81 212.442 211.544 232.87 206.197 246.52C200.849 260.169 186.826 280.582 176.1 289.798C161.88 281.77 163.946 262.545 163.946 262.545C163.946 262.545 177.073 238.796 177.544 233.282C178.015 227.767 160.179 178.7 160.179 178.7L146.035 146.71L153.023 96.4392Z" fill="#FCF0E8"/>
<path d="M153.935 151.432L153.023 96.4388L139.669 91.7164L134.245 112.282L129.779 151.432L127.652 184.26C127.652 184.26 125.996 192.181 126.588 206.592C127.181 221.003 130.827 249.536 147.341 273.62L151.261 279.287L146.627 284.055C149.04 291.843 154.364 298.394 161.485 302.335C167.957 299.151 176.176 289.92 176.176 289.92L164.022 262.667L160.574 254.822L156.684 185.448L153.935 151.432Z" fill="#FCF0E8"/>
<path d="M79.9168 208.953L76.1338 315.725H38.6541L43.8347 257.594L40.9025 212.274L17.1264 187.687L16.3516 185.326C16.3516 185.326 26.1051 155.621 33.4127 138.514C40.7202 121.406 45.4147 116.928 51.8563 110.53C58.2979 104.132 72.989 98.2363 72.989 98.2363L79.9168 208.953Z" fill="#FCF0E8"/>
<path d="M50.1401 203.546V148.035L31.6661 189.576L50.1401 203.546Z" fill="#EAD9D0"/>
<path d="M38.6544 252.857C38.6544 252.857 35.7374 257.427 27.9285 257.579C23.7758 257.795 19.62 257.216 15.6834 255.873L11.4599 248.119L9.53047 250.023C9.53047 250.023 4.53217 242.924 4.53217 229.686C4.53217 216.449 10.6091 200.133 10.6091 200.133L30.0099 227.158L38.6544 252.857Z" fill="#EAD9D0"/>
<path d="M30.5263 246.519C30.5263 246.519 28.5209 253.877 22.1552 256.056C15.7896 258.234 7.82872 252.933 8.23892 243.122C8.64912 233.312 15.0148 226.518 19.6181 227.158C24.2214 227.797 30.5263 246.519 30.5263 246.519Z" fill="#F5E5E6"/>
<path d="M25.5434 245.667C25.8016 245.773 31.0734 247.54 34.6589 245.667C38.2443 243.793 38.6545 235.993 38.6545 235.993L22.5505 223.258C22.5505 223.258 15.8354 226.168 17.4306 232.87C19.0258 239.573 25.5434 245.667 25.5434 245.667Z" fill="#DBC3B9"/>
<path d="M0.627728 189.272L45.9924 267.694C46.2229 268.092 46.5532 268.422 46.9503 268.651C47.3474 268.881 47.7975 269.003 48.256 269.004H80.3425C80.7959 269.005 81.2417 268.887 81.6366 268.664C82.0314 268.44 82.3619 268.118 82.5959 267.729C82.8299 267.339 82.9593 266.896 82.9718 266.441C82.9842 265.987 82.8792 265.537 82.6669 265.135L41.2827 186.698C41.0589 186.274 40.7243 185.92 40.3147 185.673C39.9051 185.426 39.4362 185.296 38.9582 185.296H2.90659C2.43979 185.289 1.97945 185.406 1.57345 185.638C1.16746 185.869 0.830641 186.205 0.598009 186.61C0.365377 187.016 0.245424 187.477 0.250652 187.945C0.255881 188.414 0.386088 188.872 0.627728 189.272Z" fill="#322875"/>
<path d="M90.0506 87.1011C90.0506 87.1011 93.0891 88.8225 104.544 88.4569C115.999 88.0913 120.572 85.4102 120.572 85.4102C119.142 82.012 118.23 78.4172 117.868 74.7468C117.686 70.0244 90.3393 74.046 90.3393 74.046C90.5662 78.3989 90.4697 82.7626 90.0506 87.1011Z" fill="#934624"/>
<path d="M117.002 9.83648C119.474 10.0727 121.828 11.0148 123.782 12.5511C125.737 14.0874 127.212 16.1534 128.032 18.5043C131.176 26.8675 130.234 34.9718 129.991 38.2013C129.748 41.4308 132.665 51.2869 122.927 60.3508C113.189 69.4147 87.255 71.3037 87.255 71.3037C87.255 71.3037 83.5481 72.0197 77.3496 67.2059C71.1511 62.3921 70.437 56.5424 68.857 52.9473C66.9322 48.2061 66.1766 43.0693 66.6541 37.9728C67.3682 33.0828 65.0133 25.0548 70.7409 14.4979C76.4684 3.94112 88.3945 -0.2481 99.2419 0.224139C102.74 0.351262 106.161 1.2845 109.241 2.95147C112.321 4.61844 114.976 6.97434 117.002 9.83648Z" fill="#4C266E"/>
<path d="M77.3189 33.6773C77.3189 33.6773 77.0758 42.8174 80.4941 58.8583C83.9124 74.8992 96.7652 85.2123 107.263 83.2319C117.761 81.2516 125.297 67.3891 123.975 43.6248C116.789 38.6587 115.133 27.5534 114.312 23.4099C113.766 20.8366 112.592 18.4393 110.894 16.433C110.894 16.433 100.062 35.094 77.3189 33.6773Z" fill="#AA633F"/>
<path d="M79.917 208.954C79.917 208.954 84.4747 106.447 89.9896 87.0856C84.6266 88.7003 71.4244 97.5205 71.4244 97.5205C71.4244 97.5205 69.2215 114.384 72.0473 150.472C74.8731 186.56 79.917 208.954 79.917 208.954Z" fill="white"/>
<path d="M126.588 206.593C126.588 206.593 124.385 171.297 123.124 139.154C121.863 107.011 123.124 88.5025 123.124 88.5025C123.124 88.5025 129.201 86.8268 141.674 91.0769C133.668 119.137 126.588 206.593 126.588 206.593Z" fill="white"/>
<path d="M17.4306 232.84C17.4306 232.84 19.2385 223.7 20.6514 222.588C22.0643 221.476 30.1619 219.358 31.195 220.943C32.2281 222.527 27.883 224.172 27.883 224.172C27.883 224.172 32.8358 222.832 33.0789 224.873C33.3219 226.914 30.329 228.498 30.329 228.498C30.329 228.498 34.4158 227.554 34.6437 229.047C34.8716 230.54 31.4988 232.52 31.4988 232.52C31.4988 232.52 34.826 231.972 34.6589 233.388C34.4917 234.805 33.0029 236.222 32.5167 237.562C32.0306 238.903 32.1369 245.834 27.959 246.154C23.7811 246.474 16.5646 239.299 17.4306 232.84Z" fill="#AA633F"/>
<path d="M160.224 178.7L153.935 151.432C153.935 151.432 149.225 184.945 151.109 216.936C152.993 248.926 151.261 262.956 147.341 273.513L151.261 279.18L163.992 262.423C163.992 262.423 162.731 243.427 161.318 221.293C159.905 199.158 160.224 178.7 160.224 178.7Z" fill="#EAD9D0"/>
<path d="M97.9957 106.767C97.9046 106.95 103.556 124.484 103.556 124.484H107.643L112.93 106.767L105.243 92.5393L97.9957 106.767Z" fill="#F05452"/>
<path d="M103.557 124.484L90.0506 224.568L105.243 254.944L119.387 224.919L107.75 124.484C107.75 124.484 105.243 122.047 103.557 124.484Z" fill="#F05452"/>
<path d="M108.038 315.725C108.038 315.725 106.793 303.828 106.869 293.423C106.945 283.019 107.446 277.352 107.446 277.352H105.927C105.446 283.275 105.314 289.221 105.532 295.16C105.851 305.823 106.747 315.725 106.747 315.725H108.038Z" fill="#36313F"/>
</svg>
