<svg width="360" height="423" viewBox="0 0 360 423" fill="none" xmlns="http://www.w3.org/2000/svg">
<path d="M224.049 11.002C224.049 11.002 211.096 -5.98009 181.333 3.41059C151.571 12.8013 148.283 41.4416 145.218 61.9729C142.152 82.5043 124.626 111.169 117.235 128.743C109.844 146.317 107.841 171.58 127.123 184.52C146.404 197.46 279.446 189.844 279.446 189.844C279.446 189.844 290.62 168.918 279.446 140.697C268.273 112.476 255.789 99.0674 255.27 78.2649C254.751 57.4625 259.918 10.2379 224.049 11.002Z" fill="#4C266E"/>
<path d="M36.0045 198.397C36.0045 198.397 36.7461 189.647 36.8944 186.344C37.0427 183.041 43.371 178.038 46.4115 169.608C49.4521 161.179 49.3532 155.165 48.4633 153.119C47.5734 151.073 44.2609 152.355 44.2609 152.355L28.8358 142.496C28.8358 142.496 24.1637 138.602 20.4804 139.317C16.7972 140.031 6.11822 144.567 4.83279 148.461C3.54736 152.355 -0.506692 165.344 0.531541 169.189C3.1188 176.276 6.60811 183.002 10.9139 189.203C15.1904 195.045 17.3657 205.766 17.3657 205.766L36.0045 198.397Z" fill="#E7AD83"/>
<path d="M166.06 97.2503C168.837 96.5968 170.557 93.8224 169.902 91.0534C169.246 88.2845 166.464 86.5697 163.687 87.2232C160.909 87.8767 159.19 90.6511 159.845 93.4201C160.5 96.189 163.283 97.9038 166.06 97.2503Z" fill="#322875"/>
<path d="M235.654 99.15C238.431 98.4965 240.151 95.722 239.495 92.9531C238.84 90.1842 236.057 88.4693 233.28 89.1228C230.503 89.7764 228.783 92.5508 229.439 95.3197C230.094 98.0886 232.877 99.8035 235.654 99.15Z" fill="#322875"/>
<path d="M195.969 464.614L132.39 464.269C131.698 464.269 136.073 194.034 173.277 159.38C177.331 169.757 205.412 180.848 223.334 163.915C211.024 184.151 200.419 387.739 195.969 464.614Z" fill="white"/>
<g style="mix-blend-mode:multiply" opacity="0.2">
<path d="M224.049 163.89C224.049 163.89 222.319 163.718 214.161 169.953C211.541 176.682 193.916 237.044 195.028 240.667C191.122 241.776 143.66 242.836 132.487 235.047C127.543 255.012 143.141 282.987 143.141 282.987C143.141 282.987 158.739 285.747 165.735 286.585C172.731 287.423 182.742 286.363 183.583 312.194C184.423 338.024 185.709 464.565 185.709 464.565H195.943C193.446 462.716 202.444 185.974 224.049 163.89Z" fill="#6DB8BC"/>
</g>
<path d="M38.9975 196.893L11.8057 203.573C11.8057 203.573 31.7051 283.751 37.4401 305.293C38.3233 308.646 39.5492 311.9 41.0987 315.004C45.8943 324.69 52.717 342.116 76.3244 322.768C80.595 319.314 84.4817 315.414 87.918 311.134C94.9879 302.138 115.728 278.476 115.728 278.476C115.728 278.476 116.222 225.336 123.49 210.868C130.757 196.4 138.173 167.341 139.607 163.25C139.607 163.25 89.5001 226.396 67.9197 272.315C61.3195 256.417 38.9975 196.893 38.9975 196.893Z" fill="#FCF0E8"/>
<path d="M156.268 155.387C150.028 156.262 144.201 159.004 139.557 163.25C132.512 187.897 122.822 210.228 119.015 221.861C115.208 233.495 118.496 289.223 114.071 324.148C113.601 327.87 101.464 391.658 93.8008 464.294H132.413C132.413 464.294 136.863 359.123 138.667 324.099C141.263 272.019 163.931 161.303 156.268 155.387Z" fill="#FCF0E8"/>
<path d="M194.635 464.614H278.336C278.336 464.614 260.686 394.394 251.49 383.549C242.295 372.704 224.496 325.134 270.525 248.924C269.066 239.731 246.003 164.778 253.394 164.581C253.394 164.581 229.267 164.112 212.631 212.791C204.819 235.639 202.1 282.174 198.021 321.24C198.293 337.778 194.635 464.614 194.635 464.614Z" fill="#FCF0E8"/>
<path d="M122.352 210.795L73.9503 294.818C73.9503 294.818 54.1744 330.31 38.5762 308.793C45.3247 322.941 52.9137 350.694 84.4068 317.765C95.1105 304.923 116.543 278.107 116.543 278.107C116.543 278.107 116.37 219.421 122.352 210.795Z" fill="#EAD9D0"/>
<path d="M218.537 238.868C223.926 238.055 249.041 234.136 257.001 231.104C257.738 230.826 258.551 230.826 259.288 231.103C260.025 231.379 260.636 231.915 261.006 232.608C263.725 237.71 268.422 245.671 270.053 248.16C270.199 248.384 270.277 248.645 270.277 248.912C270.277 249.179 270.199 249.44 270.053 249.664C264.961 257.847 221.108 331.148 254.875 382.957C258.608 389.809 272.179 425.499 278.038 462.84C278.066 463.048 278.049 463.259 277.989 463.46C277.929 463.662 277.826 463.848 277.688 464.006C277.55 464.165 277.38 464.292 277.189 464.38C276.998 464.468 276.79 464.514 276.579 464.516H242.219C241.868 464.513 241.53 464.385 241.267 464.154C241.004 463.923 240.833 463.605 240.785 463.259L232.998 406.989C232.998 406.989 232.529 366.37 196.957 378.052C196.734 357.053 192.853 342.264 219.007 337.064C219.307 337.008 219.581 336.859 219.79 336.637C219.999 336.416 220.132 336.133 220.169 335.831C222.344 320.304 219.328 335.511 225.113 301.103C225.145 300.891 225.131 300.675 225.071 300.469C225.011 300.263 224.907 300.073 224.765 299.911C224.624 299.749 224.45 299.62 224.254 299.532C224.057 299.444 223.844 299.4 223.629 299.402C219.427 299.402 211.27 299.205 207.809 299.057C207.6 299.046 207.395 298.992 207.209 298.896C207.023 298.801 206.859 298.667 206.728 298.504C206.598 298.341 206.503 298.153 206.451 297.951C206.398 297.749 206.389 297.538 206.424 297.332L217.276 239.953C217.357 239.669 217.519 239.414 217.743 239.221C217.967 239.028 218.243 238.906 218.537 238.868Z" fill="#EAD9D0"/>
<path d="M224 142.447C224 142.447 239.821 143.137 253.664 163.052C252.551 169.337 229.933 221.935 229.933 221.935L208.748 230.562L223.58 245.03C223.58 245.03 212.233 302.36 198.118 321.19C199.774 299.944 199.206 231.942 210.923 199.112C214.31 188.809 220.811 170.52 224.643 159.676C226.644 154.061 226.45 147.9 224.099 142.422L224 142.447Z" fill="#EAD9D0"/>
<path d="M118.274 229.256L132.76 235.146L143.958 283.135C143.958 283.135 122.724 278.205 114.962 272.068C115.605 259.128 118.274 229.256 118.274 229.256Z" fill="#EAD9D0"/>
<path d="M186.278 142.447C182.472 143.285 158.147 148.288 152.041 160.933C143.538 175.844 136.641 207.763 136.418 209.266L150.212 219.446V219.594L132.513 231.178L138.594 323.458C138.915 321.905 154.39 173.429 186.353 142.546C186.427 142.521 186.377 142.422 186.278 142.447Z" fill="#EAD9D0"/>
<path d="M252.874 346.726C252.874 346.726 228.031 336.127 213.323 340.909C196.192 346.43 198.491 345.986 197.774 346.183C197.057 346.38 176.243 359.222 206.376 349.905C203.704 351.337 200.947 352.604 198.12 353.701C195.979 354.713 194.003 356.043 192.261 357.644C189.468 360.257 191.446 362.426 208.181 355.032C201.507 358.926 184.549 371.965 210.48 360.208C210.48 360.898 190.185 372.531 217.723 362.919C226.08 360.814 234.759 360.296 243.308 361.391C245.471 361.728 247.678 361.645 249.809 361.144C252.14 360.692 254.307 359.629 256.088 358.063C258.14 355.5 263.85 346.011 252.874 346.726Z" fill="#E7AD83"/>
<path d="M253.145 165.369C253.145 165.369 271.092 167.538 294.526 202.168C302.98 213.432 332.867 257.009 342.038 270.417C343.521 272.586 345.128 274.656 346.784 276.677C354.027 285.378 375.879 316.779 335.116 337.803C315.859 348.229 283.204 357.989 258.114 365.507C256.008 357.335 252.468 349.6 247.657 342.659C247.657 342.659 313.783 304.011 313.783 303.223C313.783 302.434 270.523 248.998 270.523 248.998C270.523 248.998 223.284 209.759 253.145 165.369Z" fill="#FCF0E8"/>
<path d="M250.673 214.639L218.636 212.15L223.283 192.506L255.32 194.995L250.673 214.639Z" fill="#43C4D9"/>
<path d="M248.224 212.421L221.946 210.375L225.728 194.724L252.006 196.77L248.224 212.421Z" fill="white"/>
<path d="M233.072 193.886C233.072 193.886 232.034 190.51 238.659 191.027C240.611 191.2 244.517 191.027 243.602 194.724L233.072 193.886Z" fill="#322875"/>
<path d="M185.561 129.014C185.561 129.014 188.033 140.82 177.181 152.971C174.289 156.274 166.033 170.225 191.049 173.996C193.521 173.799 210.825 178.482 222.518 166.281C224.297 164.408 229.241 153.292 227.239 149.373C223.418 142.717 221.201 135.266 220.762 127.609C220.354 120.573 220.735 113.512 221.9 106.56L185.561 129.014Z" fill="#E7AD83"/>
<path d="M220.736 126.426C220.736 126.426 210.601 148.19 182.52 145.405C187.266 134.782 185.758 129.532 185.758 129.532C185.758 129.532 205.064 128.916 221.972 106.56C220.959 112.845 220.069 125.49 220.736 126.426Z" fill="#CF8D65"/>
<path d="M165.562 58.9412C164.258 73.5929 164.815 88.3501 167.218 102.863C171.222 125.686 181.901 137.665 198.884 136.901C215.866 136.137 231.119 118.884 233.961 96.2081C236.804 73.5325 237.027 63.501 237.027 63.501C237.027 63.501 218.709 52.8533 213.172 33.2585C196.98 53.0258 165.562 58.9412 165.562 58.9412Z" fill="#E7AD83"/>
<path d="M176.611 221.023L175.82 219.298C161.309 188.587 158.219 155.609 158.17 133.327C158.058 119.451 159.199 105.592 161.581 91.9197L164.448 92.5112C162.074 106.01 160.933 119.697 161.037 133.401C161.037 154.943 164.003 186.615 177.575 216.315C222.07 178.408 226.841 147.993 234.158 102.173C234.603 99.4618 235.048 96.7013 235.493 93.8668L238.385 94.3351C237.941 97.1778 237.496 99.9383 237.051 102.617C229.635 149.595 224.691 180.601 177.995 219.791L176.611 221.023Z" fill="#322875"/>
<path d="M100.079 320.993C93.5465 321.034 87.0768 319.716 81.0837 317.123C75.0906 314.53 69.706 310.719 65.2739 305.933C56.7456 297.159 49.6263 284.49 44.1632 268.247C39.4322 253.561 36.1212 238.457 34.2753 223.143C31.9488 205.28 30.9162 187.274 31.1853 169.263H34.1022C33.8626 187.134 34.8952 204.999 37.1922 222.723C40.6777 249.121 48.7611 284.613 67.4493 303.814C71.6141 308.313 76.6727 311.899 82.3032 314.343C87.9336 316.788 94.0127 318.036 100.154 318.011C129.372 318.011 150.978 301.374 164.425 268.716C170.684 252.707 174.533 235.863 175.846 218.731L178.763 218.879C177.455 236.316 173.548 253.462 167.169 269.751C162.13 283.105 154.098 295.135 143.685 304.923C131.724 315.606 116.134 321.351 100.079 320.993Z" fill="#322875"/>
<path d="M35.7441 169.246C43.1983 167.492 47.8148 160.045 46.0555 152.612C44.2961 145.18 36.8271 140.577 29.3729 142.331C21.9188 144.085 17.3022 151.532 19.0615 158.965C20.8209 166.397 28.2899 171 35.7441 169.246Z" fill="white"/>
<path d="M34.2479 162.913C38.1943 161.984 40.6383 158.042 39.7069 154.107C38.7755 150.172 34.8213 147.735 30.875 148.664C26.9286 149.593 24.4846 153.535 25.416 157.47C26.3474 161.405 30.3016 163.842 34.2479 162.913Z" fill="#322875"/>
<path d="M217.893 239.262L223.776 245.029C223.776 245.029 218.091 279.536 208.944 299.254H210.65C210.65 299.254 217.695 280.078 221.403 265.437C225.111 250.797 225.902 244.586 225.902 244.586L218.486 238.843L217.893 239.262Z" fill="#E0CBC1"/>
<path d="M132.758 235.146L135.774 280.916L134.711 280.596L131.918 234.801L132.758 235.146Z" fill="#E0CBC1"/>
</svg>
