<svg width="371" height="129" viewBox="0 0 371 129" fill="none" xmlns="http://www.w3.org/2000/svg">
<path d="M0 117.264H371C371 117.264 348.191 89.3881 274.405 87.1518C200.619 84.9155 176.977 100.853 148.925 103.346C120.874 105.838 107.762 99.2124 60.6626 100.058C13.5629 100.904 0 117.264 0 117.264Z" fill="#C4E8F0"/>
<path d="M112.887 42.6697C112.887 42.6697 109.755 55.5488 108.865 62.1409C107.974 68.733 106.424 74.292 114.586 76.8131C122.748 79.3341 125.672 78.9349 125.84 78.9096C126.008 78.8844 129.985 72.7817 130.454 69.6283C130.923 66.4748 130.598 38.5064 130.598 38.5064C130.598 38.5064 116.468 36.7559 112.887 42.6697Z" fill="#322875"/>
<path d="M149.717 39.1966C149.717 39.1966 150.129 34.8786 140.791 33.9049C131.454 32.9312 120.842 33.2052 115.635 38.3877C110.428 43.5703 111.556 43.8018 112.486 43.1126C113.031 42.4453 113.708 41.8977 114.475 41.5044C115.242 41.111 116.081 40.8804 116.941 40.8269C120.186 40.4117 121.689 45.1251 121.689 45.1251L149.717 39.1966Z" fill="#335AA9"/>
<path d="M156.945 119.881C156.067 117.184 156.18 114.691 154.459 112.746C153.754 112.532 153.162 112.049 152.813 111.4C152.464 110.752 152.385 109.992 152.595 109.286C152.654 108.935 152.786 108.601 152.982 108.305C153.179 108.009 153.436 107.758 153.736 107.567C154.036 107.377 154.373 107.252 154.724 107.2C155.076 107.148 155.434 107.171 155.776 107.266L156.292 107.427C156.292 107.427 161.485 107.744 161.113 109.099L158.406 118.979C158.406 118.979 157.543 121.695 156.945 119.881Z" fill="#FFC4AD"/>
<path d="M161.079 109.101L158.373 118.981C158.373 118.981 157.543 121.696 156.945 119.881C156.068 117.218 156.182 114.742 154.513 112.811C154.513 112.811 154.489 112.339 155.518 111.594C156.355 110.71 156.812 109.533 156.793 108.316C156.772 107.894 156.758 107.607 156.87 107.483C158.247 107.618 161.364 108.038 161.079 109.101Z" fill="#573961"/>
<path d="M155.216 41.5632C154.245 40.6279 152.999 40.0304 151.662 39.8592C150.325 39.6879 148.969 39.9521 147.794 40.6126C146.619 41.273 145.688 42.2946 145.139 43.5257C144.591 44.7568 144.453 46.132 144.748 47.4473C144.748 47.4473 146.04 54.726 154.866 64.1172C163.691 73.5084 168.561 75.8379 168.561 75.8379C169.587 76.524 170.831 76.8026 172.051 76.619C173.271 76.4353 174.379 75.8028 175.157 74.8452C175.935 73.8876 176.328 72.674 176.258 71.4422C176.188 70.2103 175.66 69.049 174.779 68.1856C174.634 68.0484 174.481 67.9204 174.32 67.8024C170.968 64.8192 167.904 61.5275 165.168 57.9706C161.688 53.7292 158.868 48.9868 156.804 43.9037C156.465 43.0098 155.921 42.2081 155.216 41.5632Z" fill="#FFC4AD"/>
<path d="M146.34 41.7162C145.62 42.464 145.097 43.3794 144.819 44.3798C144.541 45.3803 144.516 46.4342 144.747 47.4465C144.747 47.4465 146.04 54.7252 154.865 64.1164C156.333 65.7353 157.683 67.0218 158.91 68.2128L167.221 60.4733C166.557 59.7111 165.855 58.8493 165.117 57.9723C161.637 53.7309 158.818 48.9885 156.753 43.9054C156.429 43.0156 155.903 42.2135 155.215 41.5624C154.623 40.9889 153.923 40.5379 153.156 40.2351C152.39 39.9324 151.57 39.784 150.746 39.7982C149.922 39.8125 149.108 39.9893 148.352 40.3184C147.596 40.6475 146.913 41.1225 146.34 41.7162Z" fill="#FEEFEC"/>
<path d="M173.08 46.9506C171.855 54.7359 169.777 62.3629 166.885 69.6939C166.343 70.892 166.3 72.2563 166.764 73.4865C167.228 74.7167 168.162 75.7122 169.36 76.2539C170.558 76.7956 171.922 76.8392 173.153 76.375C174.383 75.9109 175.378 74.977 175.92 73.7789C176.039 73.5243 176.133 73.259 176.202 72.9865C176.202 72.9865 179.085 62.9115 176.985 47.5685C176.936 46.5896 176.969 44.1854 176.018 43.7759C174.616 43.1351 174.864 44.0364 174.224 45.4556C173.943 45.9433 173.05 46.3431 173.08 46.9506Z" fill="#FFC4AD"/>
<path d="M135.157 25.0482C135.157 25.0482 136.817 31.8857 142.299 32.5774C147.781 33.2691 149.416 27.689 149.053 22.0899C148.69 16.4907 147.532 11.5909 143.402 10.5274C139.271 9.46387 134.846 11.3251 134.135 16.0641C133.758 19.0975 134.108 22.177 135.157 25.0482Z" fill="#FFC4AD"/>
<path d="M140.843 24.0554C139.832 23.8822 138.793 24.1139 137.952 24.7003C137.11 25.2867 136.533 26.1808 136.346 27.1892L134.825 35.7246C134.739 36.715 135.036 37.7005 135.655 38.4786C136.274 39.2567 137.167 39.7681 138.151 39.9076C139.135 40.0472 140.136 39.8043 140.946 39.229C141.757 38.6536 142.317 37.7895 142.51 36.8143L143.977 28.5692C144.07 28.0668 144.063 27.551 143.955 27.0516C143.847 26.5521 143.642 26.0789 143.351 25.6593C143.059 25.2396 142.688 24.8818 142.257 24.6066C141.827 24.3313 141.346 24.144 140.843 24.0554Z" fill="#FFC4AD"/>
<path d="M155.001 41.3355C151.942 39.1047 148.648 37.2148 145.178 35.6993C143.173 34.7539 141.002 34.2123 138.788 34.1052C136.704 33.9943 134.617 34.276 132.637 34.9357C128.541 36.273 121.423 38.7589 119.706 43.6833C117.162 51.0513 120.614 65.0072 120.628 74.8029C120.675 75.748 120.618 76.6476 120.593 77.5117C120.445 85.7588 119.549 94.28 119.549 94.28C119.549 94.28 121.604 95.4636 136.588 96.681C151.571 97.8984 153.645 94.6821 153.645 94.6821L154.405 72.8859C154.68 70.9265 154.993 68.7283 155.362 66.2736C157.528 52.0043 157.926 44.0155 155.001 41.3355Z" fill="#FEEFEC"/>
<path d="M176.63 48.6016C176.63 48.6016 176.849 47.8971 177.021 47.2794C177.194 46.6617 181.63 41.9743 182.269 40.5382C182.585 38.4588 182.237 36.3326 181.273 34.4629C180.868 34.4831 181.589 38.7617 181.589 38.7617C181.589 38.7617 180.568 34.2273 180.057 34.4896C179.545 34.752 180.429 38.5656 180.429 38.5656C180.07 37.3316 179.603 36.1319 179.032 34.9805C178.602 34.4943 179.219 38.7442 179.219 38.7442C179.219 38.7442 178.189 35.0394 177.863 35.6308C177.537 36.2223 178.009 38.5675 177.849 39.4384C177.69 40.3092 173.626 43.6583 173.025 47.2075C174.25 47.6088 175.454 48.0742 176.63 48.6016Z" fill="#FFC4AD"/>
<path d="M134.116 91.881C132.278 92.8459 130.86 94.4532 130.132 96.3967C129.403 98.3402 129.416 100.484 130.167 102.419C130.918 104.354 132.354 105.944 134.203 106.888C136.052 107.831 138.183 108.061 140.19 107.534C153.024 102.911 165.463 97.2564 177.384 90.6256C178.098 90.3557 178.752 89.9477 179.309 89.425C179.866 88.9023 180.314 88.2751 180.628 87.5791C180.942 86.8832 181.116 86.1322 181.14 85.3691C181.164 84.6059 181.037 83.8455 180.767 83.1312C180.497 82.417 180.089 81.7629 179.567 81.2063C179.044 80.6498 178.417 80.2016 177.721 79.8874C177.025 79.5733 176.274 79.3992 175.511 79.3753C174.748 79.3514 173.987 79.478 173.273 79.7479L135.049 91.5809C134.731 91.66 134.42 91.7603 134.116 91.881Z" fill="#335AA9"/>
<path d="M108.956 95.2644C109.299 93.9063 110.165 92.7389 111.365 92.0168C112.565 91.2947 114.002 91.0764 115.363 91.4096L115.447 91.4054C118.333 92.277 121.066 91.4473 131.045 94.7748C141.024 98.1022 155.345 107.102 155.345 107.102C155.722 107.184 156.076 107.345 156.386 107.574C156.695 107.804 156.953 108.095 157.142 108.431C157.332 108.766 157.448 109.138 157.483 109.522C157.519 109.905 157.474 110.292 157.35 110.656C157.261 111.027 157.094 111.374 156.86 111.675C156.626 111.976 156.331 112.223 155.993 112.4C155.656 112.577 155.285 112.68 154.904 112.702C154.524 112.723 154.143 112.663 153.788 112.526L112.829 102.719C112.589 102.681 112.354 102.619 112.126 102.534C110.756 101.972 109.659 100.899 109.067 99.5419C108.476 98.1848 108.436 96.6505 108.956 95.2644Z" fill="#EFA087"/>
<path d="M108.379 95.2422C108.84 93.8367 109.818 92.6589 111.114 91.9472C112.411 91.2356 113.93 91.0433 115.363 91.4095L115.447 91.4053C118.333 92.2769 121.371 91.1106 131.352 94.4887C136.26 96.0948 141.02 98.1224 145.578 100.549L142.259 110.696L112.799 102.805C112.562 102.757 112.327 102.695 112.097 102.62C111.366 102.383 110.689 102.004 110.106 101.503C109.523 101.003 109.045 100.393 108.699 99.7065C108.354 99.0204 108.147 98.2726 108.093 97.5063C108.038 96.7401 108.135 95.9705 108.379 95.2422Z" fill="#335AA9"/>
<path d="M143.075 99.2011L139.565 109.933L139.17 109.818L142.711 99.033L143.075 99.2011Z" fill="#294D90"/>
<path d="M178.699 81.3384C177.757 80.3032 176.447 79.6801 175.05 79.6039C173.653 79.5277 172.282 80.0046 171.234 80.9314C169.09 83.0683 166.291 83.5967 159.004 91.2006C151.718 98.8045 143.313 113.503 143.313 113.503C143.019 113.751 142.781 114.058 142.615 114.404C142.449 114.751 142.358 115.128 142.349 115.512C142.339 115.897 142.411 116.278 142.559 116.633C142.708 116.987 142.93 117.306 143.21 117.568C143.461 117.853 143.769 118.082 144.114 118.239C144.46 118.395 144.835 118.477 145.215 118.477C145.594 118.477 145.969 118.397 146.315 118.241C146.661 118.085 146.97 117.857 147.22 117.572L178.863 89.756C179.065 89.6223 179.245 89.4593 179.398 89.2726C180.341 88.1211 180.797 86.6459 180.666 85.1629C180.535 83.6799 179.829 82.307 178.699 81.3384Z" fill="#FFC4AD"/>
<path d="M179.175 81.062C178.119 80.0296 176.707 79.4409 175.23 79.4168C173.753 79.3928 172.323 79.9351 171.234 80.9325C169.09 83.0695 165.879 83.483 158.592 91.0869C154.995 94.7943 151.719 98.8005 148.8 103.062L156.479 110.497L178.847 89.758C179.04 89.6149 179.219 89.453 179.381 89.2746C179.908 88.7227 180.321 88.072 180.596 87.36C180.872 86.648 181.003 85.8887 180.984 85.1256C180.965 84.3626 180.796 83.6108 180.485 82.9134C180.175 82.2161 179.73 81.5869 179.175 81.062Z" fill="#335AA9"/>
<path d="M150.343 100.752L158.449 108.605L158.756 108.319L150.597 100.418L150.343 100.752Z" fill="#294D90"/>
<path d="M144.156 125.694C144.779 122.905 144.419 120.436 145.94 118.347C146.278 118.209 146.585 118.005 146.845 117.748C147.104 117.49 147.309 117.184 147.45 116.847C147.59 116.51 147.663 116.148 147.663 115.783C147.663 115.418 147.591 115.056 147.451 114.719C147.356 114.387 147.195 114.078 146.977 113.811C146.76 113.544 146.49 113.323 146.185 113.163C145.88 113.002 145.545 112.905 145.201 112.878C144.858 112.851 144.512 112.893 144.185 113.003C144.015 113.069 143.849 113.145 143.689 113.231C143.689 113.231 138.553 114.061 139.058 115.373L142.731 124.936C142.731 124.936 143.758 127.558 144.156 125.694Z" fill="#FFC4AD"/>
<path d="M138.99 115.376L142.663 124.939C142.663 124.939 143.758 127.558 144.156 125.694C144.763 122.94 144.422 120.504 145.892 118.417C145.892 118.417 145.868 117.944 144.771 117.305C143.851 116.501 143.279 115.371 143.176 114.153C143.156 113.748 143.141 113.461 143 113.35C141.66 113.619 138.6 114.347 138.99 115.376Z" fill="#573961"/>
<path d="M110.444 101.704C110.444 101.704 103.556 96.2266 108.153 89.6701C112.751 83.1135 122.441 88.8071 131.967 88.4855C141.494 88.1639 158.072 81.9759 166.416 80.0043C174.761 78.0326 177.011 79.0374 179.108 81.0649C162.078 91.7591 129.35 96.0772 129.35 96.0772L110.444 101.704Z" fill="#335AA9"/>
<path d="M131.788 35.2157C131.788 35.2157 133.171 38.5308 138.964 39.004C144.757 39.4773 145.37 35.8091 145.37 35.8091C145.37 35.8091 142.967 34.7781 142.758 34.6701C142.62 34.5643 142.509 34.4259 142.436 34.2673C142.363 34.1086 142.331 33.9345 142.341 33.7603C140.322 33.3192 135.354 32.7542 135.354 32.7542C135.195 33.3189 134.881 33.8273 134.446 34.2207C133.587 34.6206 132.698 34.9533 131.788 35.2157Z" fill="#FFC4AD"/>
<path d="M145.584 100.667C145.613 100.668 145.641 100.659 145.665 100.643C145.688 100.627 145.706 100.603 145.715 100.576C145.729 100.563 145.74 100.546 145.747 100.529C145.754 100.511 145.757 100.492 145.756 100.472C145.755 100.453 145.75 100.435 145.741 100.417C145.732 100.4 145.72 100.385 145.705 100.373C145.514 100.281 126.641 91.2716 117.846 88.9512C117.807 88.9425 117.767 88.9492 117.733 88.9699C117.7 88.9905 117.675 89.0234 117.665 89.0617C117.658 89.082 117.656 89.1034 117.658 89.1248C117.66 89.1461 117.666 89.1667 117.677 89.1854C117.687 89.204 117.702 89.2202 117.719 89.2329C117.736 89.2457 117.756 89.2546 117.777 89.2592C126.588 91.5619 145.41 100.557 145.567 100.651L145.584 100.667Z" fill="#294D90"/>
<path d="M121.49 89.7683L121.592 89.7633C121.606 89.7484 121.617 89.7307 121.624 89.7115C121.631 89.6922 121.634 89.6717 121.633 89.6512C121.632 89.6307 121.627 89.6106 121.618 89.5922C121.609 89.5737 121.596 89.5573 121.581 89.5439C120.415 88.6757 119.112 88.0086 117.726 87.5699C117.688 87.5561 117.645 87.5583 117.608 87.576C117.571 87.5937 117.542 87.6255 117.528 87.6644C117.514 87.7032 117.517 87.7459 117.534 87.7831C117.552 87.8203 117.584 87.8489 117.623 87.8627C118.958 88.2946 120.218 88.9342 121.355 89.7581C121.397 89.7786 121.445 89.7822 121.49 89.7683Z" fill="#606060"/>
<path d="M149.055 102.745C149.074 102.753 149.094 102.756 149.114 102.755C149.135 102.754 149.155 102.749 149.173 102.739C153.233 97.3537 157.617 92.22 162.299 87.366C162.314 87.3519 162.326 87.335 162.334 87.3164C162.342 87.2977 162.347 87.2775 162.348 87.2571C162.348 87.2366 162.345 87.2163 162.337 87.1972C162.33 87.1781 162.319 87.1606 162.305 87.1457C162.291 87.1309 162.274 87.1189 162.255 87.1106C162.237 87.1023 162.216 87.0977 162.196 87.0971C162.176 87.0966 162.155 87.1 162.136 87.1074C162.117 87.1147 162.1 87.1257 162.085 87.1398C157.401 92.014 153.007 97.1589 148.926 102.548C148.912 102.563 148.901 102.58 148.894 102.6C148.887 102.619 148.884 102.639 148.885 102.66C148.886 102.68 148.891 102.701 148.9 102.719C148.909 102.737 148.922 102.754 148.937 102.767L149.055 102.745Z" fill="#294D90"/>
<path d="M136.241 27.8031C136.927 29.1201 137.924 30.2498 139.145 31.0942C140.367 31.9386 141.776 32.4722 143.25 32.6487L143.089 33.4858C140.497 34.1012 137.771 33.794 135.381 32.6172C135.841 30.3101 136.241 27.8031 136.241 27.8031Z" fill="#EFA087"/>
<path d="M136.241 27.8032C136.871 25.9825 137.126 24.0534 136.991 22.1317C136.71 19.2017 135.381 17.9989 136.266 16.0599C137.151 14.1209 137.496 13.9176 141.805 14.82C146.113 15.7223 147.509 14.181 147.509 14.181C147.928 15.2682 148.277 16.3811 148.554 17.5128C149.381 14.4093 149.967 8.84749 144.387 7.21315C142.558 6.66499 140.614 6.62397 138.763 7.09448C136.912 7.565 135.224 8.52938 133.878 9.88465C132.251 11.2007 129.269 12.1273 129.471 16.8716C129.673 21.6159 132.929 23.1289 133.499 24.3696C134.068 25.6102 134.929 28.2914 136.241 27.8032Z" fill="#F05553"/>
<path d="M108.813 79.1302C108.813 79.1302 109.097 84.8349 116.642 87.2005C116.379 84.625 116.117 80.7296 116.117 80.7296L108.813 79.1302Z" fill="#EFA087"/>
<path d="M130.257 47.9816C130.516 46.6575 130.341 45.2853 129.76 44.0678C129.178 42.8504 128.221 41.8524 127.028 41.2211C125.836 40.5899 124.472 40.3591 123.139 40.5627C121.805 40.7664 120.572 41.3936 119.622 42.3519C119.622 42.3519 114.222 47.3918 111.121 59.8803C108.02 72.3687 108.624 77.719 108.624 77.719C108.569 78.9681 108.991 80.1914 109.803 81.1418C110.616 82.0921 111.758 82.6987 113.001 82.8388C114.243 82.979 115.492 82.6424 116.496 81.8969C117.5 81.1514 118.183 80.0527 118.408 78.8228C118.398 78.6203 118.388 78.4177 118.496 78.2093C119.17 73.7761 120.262 69.4164 121.756 65.1884C123.443 59.9646 125.913 55.0269 129.082 50.5441C129.66 49.7884 130.062 48.9128 130.257 47.9816Z" fill="#FFC4AD"/>
<path d="M125.39 40.6096C124.37 40.4052 123.316 40.4571 122.321 40.7605C121.326 41.0639 120.422 41.6094 119.69 42.3481C119.69 42.3481 114.222 47.3914 111.121 59.8798C110.598 61.9531 110.183 63.818 109.861 65.4921L120.864 68.3287C121.154 67.3499 121.475 66.3187 121.825 65.2015C123.512 59.9777 125.982 55.04 129.15 50.5572C129.716 49.799 130.106 48.9242 130.292 47.9964C130.621 46.3668 130.29 44.6732 129.371 43.2879C128.451 41.9027 127.02 40.9393 125.39 40.6096Z" fill="#FEEFEC"/>
<path d="M120.969 68.0529C121.001 68.0508 121.032 68.0394 121.058 68.0201C121.084 68.0008 121.104 67.9744 121.115 67.9441C122.548 62.8948 124.439 57.9869 126.765 53.2816C126.789 53.2498 126.802 53.2101 126.8 53.1699C126.798 53.1297 126.781 53.0915 126.754 53.0622C126.74 53.0485 126.724 53.0377 126.706 53.0307C126.689 53.0237 126.669 53.0206 126.65 53.0215C126.631 53.0225 126.612 53.0275 126.595 53.0363C126.578 53.045 126.563 53.0573 126.551 53.0723C124.203 57.7951 122.302 62.7271 120.872 67.8039C120.852 67.8315 120.843 67.8647 120.845 67.8983C120.846 67.9319 120.859 67.964 120.881 67.9896L120.969 68.0529Z" fill="#EED5D6"/>
<path d="M144.587 92.5274L140.378 75.9358C140.323 75.7056 140.19 75.5018 140 75.3598C139.811 75.2178 139.578 75.1465 139.341 75.1584L115.426 76.3479C115.273 76.355 115.124 76.396 114.989 76.4679C114.854 76.5397 114.737 76.6407 114.646 76.7634C114.555 76.8862 114.492 77.0277 114.462 77.1776C114.433 77.3275 114.437 77.4822 114.474 77.6304L118.598 94.2092C118.657 94.4407 118.794 94.6447 118.986 94.7863C119.178 94.9279 119.414 94.9985 119.652 94.9859L143.635 93.793C143.786 93.7855 143.933 93.7448 144.067 93.674C144.2 93.6032 144.317 93.5039 144.408 93.3832C144.498 93.2624 144.562 93.1232 144.593 92.9753C144.624 92.8274 144.622 92.6745 144.587 92.5274Z" fill="#392244"/>
<path d="M144.271 92.9661L140.062 76.3745C140.007 76.1442 139.873 75.9405 139.684 75.7985C139.494 75.6565 139.261 75.5852 139.025 75.597L115.092 76.7874C114.94 76.7939 114.791 76.8346 114.657 76.9066C114.522 76.9786 114.406 77.0799 114.316 77.203C114.226 77.3262 114.165 77.468 114.138 77.6179C114.111 77.7679 114.117 77.9221 114.158 78.069L118.367 94.6606C118.428 94.8905 118.566 95.0926 118.757 95.2338C118.949 95.3749 119.183 95.4467 119.421 95.4372L143.286 94.2502C143.44 94.2449 143.592 94.2055 143.729 94.1347C143.867 94.064 143.987 93.9636 144.081 93.8408C144.176 93.718 144.241 93.5759 144.274 93.4247C144.307 93.2734 144.306 93.1168 144.271 92.9661Z" fill="#573961"/>
<path d="M127.356 82.5223C128.484 82.4662 129.374 81.9371 129.345 81.3405C129.315 80.7439 128.377 80.3058 127.249 80.3619C126.121 80.418 125.231 80.9471 125.26 81.5437C125.29 82.1402 126.228 82.5784 127.356 82.5223Z" fill="#392244"/>
<path d="M116.345 82.9348C116.345 82.9348 113.871 81.8228 114.054 82.795C114.09 83.5039 116.367 84.0504 116.693 83.7973C117.019 83.5443 117.015 83.1215 116.345 82.9348Z" fill="#FFC4AD"/>
<path d="M116.593 84.175C116.593 84.175 114.119 83.0798 114.285 84.036C114.422 84.7398 116.616 85.3074 116.942 85.0544C117.267 84.8013 117.246 84.3793 116.593 84.175Z" fill="#FFC4AD"/>
<path d="M116.86 85.4474C116.86 85.4474 114.845 84.414 115.007 85.2858C115.169 86.1575 116.894 86.4778 117.153 86.245C117.412 86.0121 117.479 85.6535 116.86 85.4474Z" fill="#FFC4AD"/>
<path d="M117.015 86.5221C117.015 86.5221 115.277 85.6102 115.416 86.3647C115.555 87.1192 117.041 87.4006 117.268 87.2031C117.495 87.0057 117.53 86.6825 117.015 86.5221Z" fill="#FFC4AD"/>
<path d="M146.362 8.1301C146.362 8.1301 138.364 7.20821 135.854 13.5594C133.345 19.9105 133.97 25.6828 134.838 27.1454C133.418 25.2443 131.847 23.4609 130.14 21.8126C129.427 21.4251 127.628 22.3436 126.819 18.3063C126.517 15.3741 127.351 12.4379 129.148 10.1016C130.945 7.76519 133.569 6.20623 136.481 5.74528C144.085 4.1996 146.362 8.1301 146.362 8.1301Z" fill="#335AA9"/>
<path d="M129.062 36.1967C129.062 36.1967 132.873 50.2194 129.337 61.1222C125.802 72.0249 120.592 73.4007 120.592 73.4007L120.483 71.2235C124.602 67.4567 127.301 62.3882 128.127 56.8679C129.014 50.2698 128.68 43.5649 127.144 37.0873C127.202 36.8964 127.299 36.7199 127.43 36.5693C127.561 36.4187 127.723 36.2974 127.904 36.2134C128.085 36.1293 128.282 36.0844 128.481 36.0815C128.681 36.0787 128.879 36.1179 129.062 36.1967Z" fill="#335AA9"/>
<path d="M150.952 38.5089C152.799 44.5458 153.888 50.7888 154.195 57.0943C154.545 66.8563 154.111 75.4729 154.111 75.4729C155.382 68.1566 155.942 60.7343 155.783 53.31C155.261 43.1673 154.23 39.4456 150.952 38.5089Z" fill="#335AA9"/>
<path d="M290.813 6.24292C289.945 8.55497 289.604 11.0318 289.816 13.4924C291.506 10.3324 293.821 6.24292 293.821 6.24292H290.813Z" fill="#FCEFD8"/>
<path d="M288.431 81.5086V87.6258C288.315 89.7443 289.043 91.8223 290.455 93.4056C291.868 94.9889 293.849 95.9487 295.967 96.0751H313.288C315.406 95.9487 317.388 94.9889 318.8 93.4056C320.212 91.8223 320.94 89.7443 320.825 87.6258V81.5086C320.94 79.3873 320.21 77.3068 318.794 75.7231C317.378 74.1393 315.392 73.1814 313.271 73.0593H295.967C293.849 73.1857 291.868 74.1455 290.455 75.7287C289.043 77.312 288.315 79.3901 288.431 81.5086Z" fill="#F05553"/>
<path d="M303.673 18.4598C303.673 18.4598 301.611 25.3037 295.951 25.7092C290.29 26.1148 289.005 20.3693 289.664 14.7421C290.323 9.11491 291.76 4.18055 295.951 3.40322C300.141 2.62589 304.586 4.6706 305.042 9.55427C305.287 12.5889 304.818 15.6388 303.673 18.4598Z" fill="#FFCAA6"/>
<path d="M297.607 16.7872C298.118 16.7184 298.638 16.7513 299.137 16.884C299.636 17.0168 300.104 17.2467 300.514 17.5608C300.924 17.8748 301.268 18.2667 301.525 18.7139C301.783 19.1612 301.95 19.6549 302.017 20.1669L303.166 28.8865C303.265 29.9263 302.946 30.9626 302.281 31.7676C301.615 32.5725 300.657 33.0801 299.617 33.1787C298.578 33.2773 297.541 32.9589 296.736 32.2933C295.931 31.6278 295.424 30.6698 295.325 29.6301L294.21 21.1808C294.09 20.1499 294.378 19.1128 295.013 18.2916C295.647 17.4704 296.579 16.9304 297.607 16.7872Z" fill="#FFCAA6"/>
<path d="M283.429 34.21C285.254 32.385 289.664 31.1852 292.858 29.5122C294.848 28.467 297.024 27.8239 299.263 27.6196C301.377 27.42 303.509 27.6207 305.549 28.211C309.774 29.4108 317.378 30.2051 319.338 35.1394C322.228 42.5072 319.338 56.8033 319.71 66.7565C319.71 67.5338 319.71 68.2942 319.811 69.004L321.18 83.4353C321.18 83.4353 315.789 85.1251 303.589 86.0208C291.388 86.9164 287.079 80.8329 287.079 80.8329L285.254 65.8947C284.899 64.002 284.51 61.8897 284.054 59.5239C281.317 45.1433 280.573 37.0658 283.429 34.21Z" fill="#F05553"/>
<path d="M286.031 77.5535C287.305 78.3559 288.255 79.5828 288.713 81.0175C289.17 82.4521 289.106 84.0023 288.532 85.3944C287.079 88.1995 287.366 91.2075 282.026 100.84C276.686 110.472 264.756 123.348 264.756 123.348C264.609 123.715 264.385 124.046 264.098 124.318C263.81 124.589 263.467 124.794 263.093 124.92C262.718 125.045 262.32 125.088 261.928 125.044C261.535 125 261.156 124.871 260.819 124.666C260.463 124.487 260.15 124.236 259.897 123.929C259.644 123.622 259.457 123.265 259.349 122.883C259.241 122.5 259.214 122.099 259.269 121.705C259.324 121.311 259.461 120.932 259.669 120.594L277.768 80.2741C277.85 80.0326 277.958 79.8005 278.089 79.5813C278.876 78.2626 280.154 77.3092 281.642 76.9292C283.13 76.5493 284.708 76.7737 286.031 77.5535Z" fill="#FFC4AD"/>
<path d="M260.345 116.691L277.768 80.3595C277.857 80.1208 277.965 79.8892 278.089 79.6667C278.452 78.9718 278.953 78.3582 279.561 77.8631C280.169 77.368 280.872 77.0018 281.626 76.7868C282.38 76.5718 283.17 76.5125 283.947 76.6125C284.725 76.7125 285.474 76.9697 286.149 77.3685C287.466 78.1776 288.437 79.4444 288.877 80.9258C289.317 82.4072 289.194 83.9989 288.532 85.3953C287.079 88.2004 287.366 91.2084 282.026 100.841C277.974 107.994 273.303 114.779 268.068 121.119L260.345 116.691Z" fill="#335AA9"/>
<path d="M268.068 121.271L260.345 116.691L261.596 114.106L269.927 119.04C269.408 119.862 268.783 120.612 268.068 121.271Z" fill="#335AA9"/>
<path d="M252.116 124.093C254.853 123.147 257.388 123.265 259.348 121.44C259.455 121.083 259.631 120.75 259.866 120.46C260.101 120.171 260.391 119.931 260.719 119.754C261.047 119.576 261.406 119.465 261.777 119.427C262.148 119.389 262.523 119.424 262.88 119.53C263.231 119.606 263.564 119.751 263.858 119.957C264.153 120.163 264.403 120.425 264.595 120.729C264.787 121.032 264.917 121.371 264.976 121.725C265.036 122.08 265.024 122.442 264.942 122.792C264.942 122.978 264.823 123.18 264.756 123.332C264.756 123.332 264.452 128.825 263.066 128.402L253.028 125.648C253.028 125.648 250.274 124.718 252.116 124.093Z" fill="#FFC4AD"/>
<path d="M252.116 124.093C254.769 123.18 257.185 123.265 259.162 121.609C259.366 121.529 259.592 121.526 259.797 121.6C260.002 121.675 260.173 121.822 260.278 122.014C260.785 122.707 259.653 123.535 259.872 123.856C260.092 124.177 261.832 123.941 262.88 123.738C263.495 123.641 264.118 123.613 264.739 123.653C264.638 124.836 264.249 128.723 263.049 128.436L253.028 125.648C253.028 125.648 250.274 124.718 252.116 124.093Z" fill="#C2394E"/>
<path d="M310.213 41.5942C309.56 40.3644 309.328 38.9547 309.553 37.5807C309.777 36.2067 310.445 34.944 311.455 33.9858C312.465 33.0276 313.761 32.4266 315.145 32.2747C316.529 32.1229 317.925 32.4285 319.118 33.1449C319.118 33.1449 325.776 36.626 332.181 48.0325C338.585 59.439 339.346 64.931 339.346 64.931C339.615 66.1106 339.454 67.3477 338.891 68.4188C338.328 69.4899 337.401 70.3242 336.276 70.7712C335.152 71.2181 333.904 71.2481 332.76 70.8557C331.615 70.4633 330.649 69.6745 330.035 68.6317C330.035 68.4458 329.866 68.2431 329.798 68.0572C327.922 63.9104 325.659 59.9499 323.039 56.2282C319.991 51.5624 316.254 47.386 311.953 43.8417C311.204 43.2405 310.607 42.4703 310.213 41.5942Z" fill="#F05553"/>
<path d="M304.805 55.8733C307.475 56.7013 312.511 59.5909 332.705 61.3484C336.608 61.5173 339.194 64.1704 339.059 67.0601C338.923 69.9497 336.118 71.7747 332.215 71.6058C331.809 71.6058 331.454 71.7916 331.083 71.724C331.083 71.724 321.4 70.5412 302.879 60.9428C302.273 60.623 301.757 60.1574 301.376 59.588C300.996 59.0185 300.763 58.3633 300.699 57.6814C300.699 55.9915 300.091 54.9945 302.389 55.0959C303.249 55.1383 304.082 55.4064 304.805 55.8733Z" fill="#FFCAA6"/>
<path d="M332.705 61.433C336.608 61.6019 339.684 64.086 339.464 66.9925C339.245 69.8991 336.085 72.0621 332.164 71.9438C331.773 71.9248 331.383 71.8796 330.998 71.8086C330.998 71.8086 328.244 71.42 323.749 70.3385C324.086 67.0372 324.906 63.8033 326.182 60.7401C328.311 60.926 330.457 61.1457 332.705 61.433Z" fill="#F05553"/>
<path d="M294.092 40.5802C294.876 39.129 295.055 37.4266 294.59 35.844C294.124 34.2614 293.053 32.9268 291.608 32.131C290.704 31.6046 289.686 31.305 288.641 31.2579C287.597 31.2108 286.556 31.4176 285.609 31.8606C285.609 31.8606 278.849 34.7333 272.09 45.278C265.33 55.8226 264.35 60.9767 264.35 60.9767C263.979 62.078 264.006 63.2747 264.426 64.3584C264.846 65.4421 265.632 66.3443 266.649 66.9081C267.203 67.2421 267.818 67.4635 268.458 67.5594C269.098 67.6552 269.751 67.6238 270.379 67.4668C271.007 67.3098 271.598 67.0303 272.118 66.6445C272.637 66.2586 273.076 65.7739 273.408 65.2182C273.509 65.0522 273.594 64.8768 273.661 64.6943C275.658 60.8109 278.029 57.1321 280.742 53.7103C283.951 49.4193 287.811 45.6562 292.182 42.5573C292.971 42.0641 293.626 41.3853 294.092 40.5802Z" fill="#F05553"/>
<path d="M270.518 65.6571C271.899 66.2434 273.027 67.3005 273.702 68.6403C274.376 69.9801 274.554 71.5158 274.202 72.9741C273.205 75.9821 273.949 78.9055 270.163 89.315C266.378 99.7244 256.645 114.426 256.645 114.426C256.56 114.814 256.392 115.179 256.152 115.495C255.912 115.811 255.607 116.072 255.256 116.258C254.906 116.445 254.519 116.553 254.123 116.575C253.726 116.597 253.33 116.533 252.961 116.386C252.588 116.262 252.245 116.061 251.954 115.797C251.663 115.532 251.43 115.21 251.271 114.851C251.112 114.491 251.03 114.102 251.03 113.709C251.03 113.316 251.112 112.927 251.271 112.567L262.796 69.8817C262.845 69.6293 262.913 69.3808 262.998 69.1382C263.539 67.6829 264.632 66.5003 266.041 65.8481C267.45 65.196 269.059 65.1274 270.518 65.6571Z" fill="#FFC4AD"/>
<path d="M251.237 108.597L262.796 69.8828C262.845 69.6304 262.913 69.3819 262.999 69.1393C263.248 68.3939 263.645 67.7065 264.166 67.1181C264.688 66.5297 265.322 66.0524 266.032 65.7149C266.742 65.3773 267.513 65.1863 268.298 65.1533C269.083 65.1204 269.867 65.2461 270.603 65.523C272.027 66.1082 273.184 67.2012 273.849 68.5905C274.514 69.9797 274.64 71.5662 274.202 73.0428C273.205 76.0508 273.949 78.9742 270.163 89.3837C267.284 97.147 263.733 104.645 259.551 111.791L251.237 108.597Z" fill="#335AA9"/>
<path d="M259.568 111.808L251.237 108.597L252.065 105.826L261.055 109.307C260.672 110.202 260.172 111.043 259.568 111.808Z" fill="#335AA9"/>
<path d="M244.259 117.198C246.81 115.813 249.328 115.508 251.018 113.379C251.062 113.007 251.179 112.648 251.363 112.322C251.547 111.996 251.794 111.71 252.09 111.48C252.386 111.251 252.724 111.082 253.085 110.985C253.447 110.887 253.824 110.862 254.195 110.912C254.56 110.92 254.92 111.003 255.251 111.156C255.583 111.309 255.879 111.528 256.122 111.801C256.365 112.074 256.548 112.394 256.662 112.741C256.775 113.088 256.815 113.455 256.78 113.819C256.756 114.006 256.723 114.192 256.679 114.376C256.679 114.376 257.237 119.851 255.8 119.699L245.459 118.567C245.459 118.567 242.535 118.195 244.259 117.198Z" fill="#FFC4AD"/>
<path d="M244.258 117.198C246.742 115.863 249.176 115.508 250.832 113.582C251.014 113.466 251.233 113.422 251.446 113.459C251.659 113.497 251.85 113.613 251.981 113.785C252.589 114.393 251.626 115.475 251.879 115.677C252.133 115.88 253.823 115.424 254.82 115.052C255.41 114.851 256.023 114.72 256.645 114.663C256.729 115.829 256.949 119.733 255.732 119.733L245.39 118.601C245.39 118.601 242.534 118.195 244.258 117.198Z" fill="#C2394E"/>
<path d="M297.759 83.4011C298.624 84.1112 299.341 84.9849 299.869 85.9721C300.397 86.9594 300.725 88.041 300.835 89.1551C300.945 90.2692 300.834 91.394 300.509 92.4654C300.184 93.5367 299.652 94.5336 298.942 95.399C298.232 96.2645 297.358 96.9816 296.371 97.5094C295.383 98.0373 294.302 98.3655 293.188 98.4753C292.074 98.5852 290.949 98.4745 289.877 98.1496C288.806 97.8248 287.809 97.2921 286.944 96.5819C271.431 85.0065 266.48 74.6139 266.48 74.6139C265.342 73.6063 264.637 72.1996 264.508 70.6856C264.38 69.1716 264.84 67.6664 265.792 66.482C266.744 65.2977 268.115 64.5251 269.621 64.3244C271.127 64.1237 272.652 64.5104 273.881 65.4042L296.965 82.759C297.241 82.9578 297.506 83.1722 297.759 83.4011Z" fill="#335AA9"/>
<path d="M322.904 36.0853C321.358 34.3884 319.514 32.9907 317.462 31.962C315.098 30.8134 312.616 29.9239 310.061 29.309C312.026 31.3978 314.246 33.2316 316.668 34.7672C318.641 35.6082 320.759 36.0559 322.904 36.0853Z" fill="#F05553"/>
<path d="M295.646 28.3625C291.652 29.3327 287.793 30.7913 284.155 32.7055C279.914 35.274 276.45 43.4698 276.45 43.4698L295.646 28.3625Z" fill="#F05553"/>
<path d="M320.825 86.8823C320.825 86.8823 322.262 93.2193 319.051 96.6328C316.776 97.8847 314.435 99.0129 312.038 100.012C309.544 99.9712 307.059 99.6883 304.619 99.1675C299.666 99.2886 294.713 98.915 289.833 98.0522L288.431 96.8524L320.825 86.8823Z" fill="#335AA9"/>
<path d="M272.31 82.9785C272.29 82.975 272.271 82.967 272.254 82.9552C272.237 82.9433 272.224 82.9279 272.214 82.91C272.204 82.8922 272.199 82.8723 272.198 82.852C272.197 82.8317 272.2 82.8114 272.208 82.7926L273.492 78.2638C273.496 78.2438 273.504 78.2248 273.516 78.2082C273.528 78.1917 273.543 78.178 273.561 78.1682C273.579 78.1585 273.599 78.1529 273.619 78.1519C273.639 78.1509 273.66 78.1545 273.678 78.1624C273.699 78.1664 273.718 78.1744 273.735 78.1861C273.752 78.1977 273.766 78.2126 273.777 78.23C273.788 78.2474 273.796 78.2669 273.799 78.2872C273.802 78.3075 273.802 78.3283 273.797 78.3483L272.512 82.8771C272.494 82.914 272.465 82.944 272.428 82.9623C272.392 82.9806 272.35 82.9863 272.31 82.9785Z" fill="#294D90"/>
<path d="M305.549 28.2109C305.549 28.2109 303.859 35.7477 297.911 35.9335C291.963 36.1194 293.45 28.9545 293.45 28.9545C293.935 28.7422 294.408 28.5053 294.869 28.2447C295.123 28.0419 295.004 27.1463 295.004 27.1463L302.778 25.9465C302.778 25.9465 303.065 27.3491 303.876 27.6364C304.687 27.9237 305.549 28.2109 305.549 28.2109Z" fill="#FFCAA6"/>
<path d="M302.203 21.5354C301.34 22.9503 300.123 24.1154 298.671 24.9151C297.474 25.5154 296.139 25.7893 294.801 25.7093V26.0642C294.801 26.0642 296.795 27.754 302.778 26.0642L302.203 21.5354Z" fill="#F2B186"/>
<path d="M303.927 10.5688C303.62 9.8743 303.178 9.24775 302.627 8.72557C302.075 8.20339 301.426 7.79599 300.716 7.52705C298.13 6.42865 295.917 7.86502 292.013 7.52705C288.11 7.18908 288.633 0.277613 294.666 0.0241362C300.699 -0.229341 301.257 1.56189 303.47 3.13345C305.684 4.70501 308.54 5.78652 308.54 9.3183C308.54 12.8501 306.85 13.9147 306.309 15.6383C305.769 17.362 305.076 20.2516 302.254 21.6035C303.437 18.1224 302.406 13.9654 303.927 10.5688Z" fill="#A6A8AB"/>
<path d="M320.825 86.8829C319.752 86.283 318.724 85.6053 317.75 84.8551C317.739 85.5808 317.884 86.3004 318.176 86.9651C318.467 87.6298 318.898 88.2241 319.439 88.708L320.436 88.3193L320.825 86.8829Z" fill="#F05553"/>
<path d="M297.911 38.0119C296.944 38.089 295.973 37.9415 295.073 37.5809C294.173 37.2203 293.369 36.6565 292.723 35.9334C292.132 35.0302 291.738 34.0127 291.566 32.9471C291.394 31.8815 291.449 30.7917 291.726 29.7486C291.741 29.7085 291.769 29.6749 291.806 29.6533C291.843 29.6318 291.887 29.6237 291.929 29.6303C291.949 29.6359 291.969 29.6458 291.985 29.6594C292.002 29.6729 292.015 29.6899 292.025 29.709C292.034 29.7281 292.04 29.7491 292.041 29.7704C292.042 29.7918 292.038 29.8132 292.03 29.8331C291.763 30.8272 291.709 31.8666 291.873 32.8831C292.036 33.8995 292.412 34.8699 292.977 35.7306C293.623 36.4558 294.436 37.013 295.346 37.3545C296.255 37.6959 297.234 37.8113 298.198 37.6908C305.38 37.5219 306.884 28.9881 306.901 28.9036C306.912 28.8635 306.937 28.8284 306.97 28.8039C307.004 28.7794 307.045 28.7669 307.087 28.7684C307.107 28.7724 307.126 28.7805 307.143 28.7921C307.16 28.8037 307.175 28.8186 307.186 28.836C307.197 28.8534 307.204 28.8729 307.208 28.8932C307.211 28.9135 307.21 28.9343 307.205 28.9543C306.895 30.5201 306.324 32.0225 305.515 33.3986C304.823 34.758 303.776 35.9047 302.485 36.7169C301.193 37.5291 299.706 37.9766 298.181 38.0119H297.911Z" fill="#F05553"/>
<path d="M315.299 83.2998C317.418 83.9967 319.18 85.4952 320.207 87.4747C321.235 89.4542 321.446 91.7574 320.797 93.891C320.148 96.0247 318.689 97.8194 316.733 98.8908C314.777 99.9623 312.479 100.225 310.331 99.6238C291.574 94.8077 283.057 87.1189 283.057 87.1189C281.556 86.6707 280.294 85.6445 279.549 84.2659C278.804 82.8874 278.638 81.2694 279.086 79.7681C279.534 78.2667 280.56 77.0048 281.939 76.26C283.317 75.5153 284.935 75.3487 286.437 75.7969L314.387 83.0463L315.299 83.2998Z" fill="#335AA9"/>
<path d="M296.576 43.3687H301.307C301.545 43.3664 301.776 43.4509 301.957 43.6064C302.137 43.7619 302.255 43.9778 302.287 44.2136L303.707 55.0963C303.724 55.2353 303.711 55.3764 303.669 55.5102C303.628 55.644 303.558 55.7675 303.466 55.8727C303.373 55.978 303.26 56.0625 303.132 56.1209C303.005 56.1793 302.867 56.2102 302.727 56.2116H297.995C297.756 56.2097 297.525 56.1216 297.345 55.9633C297.165 55.805 297.048 55.5872 297.015 55.3497L295.646 44.5347C295.622 44.3959 295.628 44.2535 295.663 44.117C295.698 43.9806 295.761 43.853 295.849 43.7429C295.937 43.6327 296.047 43.5424 296.172 43.4779C296.298 43.4134 296.435 43.3762 296.576 43.3687Z" fill="#573961"/>
<path d="M305.684 53.237C306.355 54.7191 306.75 56.311 306.85 57.9348C306.939 58.5613 306.823 59.1997 306.518 59.7543C306.213 60.3089 305.737 60.7496 305.16 61.0103C303.082 62.0073 301.426 59.7092 301.426 59.7092C301.426 59.7092 296.356 50.905 296.356 50.5671C296.356 50.2291 296.964 50.5671 296.964 50.5671C296.964 50.5671 296.187 49.1814 296.458 48.8772C296.728 48.5731 297.319 48.8772 297.319 48.8772C297.319 48.8772 296.897 48.083 297.167 47.8464C297.438 47.6098 298.333 48.4717 298.333 48.4717C298.333 48.4717 297.928 47.7281 298.333 47.3057C298.739 46.8832 302.169 50.7868 302.744 51.6148C302.913 51.8514 303.217 52.3752 303.555 52.9836C304.518 53.406 302.947 50.3136 303.318 49.9925C303.69 49.6715 304.636 51.1585 305.684 53.237Z" fill="#FFCAA6"/>
<path d="M295.443 73.3466C293.128 72.282 287.856 71.2174 273.475 59.8278C272.94 59.298 272.303 58.8812 271.603 58.6021C270.903 58.323 270.154 58.1873 269.401 58.203C268.648 58.2188 267.905 58.3857 267.217 58.6938C266.53 59.0019 265.911 59.445 265.398 59.9968C263.488 62.1767 264.08 65.2691 266.767 67.6011C267.037 67.8377 267.122 68.2095 267.426 68.4123C267.426 68.4123 276.821 72.8397 295.528 77.5036C296.694 77.8247 296.204 78.112 296.931 77.2671C298.012 76.0335 299.178 75.7124 297.64 74.3774C297.03 73.8186 296.263 73.459 295.443 73.3466Z" fill="#FFCAA6"/>
<path d="M273.425 59.7434C270.755 57.4114 267.037 57.2931 265.128 59.4899C263.218 61.6867 263.843 65.3368 266.513 67.6688C266.786 67.9071 267.074 68.1272 267.375 68.3279C267.375 68.3279 269.437 69.7642 273.121 71.7076C275.178 69.1285 276.883 66.2872 278.19 63.2583C276.602 62.2613 275.03 61.0784 273.425 59.7434Z" fill="#F05553"/>
<path d="M294.683 73.0762C295.336 73.1185 295.969 73.3217 296.525 73.6676C296.964 74.1239 302.896 76.1348 304.112 77.0473C305.329 78.6978 305.992 80.6915 306.005 82.7421C305.633 82.8435 304.315 78.8893 304.315 78.8893C304.315 78.8893 305.498 83.2491 304.941 83.266C304.383 83.2829 303.42 79.5652 303.42 79.5652C303.664 80.7958 303.8 82.0454 303.825 83.2998C303.69 83.9081 302.338 79.9201 302.338 79.9201C302.338 79.9201 303.149 83.587 302.592 83.2998C302.034 83.0125 301.375 80.6974 300.902 80.0215C300.429 79.3455 295.359 78.3316 293.213 75.4927C295.004 73.5155 294.683 73.0762 294.683 73.0762Z" fill="#FFCAA6"/>
<path d="M275.233 85.9019C275.208 85.8741 275.194 85.838 275.194 85.8006C275.194 85.7631 275.208 85.7271 275.233 85.6992C276.275 82.9989 277.536 80.388 279.001 77.8921C280.877 74.9855 283.632 74.5124 288.245 76.1008C288.263 76.1063 288.281 76.1158 288.295 76.1285C288.31 76.1412 288.322 76.1569 288.33 76.1745C288.338 76.1921 288.342 76.2113 288.342 76.2306C288.342 76.25 288.337 76.2691 288.329 76.2867C288.324 76.3073 288.314 76.3266 288.3 76.3431C288.287 76.3597 288.27 76.3732 288.251 76.3828C288.232 76.3923 288.211 76.3977 288.189 76.3987C288.168 76.3996 288.147 76.396 288.127 76.3881C283.682 74.7997 281.046 75.3066 279.272 78.078C277.814 80.5577 276.559 83.1517 275.52 85.8344C275.52 85.8683 275.508 85.9011 275.487 85.9275C275.466 85.954 275.436 85.9726 275.403 85.9804C275.37 85.9881 275.335 85.9846 275.305 85.9704C275.274 85.9562 275.249 85.9321 275.233 85.9019Z" fill="#294D90"/>
<path d="M285.305 94.757C285.28 94.7291 285.266 94.693 285.266 94.6556C285.266 94.6182 285.28 94.5821 285.305 94.5542C286.626 91.6242 287.7 88.5888 288.515 85.4797C288.517 85.458 288.524 85.4369 288.534 85.4179C288.545 85.399 288.56 85.3825 288.577 85.3697C288.595 85.3568 288.615 85.348 288.636 85.3436C288.658 85.3393 288.68 85.3396 288.701 85.3445C288.74 85.3524 288.775 85.3737 288.799 85.4045C288.824 85.4354 288.837 85.474 288.836 85.5135C288.021 88.6543 286.935 91.7187 285.592 94.6725C285.586 94.7027 285.572 94.7308 285.551 94.7535C285.53 94.7763 285.503 94.793 285.474 94.8017C285.444 94.8104 285.413 94.8108 285.383 94.8029C285.353 94.795 285.326 94.7792 285.305 94.757Z" fill="#294D90"/>
<path d="M304.096 98.4745C298.252 96.173 292.602 93.4098 287.197 90.2112C287.171 90.1806 287.157 90.1416 287.157 90.1013C287.157 90.0611 287.171 90.0221 287.197 89.9915C287.228 89.9653 287.267 89.9509 287.307 89.9509C287.347 89.9509 287.386 89.9653 287.417 89.9915C292.818 93.187 298.469 95.9393 304.315 98.2211C304.336 98.2267 304.355 98.2366 304.372 98.2502C304.388 98.2637 304.402 98.2806 304.411 98.2998C304.421 98.3189 304.426 98.3399 304.427 98.3612C304.428 98.3826 304.425 98.4039 304.417 98.4238C304.412 98.4603 304.396 98.4944 304.371 98.5208C304.345 98.5473 304.312 98.5647 304.275 98.5704C304.239 98.5761 304.202 98.5699 304.169 98.5526C304.137 98.5353 304.111 98.5079 304.096 98.4745Z" fill="#294D90"/>
<path d="M65.682 106.536C63.7225 107.231 61.6297 107.47 59.5639 107.233C55.1902 107.115 55.162 106.201 51.5119 106.63C47.5999 107.232 43.6083 106.266 40.4046 103.941C38.5468 102.144 37.3686 99.7581 37.0702 97.1901C37.0702 97.1901 65.9751 95.6101 65.682 106.536Z" fill="#294D90"/>
<path d="M64.097 22.7703C64.097 22.7703 64.2221 25.9728 68.5531 28.9893C72.8842 32.0058 77.9212 34.9182 72.1722 41.5138C66.4231 48.1094 40.7887 43.0977 40.7887 43.0977C40.7887 43.0977 37.3994 44.2899 37.2919 38.4688C37.1758 32.3135 42.8974 31.3245 44.7771 27.4375C46.6567 23.5505 45.2551 15.5151 45.2551 15.5151L64.097 22.7703Z" fill="#4C266E"/>
<path d="M70.477 38.533C69.636 37.688 68.5334 37.1531 67.3491 37.0155C66.1649 36.8779 64.969 37.1458 63.9566 37.7755C62.9443 38.4052 62.1753 39.3595 61.7752 40.4825C61.3751 41.6056 61.3674 42.8311 61.7536 43.959C63.6317 49.2351 66.3747 54.162 69.8701 58.5377C73.6649 63.4334 77.838 68.0239 82.3511 72.2666C83.1736 73.0602 84.2777 73.4946 85.4205 73.4742C85.9863 73.464 86.5446 73.3426 87.0635 73.1167C87.5824 72.8908 88.0517 72.5649 88.4447 72.1576C88.8376 71.7504 89.1465 71.2697 89.3537 70.7431C89.5609 70.2164 89.6623 69.6541 89.6522 69.0883C89.6421 68.5224 89.5206 67.9641 89.2947 67.4452C89.0688 66.9263 88.7429 66.457 88.3357 66.0641C84.9107 62.6709 81.8697 58.911 79.2675 54.8524C76.4151 50.3506 73.9261 45.6286 71.8243 40.7312C71.5718 39.8948 71.1077 39.1376 70.477 38.533Z" fill="#E7AD83"/>
<path d="M62.9856 38.6665C62.3286 39.3488 61.8677 40.1956 61.6512 41.1177C61.4346 42.0399 61.4706 43.0033 61.7553 43.9068C62.9915 47.4868 64.6716 50.8979 66.7562 54.0602C68.3959 53.8756 71.254 52.8273 75.8381 49.0305C73.3601 44.429 71.8074 40.7136 71.8074 40.7136C71.5549 39.8772 71.0909 39.12 70.4602 38.5154C69.9605 38.0327 69.3702 37.6536 68.7235 37.3998C68.0767 37.1461 67.3861 37.0226 66.6915 37.0367C65.9969 37.0507 65.3119 37.2019 64.6759 37.4816C64.0399 37.7613 63.4655 38.164 62.9856 38.6665Z" fill="#A3CFDC"/>
<path d="M80.063 40.2668C82.1068 49.4021 82.5617 58.8211 81.4079 68.1107C81.3834 68.3441 81.3771 68.579 81.389 68.8134C81.3232 69.3957 81.3769 69.9853 81.547 70.5462C81.717 71.107 81.9998 71.6272 82.378 72.0749C82.7561 72.5226 83.2217 72.8884 83.7462 73.1498C84.2707 73.4113 84.8431 73.5629 85.4282 73.5953C86.0133 73.6278 86.599 73.5405 87.1492 73.3387C87.6994 73.1369 88.2026 72.8248 88.6279 72.4217C89.0533 72.0186 89.3919 71.5329 89.623 70.9943C89.854 70.4558 89.9727 69.8757 89.9717 69.2897C89.9915 69.2091 89.9937 69.1253 89.9783 69.0438C90.2762 58.6943 88.4965 48.3901 84.7445 38.7401C84.5921 38.1777 84.2451 37.6877 83.7652 37.3573C83.2853 37.0269 82.7037 36.8775 82.1239 36.9358C81.5442 36.9941 81.004 37.2563 80.5995 37.6756C80.195 38.095 79.9525 38.6443 79.9152 39.2258C79.8998 39.5789 79.9499 39.9319 80.063 40.2668Z" fill="#E7AD83"/>
<path d="M56.7418 89.2454C56.2327 89.5505 55.7576 89.9089 55.3245 90.3148C53.6014 92.1245 52.6649 94.5428 52.7198 97.0411C52.7746 99.5393 53.8164 101.914 55.6173 103.646C57.2474 105.538 59.5621 106.705 62.0524 106.891C64.5426 107.076 67.0046 106.265 68.897 104.636C69.0363 104.524 69.1634 104.397 69.2763 104.259C86.6727 88.0796 92.0083 77.2367 92.0083 77.2367L92.2784 76.9978C92.7884 76.4659 93.1885 75.8386 93.4559 75.1519C93.7232 74.4651 93.8525 73.7324 93.8363 72.9957C93.8202 72.2589 93.6589 71.5326 93.3617 70.8582C93.0645 70.1838 92.6373 69.5747 92.1045 69.0656C91.178 68.0046 89.89 67.3259 88.491 67.1617C87.0919 66.9975 85.6818 67.3594 84.5348 68.1771L56.7418 89.2454Z" fill="#294D90"/>
<path d="M93.998 72.5264C93.4974 71.1171 92.4791 69.9511 91.1499 69.2654C89.8207 68.5797 88.2803 68.4257 86.8417 68.8346C85.403 69.2436 84.174 70.1849 83.4042 71.4672C82.6345 72.7496 82.3817 74.2769 82.6973 75.7388C83.8806 85.3406 87.0507 94.5907 92.0056 102.9C94.8676 107.743 97.4795 112.73 99.8312 117.84C100.074 118.565 100.592 119.165 101.273 119.512C101.954 119.859 102.744 119.925 103.473 119.695C103.834 119.579 104.169 119.392 104.458 119.146C104.748 118.9 104.985 118.599 105.158 118.26C105.33 117.922 105.434 117.553 105.463 117.174C105.492 116.795 105.447 116.415 105.328 116.054C99.7096 98.7825 94.6571 75.4796 94.1729 73.2167C94.1663 73.1699 94.1675 73.1224 94.1767 73.0761C94.1281 72.8895 94.0685 72.706 93.998 72.5264Z" fill="#E7AD83"/>
<path d="M93.9978 72.5264L96.4047 81.7489C96.4047 81.7489 92.9212 84.4855 83.3423 85.1074C82.6291 79.5865 82.3011 75.4293 81.8751 74.2754C81.8144 72.8363 82.2898 71.426 83.2093 70.3174C84.1288 69.2088 85.4269 68.4808 86.8523 68.2743C87.6011 68.0465 88.3892 67.9775 89.1662 68.0717C89.9432 68.1659 90.692 68.4214 91.3646 68.8216C92.0372 69.2219 92.6188 69.7581 93.0722 70.3961C93.5257 71.034 93.8409 71.7596 93.9978 72.5264Z" fill="#294D90"/>
<path d="M113.128 124.085C112.446 122.661 106.165 121.543 105.494 117.078C105.548 116.686 105.521 116.287 105.415 115.906C105.308 115.525 105.125 115.17 104.877 114.862C104.628 114.554 104.319 114.301 103.969 114.117C103.619 113.933 103.235 113.823 102.84 113.793C102.446 113.763 102.049 113.814 101.675 113.943C101.301 114.073 100.958 114.277 100.666 114.544C100.374 114.811 100.139 115.134 99.9773 115.495C99.8151 115.856 99.7284 116.246 99.7227 116.642C99.6098 117.605 99.4196 118.558 99.1541 119.492C98.7067 121.097 97.7697 123.919 100.313 124.128L109.663 124.836C109.663 124.836 113.811 125.51 113.128 124.085Z" fill="#E7AD83"/>
<path d="M113.128 124.085C112.529 122.821 107.599 121.81 105.945 118.619C105.945 118.619 105.475 118.448 104.28 119.102C103.084 119.755 102.577 120.339 101.089 120.106C100.736 120.033 100.402 119.891 100.105 119.687C99.8087 119.482 99.5563 119.221 99.3628 118.917L99.1873 119.563C98.74 121.168 97.803 123.99 100.346 124.199L109.696 124.907C109.696 124.907 113.811 125.51 113.128 124.085Z" fill="#322875"/>
<path d="M67.4793 74.9262C67.4793 74.9262 71.0351 78.0098 73.2778 85.4877C75.5205 92.9656 77.7306 101.005 68.1112 101.169L41.7397 101.358C38.8386 101.386 34.4863 99.1597 38.4687 88.966C40.7797 83.005 44.3951 77.6366 49.05 73.2541C51.4959 71.0916 54.6624 69.9224 57.9267 69.9767C59.7859 70.0441 61.6069 70.523 63.2587 71.3789C64.9106 72.2347 66.352 73.4463 67.4793 74.9262Z" fill="#294D90"/>
<path d="M50.25 23.9284C50.25 23.9284 53.884 30.6527 60.2057 29.5743C66.5275 28.4958 66.2978 21.9859 64.223 16.1121C62.1482 10.2382 58.3017 4.22894 52.1979 5.69993C46.0942 7.17093 44.1754 14.4845 50.25 23.9284Z" fill="#E7AD83"/>
<path d="M56.0351 21.8862C55.5586 21.8728 55.0844 21.9565 54.6413 22.1322C54.1982 22.3079 53.7954 22.5719 53.4576 22.9081C53.1197 23.2443 52.8538 23.6458 52.6759 24.088C52.4981 24.5303 52.4121 25.0041 52.4232 25.4806L52.4937 33.9901C52.4975 34.4519 52.5922 34.9084 52.7724 35.3336C52.9526 35.7587 53.2147 36.1442 53.5439 36.4681C53.8731 36.7919 54.2629 37.0478 54.6909 37.221C55.119 37.3942 55.577 37.4815 56.0387 37.4777C56.5005 37.4739 56.957 37.3792 57.3822 37.199C57.8074 37.0188 58.1929 36.7567 58.5167 36.4275C58.8406 36.0983 59.0964 35.7085 59.2697 35.2805C59.4429 34.8524 59.5301 34.3944 59.5263 33.9327L59.7017 25.4298C59.7061 24.9527 59.6133 24.4798 59.4291 24.0397C59.2448 23.5997 58.9728 23.2017 58.6298 22.8702C58.2867 22.5386 57.8798 22.2804 57.4337 22.1112C56.9876 21.9421 56.5117 21.8655 56.0351 21.8862Z" fill="#E7AD83"/>
<path d="M58.0611 32.8564C55.3765 32.5743 52.6658 33.0304 50.2213 34.1753C47.1591 35.6225 42.1009 38.0883 41.6021 38.9889C40.8818 40.2879 41.8623 50.9135 44.2672 57.5873C46.6721 64.261 48.133 69.4328 47.9768 71.9774C47.8207 74.522 49.0952 78.7748 58.5595 79.1517C68.0237 79.5286 67.4607 74.9609 67.8143 72.2634C68.3824 68.8853 69.1944 65.5527 70.2439 62.2918C70.7373 60.9339 74.2074 58.0388 73.3833 53.3762C72.5592 48.7136 71.6057 47.5631 71.2986 45.2522C70.9914 42.9412 70.8725 39.5104 70.1835 38.3318C69.4944 37.1532 62.5541 33.7679 59.286 33.065C58.8839 32.9839 58.4642 32.9023 58.0611 32.8564Z" fill="#A3CFDC"/>
<path d="M48.8495 43.3677C49.0331 40.4547 48.222 39.2377 45.3085 39.0716C43.2886 39.0174 41.204 38.7506 40.2117 40.3587C37.4195 45.2222 35.4539 50.5154 34.3951 56.0226C33.1683 62.0869 32.4156 68.2375 32.1439 74.4187C32.0737 75.559 32.4593 76.6804 33.216 77.5364C33.9726 78.3923 35.0383 78.9126 36.1786 78.9829C37.3189 79.0531 38.4403 78.6674 39.2963 77.9108C40.1522 77.1541 40.6726 76.0885 40.7428 74.9482C41.0954 70.1376 41.9775 65.3805 43.3732 60.7633C44.859 55.8702 46.6016 51.0587 48.5937 46.349L48.2413 45.7243C48.6576 45.0099 48.8681 44.1943 48.8495 43.3677Z" fill="#E7AD83"/>
<path d="M45.0425 37.8512C44.0854 37.7901 43.1298 37.9913 42.2786 38.4331C41.4273 38.8748 40.7127 39.5405 40.2118 40.3583C38.2967 43.635 36.7974 47.1376 35.7486 50.7851C36.9489 51.9072 39.6162 53.3849 45.495 54.4039C47.3839 49.5153 49.2379 45.9264 49.2379 45.9264C49.7005 45.1865 49.9653 44.3402 50.007 43.4686C50.0538 42.7729 49.9622 42.0749 49.7374 41.4149C49.5126 40.7549 49.1591 40.146 48.6974 39.6236C48.2357 39.1011 47.6749 38.6754 47.0476 38.3712C46.4202 38.067 45.7387 37.8902 45.0425 37.8512Z" fill="#A3CFDC"/>
<path d="M85.5667 27.7409L80.8023 27.7713C80.5629 27.7762 80.3332 27.8667 80.1548 28.0263C79.9764 28.186 79.8611 28.4043 79.8298 28.6417L78.4814 39.5915C78.4652 39.7314 78.4788 39.873 78.5211 40.0073C78.5633 40.1416 78.6335 40.2654 78.7268 40.3707C78.8202 40.4761 78.9347 40.5605 79.0629 40.6186C79.1912 40.6767 79.3302 40.7071 79.4709 40.7079L84.2353 40.6775C84.4747 40.6726 84.7044 40.5821 84.8828 40.4225C85.0612 40.2628 85.1765 40.0445 85.2078 39.8071L86.5567 28.8397C86.5761 28.7001 86.5647 28.558 86.5234 28.4233C86.482 28.2886 86.4117 28.1646 86.3174 28.0599C86.2231 27.9552 86.107 27.8724 85.9773 27.8173C85.8477 27.7622 85.7075 27.7361 85.5667 27.7409Z" fill="#573961"/>
<path d="M85.1525 28.1168L81.0385 28.147C80.8247 28.162 80.6233 28.2531 80.4709 28.4038C80.3186 28.5545 80.2252 28.7549 80.2079 28.9685L79.0526 39.2732C79.0317 39.3988 79.0379 39.5273 79.0706 39.6504C79.1033 39.7734 79.1619 39.8881 79.2424 39.9867C79.3229 40.0853 79.4235 40.1656 79.5375 40.2223C79.6515 40.279 79.7763 40.3108 79.9035 40.3155L83.9999 40.2848C84.2139 40.2743 84.4171 40.1875 84.5726 40.0401C84.7282 39.8927 84.8257 39.6945 84.8476 39.4813L86.0034 29.1591C86.0214 29.0339 86.0133 28.9063 85.9794 28.7845C85.9456 28.6626 85.8868 28.5491 85.8068 28.4511C85.7268 28.3531 85.6274 28.2728 85.5147 28.2153C85.4021 28.1577 85.2787 28.1242 85.1525 28.1168Z" fill="#C5C7DD"/>
<path d="M41.3689 87.655C40.8615 87.871 40.382 88.1473 39.9406 88.478C36.3523 91.1941 35.9167 96.9479 39.1566 101.324C42.3966 105.7 48.0024 107.063 51.6791 104.331L52.074 104.026C69.8747 91.1266 75.7745 81.5292 75.7745 81.5292L76.0432 81.3431C77.112 80.3868 77.7621 79.0486 77.8531 77.6173C77.9441 76.186 77.4688 74.7763 76.5297 73.6923C75.7822 72.5531 74.6443 71.7263 73.33 71.3673C72.0156 71.0084 70.6154 71.142 69.3927 71.7431L41.3689 87.655Z" fill="#294D90"/>
<path d="M77.4491 75.4576C76.6588 74.2379 75.4451 73.3536 74.0417 72.9752C72.6384 72.5968 71.1447 72.7509 69.8482 73.408C68.5518 74.065 67.5442 75.1784 67.0196 76.5339C66.495 77.8893 66.4904 79.391 67.0067 80.7496C69.949 89.9397 74.7673 98.4188 81.1567 105.65C87.9763 113.532 91.63 118.868 91.63 118.868C91.9966 119.54 92.615 120.039 93.3493 120.254C94.0835 120.47 94.8735 120.386 95.5453 120.019C96.2171 119.652 96.7158 119.034 96.9316 118.3C97.1474 117.565 97.0628 116.776 96.6962 116.104C87.9124 100.189 78.6408 78.2141 77.6767 76.1492L77.68 76.0263L77.4491 75.4576Z" fill="#E7AD83"/>
<path d="M77.4491 75.457L81.524 84.0915C81.524 84.0915 78.6047 87.4233 69.3128 89.7931C67.5747 84.4732 66.4863 80.489 65.9174 79.4191C65.5983 78.015 65.8082 76.5426 66.5068 75.2836C67.2054 74.0246 68.3437 73.0674 69.7039 72.5951C70.395 72.2434 71.1515 72.0385 71.9256 71.9933C72.6998 71.9481 73.4749 72.0635 74.2023 72.3323C74.9297 72.6011 75.5937 73.0175 76.1524 73.5552C76.7112 74.0929 77.1527 74.7405 77.4491 75.457Z" fill="#294D90"/>
<path d="M104.822 124.443C104.104 123.035 97.8533 122.111 96.9704 117.676C97.0185 117.279 96.9842 116.877 96.8697 116.495C96.7552 116.112 96.563 115.758 96.305 115.453C96.0471 115.148 95.729 114.9 95.3707 114.724C95.0124 114.548 94.6216 114.448 94.2228 114.43C93.824 114.412 93.4258 114.477 93.0531 114.62C92.6804 114.763 92.3412 114.981 92.0569 115.262C91.7726 115.542 91.5493 115.878 91.4008 116.248C91.2524 116.619 91.1821 117.016 91.1943 117.415C91.1191 118.384 90.958 119.345 90.713 120.285C90.3184 121.892 89.4683 124.752 92.0138 124.873L101.389 125.3C101.389 125.3 105.557 125.851 104.822 124.443Z" fill="#E7AD83"/>
<path d="M104.822 124.442C104.187 123.213 99.2183 122.341 97.4939 119.131C97.4939 119.131 97.0063 118.959 95.8272 119.666C94.6481 120.373 94.1754 120.958 92.6686 120.777C91.9632 120.635 91.3424 120.22 90.9418 119.623C90.9361 119.834 90.8422 120.06 90.7834 120.287C90.3887 121.893 89.5386 124.753 92.0841 124.874L101.459 125.301C101.459 125.301 105.558 125.851 104.822 124.442Z" fill="#322875"/>
<path d="M85.7452 41.4035C85.7452 41.4035 88.0167 34.0467 88.0051 33.1675C88.0015 32.9065 87.9398 32.6496 87.8244 32.4154C87.7091 32.1812 87.543 31.9757 87.3383 31.8137C87.3383 31.8137 88.2088 30.8175 87.6489 30.0643C87.5243 29.871 87.352 29.7133 87.1485 29.6062C86.9451 29.4991 86.7174 29.4464 86.4876 29.4531L84.8516 40.6413L85.7452 41.4035Z" fill="#E7AD83"/>
<path d="M86.3984 31.4724C86.3984 31.4724 84.6381 31.5658 85.0973 32.1406C85.2993 32.3194 85.5397 32.4494 85.7999 32.5204C86.0601 32.5914 86.3332 32.6015 86.598 32.55C86.598 32.55 86.7412 31.798 86.3984 31.4724Z" fill="#E7AD83"/>
<path d="M86.6452 29.4748C86.6452 29.4748 84.884 29.6033 85.3727 30.3898C85.5368 30.6185 85.7644 30.794 86.0272 30.8948C86.29 30.9955 86.5766 31.0171 86.8515 30.9568C86.9383 30.4534 86.8662 29.9354 86.6452 29.4748Z" fill="#E7AD83"/>
<path d="M78.7278 36.9614C78.4612 36.239 78.3385 35.4713 78.3666 34.7018C78.544 33.9858 79.9654 32.108 80.304 32.5917C80.6426 33.0754 79.4103 35.7668 78.7278 36.9614Z" fill="#E7AD83"/>
<path d="M62.4136 68.4982C62.4136 68.4982 70.4564 68.1339 71.5782 68.2519C73.7255 68.8915 75.7359 69.9228 77.5081 71.2937C78.9871 72.511 79.2917 73.609 78.8411 73.3684C77.5561 72.2609 76.086 71.3885 74.4982 70.791C76.8793 72.4545 78.8301 75.0907 78.1303 74.9665C76.8012 74.202 75.5585 73.2965 74.4235 72.2656C74.4235 72.2656 77.659 75.4988 76.9725 75.5331C75.721 74.9896 74.556 74.2654 73.5147 73.3837C73.5147 73.3837 76.272 76.0943 75.5366 75.9867C74.8012 75.8791 72.6242 73.8169 71.9509 73.3594C71.2776 72.9019 65.564 73.5923 63.5329 72.6414C61.5018 71.6904 62.4136 68.4982 62.4136 68.4982Z" fill="#E7AD83"/>
<path d="M56.8812 78.8077C54.1878 80.4855 51.301 81.8306 48.2838 82.8133C45.8217 83.6284 43.206 83.8709 40.636 83.5222C42.8472 80.0732 44.7118 76.4138 46.2024 72.5976C46.9254 69.98 47.065 67.2355 46.6114 64.558C46.6114 64.558 55.2342 75.3359 56.8812 78.8077Z" fill="#A3CFDC"/>
<path d="M62.2849 68.7051C53.967 70.8267 45.3251 71.37 36.8071 70.3067C36.5971 70.2838 36.3856 70.2781 36.1747 70.2898C35.1105 70.3498 34.106 70.801 33.3541 71.5567C32.6023 72.3123 32.1562 73.3191 32.1015 74.3836C32.0468 75.4481 32.3873 76.4953 33.0577 77.324C33.7281 78.1527 34.6811 78.7045 35.7335 78.8734L35.9619 78.8795C45.5023 79.0281 54.962 77.1112 63.692 73.2603C64.163 73.0934 64.573 72.7889 64.869 72.3863C65.165 71.9837 65.3333 71.5015 65.3521 71.0021C65.4075 70.3797 65.215 69.7606 64.8165 69.2792C64.418 68.7979 63.8457 68.4932 63.2238 68.4314C62.8935 68.4465 62.5716 68.5403 62.2849 68.7051Z" fill="#E7AD83"/>
<path d="M67.6481 36.524C67.6481 36.524 70.4476 46.1789 58.9936 45.274C47.5397 44.3691 44.8427 36.7911 44.8427 36.7911C45.8922 36.1033 46.9832 35.481 48.1094 34.9276C50.6038 33.6762 51.5608 33.3855 52.0881 32.7317C52.3988 32.3018 52.5553 31.7795 52.5321 31.2495L59.6678 31.2827C59.6678 31.2827 59.639 32.3542 61.3729 33.2444C63.5208 34.2267 65.6154 35.3214 67.6481 36.524Z" fill="#E7AD83"/>
<path d="M59.5886 29.6457C56.9369 29.6411 54.3843 28.6375 52.4396 26.8348L52.4085 27.9941C52.4085 27.9941 54.0778 31.2908 60.0601 32.3829C59.6525 31.5317 59.4893 30.5841 59.5886 29.6457Z" fill="#CF8D65"/>
<path d="M53.8606 8.5921C54.3019 10.766 54.3194 13.0046 53.9123 15.1851C53.1998 18.1542 50.3891 21.3658 52.5099 26.8366C44.0544 18.9987 42.1881 9.28092 49.6895 5.50959C57.1909 1.73826 64.3529 5.37559 64.6425 17.5119C62.602 12.3245 55.6286 11.4871 53.8606 8.5921Z" fill="#4C266E"/>
<path d="M69.3075 89.9871C69.3298 89.9798 69.3505 89.9682 69.3682 89.9529C69.3859 89.9376 69.4004 89.9188 69.4108 89.8978C69.4212 89.8768 69.4273 89.8539 69.4287 89.8305C69.4301 89.8071 69.4268 89.7837 69.419 89.7616L67.3531 82.9036C67.3458 82.8813 67.3342 82.8607 67.3189 82.8429C67.3035 82.8252 67.2848 82.8107 67.2638 82.8003C67.2428 82.7899 67.2199 82.7838 67.1965 82.7824C67.1731 82.781 67.1497 82.7843 67.1275 82.7921C67.1052 82.7993 67.0846 82.8109 67.0669 82.8263C67.0491 82.8416 67.0346 82.8603 67.0243 82.8813C67.0139 82.9023 67.0078 82.9252 67.0064 82.9486C67.005 82.972 67.0082 82.9955 67.016 83.0176L69.1371 89.7891C69.1356 89.8375 69.1522 89.8846 69.1838 89.9213C69.2154 89.9579 69.2595 89.9814 69.3075 89.9871Z" fill="#335AA9"/>
<path d="M53.0279 104.508L53.1333 104.511C60.481 99.2593 68.3261 88.5716 68.3992 88.4681C68.4323 88.4361 68.4515 88.3925 68.4527 88.3465C68.4539 88.3005 68.4371 88.2559 68.4058 88.2222C68.3692 88.1912 68.3232 88.1737 68.2753 88.1724C68.2274 88.1711 68.1805 88.1862 68.1423 88.2151C68.139 88.338 60.2607 98.9546 52.9661 104.19C52.9474 104.205 52.9321 104.223 52.9214 104.244C52.9106 104.265 52.9047 104.288 52.9041 104.312C52.9035 104.335 52.9081 104.359 52.9177 104.38C52.9273 104.402 52.9416 104.421 52.9595 104.436C52.974 104.467 52.998 104.492 53.0279 104.508Z" fill="#335AA9"/>
<path d="M81.5193 84.2674C81.5488 84.2336 81.5656 84.1906 81.5668 84.1457C81.568 84.1008 81.5535 84.0569 81.5259 84.0215L77.2862 74.9784C77.2591 74.9471 77.2227 74.9254 77.1824 74.9164C77.1421 74.9074 77.1 74.9115 77.0622 74.9282C77.0244 74.9449 76.9929 74.9732 76.9724 75.0091C76.9519 75.045 76.9434 75.0864 76.9482 75.1275L81.2055 84.1711C81.1927 84.2127 81.197 84.2577 81.2174 84.2962C81.2378 84.3347 81.2726 84.3634 81.3143 84.3762C81.3559 84.389 81.4009 84.3847 81.4393 84.3643C81.4778 84.3439 81.5065 84.3091 81.5193 84.2674Z" fill="#335AA9"/>
<path d="M42.3909 94.1164L42.672 94.124C45.7239 93.7137 57.3687 85.536 62.9759 81.6084C64.3016 80.6772 65.2514 79.9996 65.4997 79.9184C65.7512 79.7474 66.0347 79.6292 66.3332 79.571C66.6317 79.5127 66.9389 79.5156 67.2362 79.5795C67.5335 79.6433 67.8148 79.7668 68.063 79.9424C68.3113 80.118 68.5213 80.3422 68.6805 80.6013C69.9227 83.0358 70.9773 85.5615 71.8352 88.1564C71.8534 88.2029 71.8889 88.2404 71.9342 88.2613C71.9795 88.2822 72.0311 88.2847 72.0782 88.2684C72.1005 88.2612 72.1212 88.2496 72.1389 88.2342C72.1567 88.2189 72.1711 88.2002 72.1815 88.1792C72.1919 88.1581 72.198 88.1353 72.1994 88.1119C72.2008 88.0885 72.1976 88.065 72.1898 88.0429C71.315 85.4095 70.2377 82.8477 68.9677 80.3805C68.7924 80.0712 68.5552 79.8014 68.2709 79.588C67.9865 79.3746 67.6612 79.2221 67.3152 79.1403C66.9693 79.0584 66.6101 79.0488 66.2603 79.1121C65.9105 79.1754 65.5775 79.3103 65.2822 79.5082C65.0145 79.6593 64.1007 80.3027 62.7233 81.1974C57.5817 84.8035 45.5429 93.2518 42.5613 93.664C42.3694 93.7041 42.1703 93.6934 41.9839 93.6329C41.7974 93.5724 41.63 93.4642 41.4983 93.3191C40.0524 91.5225 42.6567 84.2098 42.6937 84.1405C42.7058 84.118 42.7123 84.093 42.7126 84.0675C42.713 84.0421 42.7072 84.0169 42.6957 83.9941C42.6842 83.9714 42.6674 83.9518 42.6467 83.9369C42.626 83.922 42.6021 83.9124 42.5768 83.9088C42.5552 83.8998 42.5319 83.8953 42.5085 83.8955C42.4851 83.8956 42.4619 83.9005 42.4403 83.9097C42.4188 83.919 42.3993 83.9324 42.3831 83.9493C42.3668 83.9662 42.3541 83.9862 42.3457 84.0081C42.2318 84.3214 39.6465 91.5819 41.2287 93.5403C41.3563 93.7284 41.5304 93.8804 41.734 93.9813C41.9377 94.0822 42.164 94.1288 42.3909 94.1164Z" fill="#335AA9"/>
<path d="M86.6223 84.7209C86.6454 84.7178 86.6675 84.7096 86.6871 84.6969C86.7067 84.6842 86.7232 84.6674 86.7355 84.6475C86.7478 84.6277 86.7556 84.6054 86.7582 84.5822C86.7609 84.559 86.7584 84.5355 86.7509 84.5134C86.5997 83.5953 85.0766 75.5039 84.0221 74.8429C82.9676 74.1818 81.965 74.2076 78.6527 78.4253C78.6196 78.4573 78.6004 78.5009 78.5992 78.5469C78.5979 78.5929 78.6148 78.6375 78.6461 78.6712C78.6604 78.6899 78.6788 78.7052 78.6998 78.7159C78.7208 78.7267 78.7439 78.7326 78.7675 78.7332C78.791 78.7338 78.8145 78.7292 78.836 78.7196C78.8576 78.71 78.8767 78.6957 78.892 78.6778C82.2617 74.2859 82.8666 74.6712 83.7141 75.1861C84.5615 75.701 85.6621 81.1972 86.2738 84.6061C86.2811 84.6427 86.298 84.6767 86.3227 84.7046C86.3475 84.7325 86.3791 84.7534 86.4146 84.7651C86.45 84.7767 86.4879 84.7788 86.5244 84.771C86.5609 84.7633 86.5946 84.746 86.6223 84.7209Z" fill="#335AA9"/>
<path d="M214.061 7.59529C213.871 6.70336 213.956 5.7747 214.306 4.93261C214.656 4.09053 215.254 3.37485 216.021 2.88061C218.742 1.19077 220.414 2.35677 221.496 2.13709C222.577 1.91741 224.217 -0.39769 228.103 0.345843C231.99 1.08938 232.818 4.36769 233.426 4.84085C234.035 5.314 237.364 5.314 239.324 8.40643C241.284 11.4988 239.645 15.3179 239.56 16.1121C239.476 16.9064 241.385 21.6886 239.222 24.8148C237.059 27.9411 234.406 27.7552 233.798 28.4649C231.83 30.6447 229.166 32.0725 226.261 32.5037C221.411 33.5176 218.251 30.8138 216.866 30.8138C215.343 30.4621 213.951 29.6867 212.851 28.5773C211.751 27.4679 210.987 26.0698 210.647 24.5445C210.089 20.7085 211.205 20.3367 211.07 19.3566C210.277 17.6417 209.878 15.7708 209.904 13.8815C209.937 10.316 213.74 8.91337 214.061 7.59529Z" fill="#4C266E"/>
<path d="M221.192 42.4064C221.181 41.8324 221.057 41.2662 220.826 40.7403C220.596 40.2144 220.264 39.7392 219.849 39.342C219.435 38.9447 218.946 38.6333 218.411 38.4255C217.876 38.2177 217.305 38.1176 216.731 38.1311C215.932 38.1177 215.144 38.3134 214.444 38.6988C213.745 39.0841 213.158 39.6457 212.743 40.3279C210.586 44.2922 209.145 48.6052 208.484 53.0693C207.676 57.9617 207.286 62.9139 207.318 67.8724C207.318 68.8449 207.704 69.7777 208.392 70.4654C209.08 71.153 210.013 71.5394 210.985 71.5394C211.958 71.5394 212.89 71.153 213.578 70.4654C214.266 69.7777 214.652 68.8449 214.652 67.8724C214.762 64.0057 215.329 60.1655 216.342 56.4321C217.461 52.2841 218.925 48.2368 220.719 44.3328C221.035 43.7405 221.198 43.0781 221.192 42.4064Z" fill="#BA735D"/>
<path d="M216.731 38.1308C215.932 38.1174 215.144 38.3131 214.444 38.6984C213.745 39.0838 213.158 39.6454 212.743 40.3276C211.252 42.9841 210.115 45.8248 209.363 48.7768C210.428 49.6386 212.743 50.7033 217.812 51.2778C219.198 47.2898 220.6 44.3494 220.6 44.3494C220.952 43.7435 221.138 43.0559 221.141 42.3554C221.106 41.2139 220.624 40.1318 219.799 39.3418C218.974 38.5518 217.873 38.1169 216.731 38.1308Z" fill="#BA735D"/>
<path d="M205.24 45.0424C206.824 52.4531 209.732 59.5171 213.824 65.8951C213.941 66.0461 214.048 66.2041 214.145 66.3683C214.541 67.215 214.601 68.1807 214.311 69.0695C214.022 69.9583 213.405 70.7039 212.586 71.1551C211.768 71.6063 210.808 71.7294 209.902 71.4995C208.996 71.2696 208.211 70.7039 207.707 69.917V69.7311C203.867 62.0847 201.909 53.632 201.995 45.0762C201.843 44.2482 201.488 43.944 202.299 43.5046C202.53 43.368 202.785 43.2784 203.05 43.241C203.316 43.2035 203.586 43.219 203.845 43.2866C204.104 43.3542 204.348 43.4724 204.561 43.6346C204.774 43.7967 204.953 43.9995 205.088 44.2313C205.201 44.4861 205.253 44.7639 205.24 45.0424Z" fill="#BA735D"/>
<path d="M218.556 70.1365C218.968 69.8428 219.409 69.5936 219.874 69.393C223.794 67.7031 227.478 70.2548 229.303 74.4625C231.128 78.6702 230.368 83.1314 226.464 84.8044L226.025 84.9734C214.891 89.9048 203.352 93.8626 191.535 96.8023L191.248 96.9375C190.659 97.1595 190.032 97.2631 189.402 97.2422C188.773 97.2213 188.154 97.0764 187.581 96.8158C187.008 96.5551 186.492 96.1839 186.063 95.7234C185.634 95.263 185.3 94.7223 185.08 94.1324C184.569 93.0385 184.481 91.7941 184.834 90.6395C185.187 89.4848 185.954 88.5018 186.989 87.8799L218.556 70.1365Z" fill="#965847"/>
<path d="M230.249 74.0905C231.164 76.0241 231.28 78.2403 230.571 80.2585C229.862 82.2767 228.387 83.9342 226.464 84.8717L226.025 85.0407C220.6 87.4403 215.413 89.4343 210.816 91.0735L204.868 77.8757L218.589 70.1363C219.001 69.8426 219.443 69.5933 219.908 69.3927C221.902 68.6521 224.109 68.7304 226.047 69.6105C227.984 70.4905 229.495 72.1009 230.249 74.0905Z" fill="#C6A3C4"/>
<path d="M235.724 106.722C234.389 106.553 231.821 101.771 228.019 102.396C227.426 102.599 226.778 102.568 226.207 102.311C225.635 102.053 225.183 101.588 224.943 101.01C224.702 100.431 224.69 99.7829 224.91 99.1961C225.13 98.6093 225.564 98.1281 226.126 97.8502C226.886 97.5078 227.616 97.1008 228.306 96.6335C229.472 95.8393 231.517 94.3353 232.345 96.3462L235.42 103.731C235.42 103.731 237.059 106.908 235.724 106.722Z" fill="#4C266E"/>
<path d="M188.662 97.2253C187.507 96.8467 186.527 96.0657 185.9 95.0247C185.272 93.9837 185.04 92.7519 185.245 91.5539C185.449 90.3558 186.078 89.2712 187.015 88.4977C187.953 87.7241 189.137 87.3132 190.352 87.3397C198.574 87.3928 206.695 89.1597 214.196 92.5276C218.585 94.47 223.068 96.1902 227.63 97.6816C228.273 97.8115 228.839 98.1917 229.201 98.7383C229.564 99.285 229.695 99.9534 229.565 100.597C229.435 101.24 229.055 101.805 228.508 102.168C227.962 102.531 227.293 102.661 226.65 102.531C211.442 99.4559 191.265 97.4619 189.288 97.3098H189.136L188.662 97.2253Z" fill="#965847"/>
<path d="M219.316 68.4132C216.293 71.7547 213.992 75.6838 212.557 79.9548C210.681 86.3425 210.732 90.7023 218.927 90.7023C222.88 90.7419 226.828 90.9844 230.756 91.4289C233.24 91.4289 247.52 88.7927 244.055 80.2083C242.055 75.1384 238.943 70.5821 234.947 66.8754C232.855 65.088 230.179 64.1317 227.427 64.1886C225.848 64.2517 224.301 64.6631 222.899 65.3935C221.497 66.1238 220.273 67.1549 219.316 68.4132Z" fill="#C6A3C4"/>
<path d="M230.131 23.7846C230.131 23.7846 228.441 30.0877 223 30.4426C217.559 30.7975 216.443 25.373 216.984 20.1007C217.525 14.8284 219.519 9.06601 224.943 9.04911C230.368 9.03221 233.274 14.727 230.131 23.7846Z" fill="#BA735D"/>
<path d="M224.673 24.021C225.078 23.9767 225.487 24.0136 225.877 24.1295C226.267 24.2455 226.631 24.4382 226.945 24.6963C227.26 24.9544 227.52 25.2728 227.71 25.6327C227.901 25.9926 228.017 26.3868 228.053 26.7923L228.678 34.0249C228.698 34.7995 228.422 35.5525 227.905 36.1302C227.389 36.708 226.672 37.0669 225.9 37.1337C225.128 37.2006 224.359 36.9703 223.751 36.4899C223.143 36.0095 222.742 35.3152 222.628 34.5487L221.986 27.3162C221.919 26.5257 222.162 25.7402 222.663 25.1254C223.165 24.5106 223.885 24.1146 224.673 24.021Z" fill="#BA735D"/>
<path d="M223.845 33.5011C226.1 33.0329 228.44 33.2026 230.604 33.9912C233.325 34.9544 237.82 36.6442 238.31 37.3709C239.037 38.4017 239.053 47.51 237.55 53.3737C236.046 59.2375 235.251 63.7325 235.572 65.8617C235.893 67.9909 235.184 71.7255 227.123 72.807C219.063 73.8885 219.198 69.9849 218.674 67.7374C217.915 64.9178 216.955 62.1563 215.801 59.4741C215.277 58.3757 212.1 56.1958 212.421 52.1739C212.743 48.1521 213.452 47.1044 213.52 45.1104C213.414 43.1136 213.544 41.1113 213.909 39.1452C214.399 38.0806 220.009 34.6502 222.73 33.7884C223.152 33.687 223.507 33.5687 223.845 33.5011Z" fill="#F5E5E6"/>
<path d="M227.208 65.0166C233.03 66.2361 239.054 66.1032 244.816 64.6279C244.948 64.5632 245.092 64.5232 245.238 64.5096C246.709 64.2562 248.179 65.6756 248.517 67.6697C248.765 68.4811 248.688 69.357 248.304 70.1133C247.919 70.8696 247.257 71.4474 246.455 71.7253H246.303C239.66 72.5069 232.928 71.5701 226.751 69.0046C226.39 68.8729 226.071 68.6466 225.827 68.3493C225.584 68.052 225.424 67.6947 225.366 67.3148C225.226 66.8508 225.271 66.3506 225.491 65.9191C225.712 65.4875 226.091 65.158 226.549 64.9997C226.765 64.9388 226.995 64.9447 227.208 65.0166Z" fill="#BA735D"/>
<path d="M232.784 41.9164C232.73 41.327 232.794 40.7328 232.971 40.168C233.148 39.6032 233.434 39.0789 233.814 38.6251C234.194 38.1714 234.66 37.7972 235.185 37.5239C235.71 37.2506 236.284 37.0837 236.873 37.0327C237.685 36.9629 238.501 37.1127 239.236 37.4665C239.97 37.8203 240.596 38.365 241.047 39.0436C243.531 43.1205 245.324 47.5798 246.353 52.2413C247.565 57.3801 248.367 62.6069 248.753 67.8724C248.799 68.819 248.477 69.7467 247.854 70.4609C247.231 71.1752 246.356 71.6205 245.411 71.7035C244.467 71.7866 243.528 71.5009 242.79 70.9064C242.052 70.3118 241.573 69.4547 241.453 68.5146C241.037 64.428 240.176 60.3991 238.884 56.4997C237.42 52.1958 235.617 48.0145 233.493 43.9949C233.093 43.3693 232.849 42.6562 232.784 41.9164Z" fill="#BA735D"/>
<path d="M236.874 37.066C237.686 36.9962 238.502 37.146 239.236 37.4998C239.97 37.8536 240.596 38.3983 241.048 39.077C242.744 41.8263 244.1 44.7712 245.086 47.8473C244.089 48.8443 241.859 50.1623 236.857 51.227C235.167 47.1037 233.477 44.0958 233.477 44.0958C233.077 43.4702 232.833 42.7572 232.767 42.0173C232.705 41.4212 232.762 40.8187 232.935 40.245C233.109 39.6713 233.395 39.1381 233.778 38.6768C234.16 38.2154 234.631 37.8353 235.163 37.5587C235.695 37.2821 236.276 37.1146 236.874 37.066Z" fill="#BA735D"/>
<path d="M222.628 70.6942L219.603 55.739C219.564 55.5302 219.453 55.3416 219.29 55.2059C219.126 55.0702 218.92 54.9957 218.708 54.9955H197.365C197.231 54.9956 197.099 55.0253 196.977 55.0825C196.856 55.1396 196.749 55.2227 196.663 55.326C196.578 55.4292 196.516 55.5501 196.483 55.6799C196.449 55.8097 196.445 55.9452 196.469 56.077L199.41 71.049C199.453 71.2548 199.565 71.4394 199.728 71.5718C199.891 71.7042 200.095 71.7762 200.305 71.7757H221.716C221.85 71.775 221.983 71.7452 222.105 71.6882C222.227 71.6312 222.335 71.5485 222.422 71.4456C222.508 71.3428 222.572 71.2223 222.608 71.0926C222.643 70.9629 222.65 70.8269 222.628 70.6942Z" fill="#A52F40"/>
<path d="M222.324 71.0661L219.367 56.111C219.325 55.9036 219.213 55.7168 219.05 55.5816C218.887 55.4464 218.683 55.3709 218.471 55.3674H197.061C196.925 55.3671 196.791 55.3971 196.668 55.4552C196.545 55.5133 196.437 55.5981 196.351 55.7033C196.266 55.8085 196.204 55.9316 196.172 56.0635C196.14 56.1954 196.138 56.3329 196.165 56.4658L199.106 71.421C199.145 71.6298 199.256 71.8184 199.419 71.9541C199.583 72.0898 199.789 72.1643 200.001 72.1645H221.412C221.548 72.1643 221.682 72.1342 221.806 72.0762C221.929 72.0182 222.038 71.9338 222.125 71.829C222.212 71.7242 222.275 71.6016 222.309 71.4697C222.344 71.3379 222.349 71.2001 222.324 71.0661Z" fill="#F05553"/>
<path d="M229.286 67.9908C229.286 67.9908 224.893 62.6678 224.217 62.0256C222.573 61.0339 220.764 60.347 218.877 59.9978C217.187 59.7612 216.359 60.2006 216.781 60.3358C218.231 60.5117 219.638 60.9407 220.938 61.6032C218.522 61.0624 215.7 61.3159 216.19 61.7045C217.443 62.1015 218.735 62.3676 220.043 62.4988C220.043 62.4988 216.122 62.296 216.511 62.7522C217.581 63.247 218.721 63.572 219.891 63.7155C219.891 63.7155 216.511 63.4958 217.069 63.9182C218.279 64.319 219.533 64.5742 220.803 64.6787C221.479 64.8477 224.69 68.0584 226.464 68.8357C226.963 69.0171 227.507 69.0329 228.015 68.8807C228.524 68.7285 228.969 68.4164 229.286 67.9908Z" fill="#BA735D"/>
<path d="M204.395 46.9858C204.395 46.9858 198.48 43.4033 197.754 42.7781C196.511 41.2806 195.564 39.5601 194.965 37.7086C194.492 36.137 194.796 35.2076 194.965 35.5962C195.342 37.0072 195.965 38.3403 196.807 39.5336C195.929 37.2185 195.776 34.464 196.216 34.8189C196.792 36.0028 197.245 37.2429 197.568 38.5197C197.568 38.5197 196.807 34.6668 197.314 34.971C197.938 35.9502 198.416 37.0146 198.734 38.131C198.734 38.131 198.058 34.8865 198.531 35.3259C199.103 36.4593 199.54 37.656 199.832 38.8915C200.102 39.5505 203.769 42.2711 204.766 43.961C205.049 44.4349 205.166 44.9894 205.099 45.5371C205.032 46.0848 204.784 46.5946 204.395 46.9858Z" fill="#BA735D"/>
<path d="M207.724 61.0283C208.732 61.0283 209.549 60.5971 209.549 60.0651C209.549 59.5332 208.732 59.1019 207.724 59.1019C206.716 59.1019 205.899 59.5332 205.899 60.0651C205.899 60.5971 206.716 61.0283 207.724 61.0283Z" fill="#A52F40"/>
<path d="M240.541 117.672C239.307 117.114 238.276 111.774 234.474 111.251C233.822 111.311 233.172 111.11 232.669 110.692C232.165 110.273 231.848 109.672 231.787 109.02C231.727 108.368 231.928 107.718 232.346 107.215C232.764 106.711 233.366 106.394 234.018 106.333C234.842 106.237 235.657 106.067 236.451 105.826C237.803 105.421 240.203 104.593 240.405 106.756C240.608 108.919 241.132 114.715 241.132 114.715C241.132 114.715 241.757 118.179 240.541 117.672Z" fill="#4C266E"/>
<path d="M198.43 94.5215C197.457 93.8147 196.767 92.7852 196.483 91.6167C196.199 90.4481 196.34 89.2168 196.88 88.1425C197.42 87.0681 198.325 86.2208 199.432 85.7518C200.539 85.2828 201.777 85.2227 202.925 85.5822C210.758 88.0841 217.986 92.1871 224.149 97.6308C227.75 100.791 231.512 103.764 235.42 106.536C235.706 106.692 235.957 106.902 236.161 107.154C236.365 107.407 236.518 107.697 236.609 108.009C236.701 108.32 236.731 108.647 236.696 108.97C236.662 109.293 236.564 109.605 236.409 109.891C236.254 110.176 236.044 110.428 235.791 110.632C235.538 110.836 235.248 110.988 234.937 111.08C234.625 111.171 234.299 111.201 233.976 111.167C233.653 111.132 233.34 111.035 233.055 110.879C219.536 103.427 200.762 95.5354 198.937 94.7749H198.835L198.43 94.5215Z" fill="#BA735D"/>
<path d="M232.97 75.7132C233.82 75.6548 234.672 75.6548 235.522 75.7132C239.713 74.9528 242.585 77.1834 243.396 81.7629C244.208 86.3424 242.484 90.4487 238.327 91.2091H237.871C225.915 93.523 213.782 94.7952 201.607 95.0113H201.302C200.083 95.1796 198.846 94.8713 197.848 94.1505C196.85 93.4297 196.169 92.352 195.946 91.1416C195.693 89.9595 195.887 88.726 196.489 87.678C197.091 86.6299 198.059 85.8413 199.207 85.4637L232.97 75.7132Z" fill="#BA735D"/>
<path d="M244.41 81.5941C244.871 83.6839 244.488 85.8708 243.346 87.6804C242.204 89.49 240.395 90.7763 238.31 91.26H237.854C232.024 92.3753 226.515 93.1695 221.648 93.7272L218.809 79.5325L233.917 75.0713C234.383 74.8718 234.871 74.7244 235.37 74.6319C236.421 74.492 237.49 74.5614 238.514 74.8361C239.538 75.1108 240.498 75.5853 241.338 76.2324C242.179 76.8794 242.883 77.6863 243.41 78.6065C243.937 79.5266 244.277 80.542 244.41 81.5941Z" fill="#C6A3C4"/>
<path d="M222.189 30.4593C223.298 30.4327 224.39 30.1773 225.396 29.7092C226.402 29.241 227.301 28.5702 228.036 27.7386V28.3808C227.472 29.4401 226.644 30.335 225.631 30.9778C224.617 31.6205 223.455 31.9892 222.256 32.0478L222.189 30.4593Z" fill="#965847"/>
<path d="M197.635 81.9317C197.635 81.9317 202.806 81.0867 210.377 85.1762C217.947 89.2656 220.516 93.7944 220.516 93.7944L228.661 92.865L223.591 80.6643L218.708 76.8114L211.154 74.3442C211.154 74.3442 197.737 80.7657 197.635 81.9317Z" fill="#C6A3C4"/>
<path d="M215.514 37.7254C215.514 37.7254 215.514 41.2403 223.423 39.9729C227.747 39.3611 231.935 38.0182 235.809 36.0017C235.809 36.0017 233.325 34.8526 231.23 34.0922C229.134 33.3318 228.526 33.2811 228.475 32.5713C226.446 32.4162 224.404 32.5413 222.409 32.9431C222.409 32.9431 222.409 33.5853 221.412 34.1091C219.349 35.1497 217.377 36.3593 215.514 37.7254Z" fill="#BA735D"/>
<path d="M217.626 16.4673C217.626 16.4673 218.268 13.8649 219.908 13.0876C221.547 12.3103 222.476 14.2536 224.639 14.4395C226.802 14.6254 228.188 13.7466 228.931 14.4395C229.489 14.9824 229.827 15.7119 229.88 16.4884C229.933 17.2648 229.697 18.0335 229.219 18.6472C227.951 20.4384 228.712 22.0269 229.117 23.7167C229.523 25.4066 227.715 26.7923 228.036 27.7555C230.435 26.2346 236.248 15.3351 229.878 10.1473C223.507 4.95943 216.224 10.8401 217.626 16.4673Z" fill="#4C266E"/>
<path d="M219.451 94.1323C219.435 94.1399 219.418 94.1437 219.401 94.1437C219.383 94.1437 219.366 94.1399 219.35 94.1323C217.129 92.2589 214.669 90.6903 212.033 89.4683C212.011 89.4391 211.999 89.4035 211.999 89.367C211.999 89.3304 212.011 89.2948 212.033 89.2656C212.04 89.2464 212.051 89.229 212.066 89.2143C212.08 89.1996 212.097 89.1879 212.116 89.18C212.135 89.1722 212.155 89.1682 212.176 89.1683C212.197 89.1685 212.217 89.1729 212.236 89.1811C214.905 90.4173 217.395 92.0089 219.637 93.9127C219.662 93.9405 219.676 93.9766 219.676 94.014C219.676 94.0515 219.662 94.0875 219.637 94.1154C219.609 94.1317 219.578 94.1417 219.546 94.1446C219.514 94.1475 219.482 94.1434 219.451 94.1323Z" fill="#965847"/>
</svg>
