<svg width="208" height="36" viewBox="0 0 208 36" fill="none" xmlns="http://www.w3.org/2000/svg">
<path d="M73.7 15.3V10.8H56.8V27.2C56.7 25.3 56 23.8 54.7 22.7C53.8 22 52.4 21.4 50.6 21L46.4 20C44.8 19.6 43.7 19.3 43.2 19C42.7 18.8 42.4 18.4 42.2 18C42.1 17.7 42 17.4 42 17.1C42 16.4 42.3 15.7 42.8 15.3C42.9 15.2 43 15.1 43.2 15C44 14.5 45 14.2 46.4 14.2C47.6 14.2 48.6 14.4 49.4 14.8C50.6 15.4 51.2 16.4 51.3 17.9H56.1C56 15.4 55.1 13.4 53.3 12.1C51.5 10.8 49.3 10.1 46.8 10.1C43.8 10.1 41.4 10.8 39.9 12.2C38.9 13.1 38.3 14.1 37.9 15.2C37.8 15.4 37.8 15.7 37.7 16C37.1 18.8 35.3 20.6 32.4 20.6C27.7 20.6 25.9 16.6 25.9 12.6C25.9 8.40001 27.7 4.40001 32.4 4.40001C35 4.40001 37.3 6.20001 37.6 8.60001H42.7C42.1 3.00001 37.6 0 32.3 0C25.2 0 20.9 5.1 20.5 11.7V0.600006H15.2V15.5C15.2 19.1 14 20.7 10.2 20.7C5.9 20.7 5.3 18.1 5.3 15.5V0.600006H0V15.5C0 22 3.8 25.2 10.2 25.2C16.6 25.2 20.5 22 20.5 15.5V13.6C20.9 20.1 25.2 25.1 32.3 25.1C35.2 25.1 37.7 24.2 39.5 22.5C39.6 22.6 39.7 22.7 39.9 22.8C40.9 23.5 42.6 24.1 45.1 24.6L47.7 25.2C49.2 25.5 50.3 25.9 51 26.3C51.7 26.7 52 27.3 52 28.1C52 29.4 51.3 30.4 49.9 30.9C49.2 31.2 48.2 31.3 47 31.3C45 31.3 43.6 30.8 42.8 29.8C42.3 29.3 42 28.4 41.9 27.4H37.1C37.1 29.9 38 31.8 39.8 33.3C41.6 34.7 44.1 35.4 47.2 35.4C50.3 35.4 52.7 34.7 54.3 33.2C55.9 31.9 56.7 30.2 56.8 28.3V35H62.1V25.1H72.2V20.8H62.1V15.2H73.7V15.3Z" fill="#052049"/>
<path d="M110.1 34.9001H106.5V18.3001H86.5V34.9001H83V0.400146H86.5V15.2001H106.5V0.400146H110.1V34.9001Z" fill="#052049"/>
<path d="M167.8 0.400024H164.5V34.9H167.8V0.400024Z" fill="#052049"/>
<path d="M180.6 35.2001C178.5 35.2001 177.1 34.8001 176.3 34.0001C175.4 33.1001 175.1 31.7001 175.1 29.5001V12.8001H170.8V9.90007H175.1V2.50006H178.4V9.90007H183.4V12.8001H178.4V29.3001C178.4 31.3001 178.7 32.3001 180.7 32.4001C181.5 32.4001 182.4 32.4001 183.3 32.3001H183.5V35.2001H183.3C182.9 35.2001 182.4 35.2001 182 35.2001C181.5 35.1001 181.1 35.2001 180.6 35.2001Z" fill="#052049"/>
<path d="M117 20.5001H132.6C132.4 16.3001 129.7 12.0001 124.9 12.0001C120.1 12.0001 117.5 16.2001 117 20.5001ZM124.9 35.6001C117.8 35.6001 113.6 30.7001 113.6 22.4001C113.6 18.9001 114.5 15.7001 116.3 13.3001C118.3 10.6001 121.3 9.1001 124.9 9.1001C128 9.1001 130.5 10.1001 132.4 12.1001C134.8 14.6001 136.1 18.6001 135.9 23.2001V23.4001H116.9C117 29.9001 121 32.8001 124.9 32.8001C128.8 32.8001 131.5 30.7001 132.5 26.6001V26.5001H135.8V26.7001C134.4 32.6001 130.9 35.6001 124.9 35.6001Z" fill="#052049"/>
<path d="M155.4 21.6002C154.8 22.2002 153.7 22.4002 153 22.5002C152.2 22.6002 151.3 22.8002 150.4 22.9002C145.9 23.5002 141.6 24.1002 141.6 28.0002C141.6 31.1002 144.4 32.7002 146.9 32.7002C149.4 32.7002 151.8 31.8002 153.3 30.2002C154.6 28.8002 155.3 27.1002 155.3 25.1002V21.6002H155.4ZM146.8 35.6002C141.6 35.6002 138.4 32.8002 138.4 28.2002C138.4 21.6002 144.2 20.9002 150.4 20.3002C150.8 20.3002 151.3 20.2002 151.7 20.1002C154.1 19.8002 155.4 19.5002 155.4 16.9002C155.4 13.6002 153.4 12.0002 149.1 12.0002C146.7 12.0002 142.8 12.7002 142.7 17.6002V17.8002H139.4V17.6002C139.7 12.2002 143.3 9.2002 149.6 9.2002C155.7 9.2002 158.8 11.9002 158.8 17.3002V30.4002C158.8 31.5002 159.3 32.1002 160.4 32.1002C160.7 32.1002 161.1 32.0002 161.3 31.9002L161.5 31.8002V34.7002H161.4C160.7 34.8002 160.2 34.9002 159.4 34.9002C156.5 34.9002 155.8 33.3002 155.7 30.8002C153.6 33.8002 151.4 35.6002 146.8 35.6002Z" fill="#052049"/>
<path d="M207.8 34.9001H204.5V19.3C204.5 14.3 202.6 12 198.4 12C194 12 190.9 15.3 190.8 20.3V34.8H187.5V0.300049H190.8V13.6001C192.1 10.9001 195.2 9.00005 198.6 9.00005C205 9.00005 207.8 12 207.8 18.7V34.9001Z" fill="#052049"/>
</svg>
