<svg width="213" height="50" viewBox="0 0 213 50" fill="none" xmlns="http://www.w3.org/2000/svg">
<path d="M60.8442 21.67C60.8442 22.4653 60.8942 23.1114 61.0442 23.509C61.1942 23.9066 61.4442 24.2545 61.7942 24.5527H57.3943C57.7443 24.2545 57.9943 23.9066 58.1443 23.509C58.2943 23.1114 58.3443 22.515 58.3443 21.67V10.1392H57.0443C56.1444 10.1392 55.4444 10.1889 54.8944 10.338C54.3445 10.4871 53.8945 10.6859 53.5945 11.0339L54.3944 8.39966H65.844L65.094 10.9842C64.844 10.6859 64.544 10.4871 64.1441 10.338C63.7441 10.1889 63.2441 10.1392 62.6941 10.1392H60.8942V21.67H60.8442Z" fill="#00275B"/>
<path d="M69.5436 21.9683C69.5436 22.7139 69.5936 23.2109 69.7436 23.5588C69.8936 23.9067 70.0936 24.2049 70.3936 24.5031H66.4938C66.7938 24.2049 66.9938 23.9067 67.1437 23.5588C67.2937 23.2109 67.3437 22.6642 67.3437 21.9683V12.6244C67.3437 11.8789 67.2937 11.3818 67.1437 11.0339C66.9938 10.686 66.7938 10.3878 66.4938 10.0896H70.3936C70.0936 10.3381 69.8936 10.686 69.7436 11.0339C69.6436 11.3818 69.5436 11.9286 69.5436 12.6244V15.9047H77.2433V12.6741C77.2433 11.9286 77.1933 11.4315 77.0433 11.0836C76.8933 10.7357 76.6934 10.4375 76.3934 10.1393H80.2932C79.9932 10.3878 79.7932 10.7357 79.6432 11.0836C79.4932 11.4315 79.4432 11.9783 79.4432 12.6741V22.018C79.4432 22.7636 79.4932 23.2606 79.6432 23.6085C79.7932 23.9564 79.9932 24.2546 80.2932 24.5528H76.3934C76.6934 24.2546 76.8933 23.9564 77.0433 23.6085C77.1433 23.2606 77.2433 22.7139 77.2433 22.018V17.5946H69.5436V21.9683Z" fill="#00275B"/>
<path d="M82.1935 24.5528C82.4935 24.2546 82.6935 23.9564 82.8435 23.6085C82.9935 23.2606 83.0434 22.7139 83.0434 21.9683V12.6741C83.0434 11.9286 82.9935 11.3818 82.8435 11.0339C82.6935 10.686 82.4935 10.3878 82.1935 10.0896H90.0432V12.3759C89.6932 12.0777 89.2932 11.8789 88.8932 11.7795C88.4932 11.6304 87.9933 11.5807 87.4433 11.5807C87.1433 11.5807 86.8433 11.5807 86.4933 11.6304C86.1433 11.6801 85.7433 11.7298 85.2934 11.8292V15.9047H88.7932V17.9922C88.6432 17.7934 88.3932 17.6443 88.1433 17.5946C87.8433 17.4952 87.3433 17.4952 86.5933 17.4952H85.2934V22.6642C85.8433 22.7636 86.3433 22.8133 86.7433 22.863C87.1933 22.9127 87.5433 22.9127 87.8933 22.9127C88.6432 22.9127 89.2932 22.8133 89.9432 22.6145C90.5932 22.4156 91.2431 22.1174 91.8431 21.7198L90.8431 24.5528H82.1935Z" fill="#00275B"/>
<path d="M110.143 24.503V23.2605C109.343 23.8072 108.593 24.2545 107.793 24.503C106.993 24.8012 106.193 24.9006 105.393 24.9006C104.443 24.9006 103.643 24.7515 102.893 24.4533C102.143 24.1551 101.543 23.6581 100.993 23.0617C100.593 22.5647 100.293 22.0179 100.093 21.3718C99.8931 20.7257 99.8431 19.8808 99.8431 18.7873V11.2327C99.8431 10.4374 99.7931 9.84101 99.6431 9.4434C99.4931 9.04578 99.2431 8.69787 98.9431 8.39966H103.293C102.943 8.69787 102.743 9.04578 102.593 9.4434C102.443 9.84101 102.393 10.4374 102.393 11.2327V18.2903C102.393 19.3838 102.443 20.2287 102.543 20.7257C102.643 21.2724 102.843 21.67 103.093 22.0179C103.393 22.4156 103.793 22.6641 104.293 22.8629C104.793 23.0617 105.393 23.1611 106.093 23.1611C106.693 23.1611 107.243 23.0617 107.743 22.9126C108.243 22.7635 108.693 22.4653 109.093 22.1671C109.443 21.8688 109.693 21.5209 109.843 21.0736C109.993 20.6263 110.043 20.0299 110.043 19.2346V11.2327C110.043 10.3877 109.993 9.79131 109.843 9.39369C109.693 8.99608 109.443 8.69787 109.143 8.39966H113.543C113.193 8.69787 112.943 9.04578 112.793 9.4434C112.643 9.84101 112.593 10.4374 112.593 11.2327V21.67C112.593 22.4653 112.643 23.0617 112.793 23.4593C112.943 23.8569 113.193 24.2048 113.543 24.503H110.143Z" fill="#00275B"/>
<path d="M129.392 10.0896C129.092 10.3381 128.842 10.686 128.742 11.0339C128.592 11.3818 128.542 11.9286 128.542 12.6244V24.851C128.042 24.851 127.592 24.6522 127.142 24.354C126.692 24.0558 126.142 23.4594 125.442 22.5648L118.092 13.2208V22.018C118.092 22.7636 118.142 23.3103 118.292 23.6582C118.392 24.0061 118.642 24.3043 118.942 24.5528H115.692C115.992 24.2546 116.192 23.9564 116.342 23.6085C116.492 23.2606 116.542 22.7139 116.542 21.9683V12.6244C116.542 11.8789 116.492 11.3818 116.342 11.0339C116.192 10.686 115.992 10.3878 115.692 10.0896H118.592L127.042 20.9246V12.6244C127.042 11.8789 126.992 11.3818 126.842 11.0339C126.692 10.686 126.492 10.3878 126.192 10.0896H129.392Z" fill="#00275B"/>
<path d="M134.842 21.9683C134.842 22.7139 134.892 23.2606 135.042 23.6085C135.192 23.9564 135.392 24.2546 135.692 24.5528H131.792C132.092 24.2546 132.292 23.9564 132.442 23.6085C132.542 23.2606 132.642 22.7139 132.642 21.9683V12.6244C132.642 11.8789 132.592 11.3818 132.442 11.0339C132.292 10.686 132.092 10.3878 131.792 10.0896H135.692C135.392 10.3381 135.192 10.686 135.042 11.0339C134.892 11.3818 134.842 11.9286 134.842 12.6244V21.9683Z" fill="#00275B"/>
<path d="M143.991 24.9003C143.391 24.7512 142.841 24.4033 142.441 23.8566C141.991 23.3099 141.591 22.5147 141.241 21.4709L138.342 13.0713C138.092 12.3755 137.892 11.8288 137.692 11.3815C137.492 10.9341 137.242 10.5365 136.992 10.1389H139.941C139.941 10.3874 139.991 10.5862 139.991 10.785C140.041 10.9838 140.041 11.1827 140.141 11.3815L143.641 21.7194L146.941 13.121C147.041 12.8725 147.091 12.5743 147.191 12.3258C147.241 12.0773 147.291 11.8288 147.291 11.5803C147.291 11.3815 147.241 11.1827 147.141 10.9838C147.041 10.785 146.841 10.4868 146.591 10.1886H149.891L143.991 24.9003Z" fill="#00275B"/>
<path d="M150.791 24.5528C151.091 24.2546 151.291 23.9564 151.441 23.6085C151.591 23.2606 151.641 22.7139 151.641 21.9683V12.6741C151.641 11.9286 151.591 11.3818 151.441 11.0339C151.291 10.686 151.091 10.3878 150.791 10.0896H158.59V12.3759C158.24 12.0777 157.84 11.8789 157.44 11.7795C157.04 11.6304 156.54 11.5807 155.99 11.5807C155.691 11.5807 155.391 11.5807 155.041 11.6304C154.691 11.6801 154.291 11.7298 153.841 11.8292V15.9047H157.34V17.9922C157.19 17.7934 156.94 17.6443 156.69 17.5946C156.39 17.4952 155.891 17.4952 155.141 17.4952H153.841V22.6642C154.391 22.7636 154.891 22.8133 155.291 22.863C155.741 22.9127 156.091 22.9127 156.44 22.9127C157.14 22.9127 157.84 22.8133 158.49 22.6145C159.14 22.4156 159.79 22.1174 160.39 21.7198L159.39 24.5528H150.791Z" fill="#00275B"/>
<path d="M164.54 21.9679C164.54 22.7135 164.59 23.2105 164.74 23.5584C164.84 23.9063 165.09 24.2045 165.39 24.5027H161.49C161.79 24.2045 161.99 23.9063 162.14 23.5584C162.29 23.2105 162.34 22.6638 162.34 21.9679V12.6737C162.34 11.9282 162.29 11.4312 162.14 11.0832C161.99 10.7353 161.79 10.4371 161.49 10.1389H166.44C167.84 10.1389 168.99 10.4868 169.84 11.133C170.69 11.8288 171.14 12.6737 171.14 13.7671C171.14 14.5624 170.89 15.2582 170.34 15.8546C169.84 16.451 168.99 16.9978 167.89 17.4451L171.59 22.465C171.79 22.7632 172.09 23.0614 172.39 23.4093C172.69 23.7572 173.04 24.1051 173.44 24.453L172.34 24.5524H172.19C171.69 24.5524 171.14 24.4033 170.69 24.1548C170.19 23.8566 169.79 23.5087 169.44 23.0117L165.19 17.0972C166.44 16.799 167.39 16.4013 167.99 15.9043C168.59 15.4073 168.89 14.7612 168.89 13.966C168.89 13.2204 168.64 12.624 168.14 12.1767C167.64 11.7294 166.99 11.4809 166.14 11.4809C165.94 11.4809 165.74 11.4809 165.49 11.5306C165.24 11.5803 164.94 11.63 164.59 11.6797V21.9679H164.54Z" fill="#00275B"/>
<path d="M174.14 24.2047L173.44 21.5705C174.29 22.1172 175.09 22.5645 175.84 22.813C176.64 23.1112 177.39 23.2106 178.19 23.2106C179.19 23.2106 179.94 23.0118 180.54 22.5645C181.14 22.1172 181.44 21.5705 181.44 20.9244C181.44 20.7256 181.39 20.5267 181.34 20.3279C181.29 20.1291 181.19 19.9303 181.09 19.7812C180.84 19.3836 179.94 18.8369 178.49 18.0914C178.09 17.8926 177.84 17.7434 177.59 17.644C176.19 16.9482 175.24 16.3021 174.74 15.7057C174.24 15.1093 173.94 14.4134 173.94 13.5685C173.94 12.3757 174.44 11.481 175.34 10.7852C176.29 10.0894 177.59 9.74146 179.24 9.74146C179.69 9.74146 180.24 9.79116 180.79 9.84086C181.34 9.89056 181.99 9.98996 182.64 10.1391V12.5745C182.04 12.1271 181.44 11.7792 180.84 11.5804C180.24 11.3816 179.64 11.2325 178.99 11.2325C178.19 11.2325 177.54 11.4313 177.04 11.7792C176.54 12.1271 176.29 12.5745 176.29 13.1709C176.29 13.6679 176.49 14.1152 176.89 14.5128C177.29 14.9104 178.14 15.4075 179.49 16.0536C179.59 16.1033 179.69 16.153 179.84 16.2027C180.99 16.7494 181.84 17.2464 182.44 17.6937C182.84 18.0417 183.19 18.4393 183.439 18.8866C183.689 19.3836 183.789 19.8806 183.789 20.4273C183.789 21.6699 183.239 22.7136 182.09 23.6083C180.99 24.4532 179.54 24.9005 177.89 24.9005C177.34 24.9005 176.79 24.8508 176.14 24.7017C175.59 24.652 174.89 24.4532 174.14 24.2047Z" fill="#00275B"/>
<path d="M188.889 21.9683C188.889 22.7139 188.939 23.2606 189.089 23.6085C189.239 23.9564 189.439 24.2546 189.739 24.5528H185.789C186.089 24.2546 186.339 23.9564 186.439 23.6085C186.589 23.2606 186.639 22.7139 186.639 21.9683V12.6244C186.639 11.8789 186.589 11.3818 186.439 11.0339C186.339 10.686 186.089 10.3878 185.789 10.0896H189.739C189.439 10.3381 189.189 10.686 189.089 11.0339C188.939 11.3818 188.889 11.9286 188.889 12.6244V21.9683Z" fill="#00275B"/>
<path d="M108.492 34.3936L106.142 40.4075H110.842L108.492 34.3936ZM108.792 29.2246L110.092 32.3558L114.992 44.5825C115.542 45.9244 115.942 47.2664 117.292 47.9622V48.0119H112.442V47.9622C113.592 47.4652 113.392 47.167 112.792 45.5268L111.492 42.1471H105.492L104.242 45.5268C103.742 46.8687 103.592 47.5646 104.692 47.9622V48.0119H100.343V47.9622C101.693 47.2664 102.093 45.9244 102.643 44.5825L108.792 29.324V29.2246Z" fill="#00275B"/>
<path d="M78.4434 34.7912C76.8435 34.7912 75.5435 35.338 74.4936 36.4314C73.4436 37.5248 72.9436 38.9662 72.9436 40.6561C72.9436 42.4453 73.4436 43.8867 74.4936 45.0795C75.4935 46.2724 76.7935 46.8191 78.3434 46.8191C79.9433 46.8191 81.2433 46.2724 82.2932 45.1789C83.3432 44.0855 83.8432 42.6441 83.8432 40.9543C83.8432 39.165 83.3432 37.7236 82.2932 36.5805C81.1933 35.3877 79.9433 34.7912 78.4434 34.7912ZM78.3434 48.4095C77.2435 48.4095 76.2435 48.2107 75.2435 47.8628C74.2936 47.5149 73.4436 47.0179 72.7436 46.3718C71.9937 45.6759 71.4437 44.8807 71.0437 43.9364C70.6437 42.992 70.4437 41.998 70.4437 40.9543C70.4437 40.159 70.5437 39.3638 70.8437 38.5686C71.0937 37.8231 71.4437 37.0775 71.9437 36.4314C72.6936 35.4374 73.5936 34.6421 74.6936 34.0954C75.7935 33.5487 76.9935 33.2505 78.2934 33.2505C79.3934 33.2505 80.4433 33.4493 81.3933 33.7972C82.3432 34.1451 83.1932 34.6421 83.8932 35.2883C84.6432 35.9841 85.1931 36.7793 85.5931 37.7237C85.9931 38.668 86.1931 39.7117 86.1931 40.8052C86.1931 41.7992 85.9931 42.7932 85.5431 43.7376C85.0931 44.6819 84.4932 45.5765 83.6932 46.2724C82.9932 46.9682 82.1433 47.4652 81.2433 47.8131C80.3433 48.2107 79.3934 48.4095 78.3434 48.4095Z" fill="#00275B"/>
<path d="M90.4931 45.4771C90.4931 46.2226 90.5431 46.7197 90.6931 47.0676C90.8431 47.4155 91.0431 47.7137 91.3431 48.0119H87.4432C87.7432 47.7137 87.9432 47.4155 88.0932 47.0676C88.2432 46.7197 88.2932 46.1729 88.2932 45.4771V36.1829C88.2932 35.4374 88.2432 34.8906 88.0932 34.5427C87.9432 34.1948 87.7432 33.8966 87.4432 33.5984H95.2929V35.8847C94.9429 35.5865 94.5429 35.3877 94.143 35.2883C93.743 35.1888 93.243 35.0894 92.693 35.0894C92.393 35.0894 92.093 35.0894 91.7431 35.1391C91.3931 35.1888 90.9931 35.2385 90.5431 35.338V39.4135H94.043V41.501C93.893 41.3022 93.643 41.1531 93.393 41.1034C93.093 41.004 92.593 41.004 91.8431 41.004H90.5431V45.4771H90.4931Z" fill="#00275B"/>
<path d="M121.442 45.4771C121.442 46.2226 121.492 46.7197 121.642 47.0676C121.792 47.4155 121.992 47.7137 122.292 48.0119H118.392C118.692 47.7137 118.892 47.4155 119.042 47.0676C119.192 46.7197 119.242 46.1729 119.242 45.4771V36.1332C119.242 35.3877 119.192 34.8906 119.042 34.5427C118.892 34.1948 118.692 33.8966 118.392 33.5984H123.342C124.742 33.5984 125.892 33.9463 126.742 34.5924C127.592 35.2882 128.042 36.1332 128.042 37.2266C128.042 38.0218 127.792 38.7177 127.242 39.3141C126.742 39.9105 125.892 40.4572 124.792 40.9046L128.492 45.9244C128.692 46.2226 128.992 46.5209 129.292 46.8688C129.592 47.2167 129.942 47.5646 130.342 47.9125L129.242 48.0119H129.092C128.592 48.0119 128.042 47.8628 127.592 47.6143C127.092 47.3161 126.692 46.9682 126.342 46.4712L122.092 40.5566C123.342 40.2584 124.292 39.8608 124.892 39.3638C125.492 38.8668 125.792 38.2207 125.792 37.4254C125.792 36.6799 125.542 36.0835 125.042 35.6362C124.542 35.1888 123.892 34.9403 123.042 34.9403C122.842 34.9403 122.642 34.9403 122.392 34.99C122.142 35.0397 121.842 35.0894 121.492 35.1391V45.4771H121.442Z" fill="#00275B"/>
<path d="M134.691 45.4771C134.691 46.2226 134.741 46.7694 134.891 47.0676C134.991 47.4155 135.241 47.7137 135.541 48.0119H131.591C131.891 47.7137 132.091 47.4155 132.241 47.0676C132.391 46.7197 132.441 46.1729 132.441 45.4771V36.1332C132.441 35.3877 132.391 34.8906 132.241 34.5427C132.091 34.1948 131.891 33.8966 131.591 33.5984H135.491C135.191 33.8469 134.941 34.1948 134.841 34.5427C134.691 34.8906 134.641 35.4374 134.641 36.1332V45.4771H134.691Z" fill="#00275B"/>
<path d="M149.191 45.3279L148.141 48.0118H136.992L144.591 35.4869C144.041 35.3378 143.491 35.2384 142.991 35.1887C142.491 35.139 142.041 35.0893 141.591 35.0893C140.941 35.0893 140.341 35.1887 139.741 35.3378C139.141 35.4869 138.542 35.7354 137.942 36.0833L138.942 33.6479H148.241L140.591 46.1728C141.441 46.2722 142.141 46.3219 142.741 46.3716C143.291 46.4213 143.791 46.4213 144.241 46.4213C145.241 46.4213 146.141 46.3219 146.941 46.1231C147.741 45.974 148.491 45.7255 149.191 45.3279Z" fill="#00275B"/>
<path d="M157.491 34.7912C155.891 34.7912 154.591 35.338 153.541 36.4314C152.491 37.5248 151.991 38.9662 151.991 40.6561C151.991 42.4453 152.491 43.8867 153.541 45.0795C154.541 46.2724 155.841 46.8191 157.391 46.8191C158.991 46.8191 160.291 46.2724 161.34 45.1789C162.39 44.0855 162.89 42.6441 162.89 40.9543C162.89 39.165 162.39 37.7236 161.34 36.5805C160.291 35.3877 159.041 34.7912 157.491 34.7912ZM157.441 48.4095C156.341 48.4095 155.341 48.2107 154.341 47.8628C153.391 47.5149 152.541 47.0179 151.841 46.3718C151.091 45.6759 150.541 44.8807 150.141 43.9364C149.741 42.992 149.541 41.998 149.541 40.9543C149.541 40.159 149.641 39.3638 149.941 38.5686C150.191 37.8231 150.541 37.0775 151.041 36.4314C151.791 35.4374 152.741 34.6421 153.841 34.0954C154.941 33.5487 156.141 33.2505 157.441 33.2505C158.541 33.2505 159.591 33.4493 160.541 33.7972C161.49 34.1451 162.34 34.6421 163.04 35.2883C163.79 35.9841 164.34 36.7793 164.74 37.7237C165.14 38.668 165.34 39.7117 165.34 40.8052C165.34 41.7992 165.14 42.7932 164.69 43.7376C164.24 44.6819 163.64 45.5765 162.84 46.2724C162.14 46.9682 161.29 47.4652 160.391 47.8131C159.441 48.2107 158.441 48.4095 157.441 48.4095Z" fill="#00275B"/>
<path d="M180.239 33.5984C179.939 33.8469 179.69 34.1948 179.59 34.5427C179.44 34.8906 179.39 35.4374 179.39 36.1332V48.3598C178.89 48.3598 178.39 48.161 177.99 47.8628C177.54 47.5646 176.99 46.9682 176.29 46.0735L168.89 36.6799V45.4771C168.89 46.2226 168.94 46.7694 169.09 47.1173C169.19 47.4652 169.44 47.7634 169.74 48.0119H166.49C166.79 47.7137 166.99 47.4155 167.14 47.0676C167.29 46.7197 167.34 46.1729 167.34 45.4771V36.1332C167.34 35.3877 167.29 34.8906 167.14 34.5427C166.99 34.1948 166.79 33.8966 166.49 33.5984H169.39L177.84 44.4334V36.1332C177.84 35.3877 177.79 34.8906 177.64 34.5427C177.49 34.1948 177.29 33.8966 176.99 33.5984H180.239Z" fill="#00275B"/>
<path d="M185.489 41.203H189.689L187.689 35.6364L185.489 41.203ZM183.589 46.1234C183.539 46.2725 183.489 46.4216 183.439 46.5708C183.389 46.7199 183.389 46.869 183.389 47.0678C183.389 47.2169 183.439 47.366 183.539 47.5151C183.639 47.6642 183.789 47.863 184.039 48.0618H180.64C180.94 47.863 181.19 47.6145 181.39 47.2666C181.59 46.9187 181.84 46.4714 182.09 45.8749L186.139 35.5867C186.239 35.3879 186.289 35.189 186.339 35.0399C186.389 34.8908 186.389 34.692 186.389 34.5429C186.389 34.3938 186.339 34.2447 186.289 34.0956C186.189 33.9465 186.089 33.7974 185.889 33.698H189.139L193.689 45.7755C193.889 46.3222 194.139 46.7696 194.389 47.1175C194.639 47.4654 194.939 47.8133 195.339 48.1115H191.239L191.289 48.0618C191.689 47.6642 191.839 47.366 191.839 47.1672C191.839 46.9684 191.739 46.6205 191.589 46.1731C191.589 46.1234 191.539 46.0737 191.539 46.024L190.289 42.694H184.939L183.589 46.1234Z" fill="#00275B"/>
<path d="M202.788 10.0896L206.538 16.4017L209.038 12.3262C209.188 12.0777 209.288 11.8292 209.388 11.6304C209.488 11.4315 209.488 11.2327 209.488 11.0836C209.488 10.9345 209.438 10.7357 209.338 10.5866C209.238 10.4375 209.088 10.2387 208.888 10.0896H212.238L207.338 18.0419V21.9683C207.338 22.7139 207.388 23.2606 207.538 23.6085C207.688 23.9564 207.888 24.2546 208.188 24.5528H204.238C204.538 24.2546 204.788 23.9564 204.888 23.6085C204.988 23.2606 205.088 22.7139 205.088 21.9683V17.9922L201.738 12.4753C201.388 11.9783 201.138 11.9286 200.838 11.7795C200.488 11.6801 199.888 11.6304 199.389 11.6304H197.789V21.9186C197.789 22.6642 197.839 23.2109 197.989 23.5588C198.139 23.9067 198.339 24.2049 198.639 24.5031H194.689C194.989 24.2049 195.189 23.9067 195.339 23.5588C195.439 23.2109 195.539 22.6642 195.539 21.9186V11.6801H194.389C193.589 11.6801 192.939 11.7298 192.439 11.8789C191.939 11.9783 191.539 12.2268 191.239 12.4753L191.939 10.0896H202.788Z" fill="#00275B"/>
<path d="M43.995 0V16.2525H42.3451L48.8948 33.7475H54.5446V50H0.0968018V33.7475H5.69657L12.3463 16.2028H10.6464L10.6964 0H43.995Z" fill="white"/>
<path d="M27.3456 6.01378H37.8452V10.1887H33.4954L44.9949 39.6619H48.3947V43.986H34.1453V39.7613H30.1455V48.0118H52.5946V35.6858L47.5448 35.7355L39.4951 14.2643H41.995V1.93823H27.3456H12.6462V14.2643H15.1961L7.09643 35.6858H2.04663V48.0118H24.5457V39.7613H20.5459V43.986H6.29646V39.6619H9.69632L21.1959 10.1887H16.796V6.01378H27.3456Z" fill="#00275B"/>
<path d="M59.0944 44.4333C59.4944 44.831 59.6943 45.328 59.6943 45.9244C59.6943 46.5208 59.4944 46.9681 59.0944 47.3657C58.6944 47.7634 58.1944 47.9622 57.5944 47.9622C56.9944 47.9622 56.4945 47.7634 56.0945 47.3657C55.6945 46.9681 55.4945 46.4711 55.4945 45.9244C55.4945 45.328 55.6945 44.831 56.0945 44.4333C56.4945 44.0357 56.9944 43.8369 57.5944 43.8369C58.1944 43.8369 58.6944 44.0357 59.0944 44.4333ZM58.7944 44.6818C58.4444 44.3339 58.0444 44.1848 57.5944 44.1848C57.0944 44.1848 56.6945 44.3339 56.3945 44.6818C56.0445 45.0298 55.8945 45.4274 55.8945 45.9244C55.8945 46.4214 56.0445 46.819 56.3945 47.1669C56.7445 47.5148 57.1444 47.664 57.5944 47.664C58.0944 47.664 58.4944 47.5148 58.7944 47.1669C59.1444 46.819 59.2944 46.4214 59.2944 45.9244C59.2944 45.4274 59.1444 45.0298 58.7944 44.6818ZM56.6945 44.7315H56.8945H57.6444C57.8944 44.7315 58.0944 44.7813 58.2444 44.8807C58.3944 44.9801 58.4444 45.1789 58.4444 45.3777C58.4444 45.5765 58.3944 45.7753 58.2444 45.8747C58.1444 45.9741 57.9944 46.0238 57.7944 46.0735L58.4944 47.1172H58.2944H58.0944L57.4944 46.0735H57.0944V47.1172H56.8945H56.6945V44.7315ZM57.0444 45.7753H57.5444C57.7444 45.7753 57.8444 45.7256 57.9444 45.6759C58.0444 45.6262 58.0444 45.5268 58.0444 45.3777C58.0444 45.2783 57.9944 45.1789 57.9444 45.1292C57.8444 45.0795 57.7444 45.0298 57.5444 45.0298H57.0444V45.7753Z" fill="#00275B"/>
<path d="M27.3455 6.06372L38.995 36.1333C38.995 36.1333 40.4949 39.8112 42.8948 39.8112H34.3952C34.3952 39.8112 34.8452 39.8609 35.2451 39.1651C35.4951 38.7675 35.2951 38.1711 35.2951 38.1711L32.6452 31.4613H27.3455H21.9957L19.3458 38.1711C19.3458 38.1711 19.1458 38.7675 19.3958 39.1651C19.7958 39.8609 20.2457 39.8112 20.2457 39.8112H11.7461C14.196 39.8112 15.6459 36.1333 15.6459 36.1333L27.3455 6.06372ZM27.2955 28.2307H31.3953L27.2955 17.6939L23.1956 28.2307H27.2955Z" fill="#BD2036"/>
</svg>
