<svg width="265" height="286" viewBox="0 0 265 286" fill="none" xmlns="http://www.w3.org/2000/svg">
<path d="M103.381 107.965C103.381 107.965 115.869 121.066 125.532 161.877C135.194 202.687 139.98 295.505 139.98 295.505V316.999H89.4801L85.6668 273.767L68.9551 111.835L71.4618 107.645L103.381 107.965Z" fill="#4C266E"/>
<g style="mix-blend-mode:multiply" opacity="0.2">
<path d="M93.6732 178.558C93.6732 178.558 112.056 181.605 125.577 173.668C133.477 192.527 128.236 207.182 128.236 207.182C128.236 207.182 112.481 211.478 97.3041 231.555C91.7893 225.233 87.3835 210.777 87.3835 210.777L93.6732 178.558Z" fill="#322875"/>
</g>
<path d="M98.8994 225.05C98.8994 225.05 100.13 296.739 100.13 317H53.9146C53.9146 317 56.7707 249.53 58.6698 249.378C60.5688 249.226 92.8983 215.849 98.8994 225.05Z" fill="#FCF0E8"/>
<path d="M17.7109 132.674C17.7109 132.674 17.8476 118.858 17.7109 112.063C17.5741 105.269 15.5839 88.7867 15.3105 87.6899C15.037 86.5931 12.4391 85.7095 12.4391 90.2034V107.859C12.4391 107.859 11.6339 105.132 9.70446 105.437C7.77502 105.742 8.06368 108.484 8.06368 108.484C8.06368 108.484 6.54444 106.275 5.23789 106.717C3.93134 107.158 4.31115 109.763 4.31115 109.763C4.31115 109.763 3.08056 107.448 1.68286 108.941C0.285152 110.434 1.22708 116.1 2.51844 120.838C3.8098 125.576 6.83309 132.933 6.83309 132.933L17.7109 132.674Z" fill="#FFCAA5"/>
<path d="M1.6825 114.196C1.6825 114.196 2.98904 119.406 4.90329 118.659C6.81754 117.913 4.43233 110.205 4.43233 110.205C4.43233 110.205 5.95157 115.628 7.33408 116.968C8.71659 118.309 9.68891 117.121 9.38506 114.714C9.06062 112.709 8.59869 110.729 8.00255 108.788L8.67102 109.9C8.67102 109.9 9.74968 116.405 11.193 116.466C12.6362 116.527 13.3959 116.298 12.3172 107.508C12.7571 108.472 13.0392 109.501 13.1528 110.555C13.1528 110.555 14.672 113.8 15.3557 114.775C16.0393 115.75 16.9965 116.725 16.7382 116.725C16.4799 116.725 14.2314 115.491 13.6997 115.704C12.8035 116.256 12.003 116.95 11.3297 117.761C10.8409 118.471 10.4618 119.252 10.2055 120.076C10.0991 120.701 9.73449 123.321 10.2055 123.427C10.6764 123.534 12.0134 120.274 12.6818 120.67C13.3503 121.066 15.614 121.858 14.9911 122.194C14.3682 122.529 12.4235 123.427 11.9526 124.311C11.5361 125.373 11.176 126.456 10.8739 127.556C10.1015 125.581 9.11838 123.697 7.94178 121.935C6.87831 120.838 2.71558 121.203 1.6825 114.196Z" fill="#FFB184"/>
<path d="M1.10583 132.857L21.7068 132.369L25.7632 171.306L29.2119 163.781C29.2119 163.781 38.3273 133.923 44.222 126.276C50.1166 118.628 60.6602 114.698 60.6602 114.698L75.8526 131.455C75.8526 131.455 85.9708 146.689 86.0923 147.1C86.2139 147.511 92.8074 181.619 92.8074 181.619C92.8074 181.619 72.1457 185.793 69.8972 184.666C67.6487 183.538 56.0721 170.209 56.0721 170.209C56.0721 170.209 43.5383 199.016 37.2031 209.283C30.8678 219.55 25.7632 226.725 17.5441 225.781C9.32495 224.836 4.44817 217.54 3.36951 200.341C2.29085 183.142 1.10583 132.857 1.10583 132.857Z" fill="#FCF0E8"/>
<path d="M125.577 113.221C125.577 113.221 130.135 114.745 137.169 126.276C144.203 137.808 167.311 173.576 167.311 173.576L190.601 130.344L192.393 130.587L202.162 131.532V151.594C202.162 151.594 191.193 186.997 178.811 200.342C173.22 205.003 160.474 196.198 160.474 196.198L132.49 146.704L123.146 120.914L125.577 113.221Z" fill="#FCF0E8"/>
<path d="M250.444 51.1442H247.573V47.5491C247.573 45.8401 246.896 44.2011 245.691 42.9926C244.485 41.7842 242.851 41.1053 241.146 41.1053H222.915C221.219 41.1174 219.596 41.8016 218.401 43.0087C217.205 44.2159 216.535 45.848 216.535 47.5491V51.1442H213.694V47.5491C213.694 45.0751 214.673 42.7022 216.416 40.9514C218.159 39.2006 220.524 38.215 222.991 38.2109H241.222C243.676 38.235 246.022 39.2295 247.749 40.9781C249.476 42.7268 250.444 45.0882 250.444 47.5491V51.1442Z" fill="#322875"/>
<path d="M261.717 153.269H198.273C197.951 153.271 197.631 153.209 197.333 153.087C197.034 152.965 196.763 152.784 196.534 152.556C196.305 152.328 196.124 152.057 196 151.759C195.876 151.46 195.812 151.14 195.812 150.817V52.8042C195.812 52.4808 195.876 52.1607 196 51.8621C196.124 51.5635 196.305 51.2925 196.534 51.0645C196.763 50.8366 197.034 50.6563 197.333 50.5339C197.631 50.4116 197.951 50.3496 198.273 50.3516H261.717C262.039 50.3496 262.359 50.4116 262.658 50.5339C262.956 50.6563 263.228 50.8366 263.456 51.0645C263.685 51.2925 263.867 51.5635 263.991 51.8621C264.114 52.1607 264.178 52.4808 264.178 52.8042V150.817C264.178 151.14 264.114 151.46 263.991 151.759C263.867 152.057 263.685 152.328 263.456 152.556C263.228 152.784 262.956 152.965 262.658 153.087C262.359 153.209 262.039 153.271 261.717 153.269Z" fill="#E6E7E8"/>
<path d="M253.544 69.5613H212.175C211.683 69.5613 211.212 69.3655 210.864 69.017C210.516 68.6684 210.321 68.1957 210.321 67.7028C210.319 67.4575 210.366 67.2142 210.458 66.9869C210.55 66.7597 210.686 66.553 210.859 66.3788C211.031 66.2046 211.236 66.0664 211.462 65.972C211.688 65.8777 211.93 65.8291 212.175 65.8291H253.498C253.987 65.8291 254.456 66.0228 254.803 66.368C255.15 66.7133 255.347 67.1821 255.351 67.6724C255.36 68.1627 255.174 68.6364 254.836 68.9902C254.497 69.344 254.033 69.5493 253.544 69.5613Z" fill="#A6A8AB"/>
<path d="M253.543 83.2867H212.174C211.683 83.2867 211.211 83.0909 210.864 82.7424C210.516 82.3939 210.321 81.9212 210.321 81.4283C210.317 81.1816 210.362 80.9367 210.453 80.7077C210.544 80.4787 210.68 80.2702 210.853 80.0944C211.025 79.9186 211.231 79.7789 211.458 79.6836C211.685 79.5883 211.928 79.5393 212.174 79.5393H253.498C253.987 79.5393 254.456 79.733 254.803 80.0782C255.15 80.4235 255.347 80.8923 255.351 81.3826C255.357 81.6266 255.315 81.8695 255.228 82.0973C255.14 82.3251 255.009 82.5334 254.841 82.7102C254.673 82.8871 254.472 83.029 254.249 83.1279C254.027 83.2269 253.787 83.2808 253.543 83.2867Z" fill="#A6A8AB"/>
<path d="M249.912 145.272C254.351 145.272 257.949 141.664 257.949 137.214C257.949 132.763 254.351 129.155 249.912 129.155C245.474 129.155 241.875 132.763 241.875 137.214C241.875 141.664 245.474 145.272 249.912 145.272Z" fill="#A6A8AB"/>
<path d="M249.912 141.951C252.522 141.951 254.637 139.83 254.637 137.214C254.637 134.597 252.522 132.476 249.912 132.476C247.303 132.476 245.188 134.597 245.188 137.214C245.188 139.83 247.303 141.951 249.912 141.951Z" fill="#E6E7E8"/>
<path d="M116.963 109.9L125.577 113.221C125.759 117.688 126.427 122.121 127.567 126.443C128.895 130.278 130.499 134.01 132.368 137.61L144.006 164.344L138.84 177.643L140.268 200.493C140.682 213.235 141.757 225.947 143.489 238.577C146.102 255.761 148.73 270.933 149.915 286.944C151.1 302.954 151.1 316.908 151.1 316.908H134.009C134.009 316.908 132.247 277.621 131.168 260.3C130.089 242.98 126.899 219.033 125.577 207.257C126.919 197.162 126.08 186.896 123.116 177.156L115.565 136.467L116.963 109.9Z" fill="#FCF0E8"/>
<path d="M123.146 186.631L125.577 207.257C125.577 207.257 136.212 202.002 140.268 200.57C140.982 189.221 142.532 177.719 141.575 165.929C135.666 169.664 129.526 173.017 123.192 175.968L123.146 186.631Z" fill="#EAD9D0"/>
<path d="M59.4594 163.781C64.1725 169.128 70.156 173.194 76.8548 175.602C88.6441 180.172 92.3358 179.426 92.3358 179.426L97.2582 193.791C97.2582 193.791 98.4128 205.11 98.899 225.05C79.7109 245.113 69.5928 271.391 65.4756 286.914C61.3585 302.437 58.6846 317 58.6846 317H38.9344C40.0479 296.564 42.3969 276.216 45.9685 256.066C50.0175 236.129 53.0598 216 55.084 195.756C56.0675 187.314 56.4634 178.814 56.269 170.316L59.4594 163.781Z" fill="#EAD9D0"/>
<path d="M96.9553 101.05C97.4157 102.624 98.2364 104.07 99.3521 105.27C100.468 106.471 101.848 107.394 103.382 107.966C103.382 117.441 86.8675 120.549 79.7119 115.293C72.5562 110.037 71.3864 107.676 71.3864 107.676C72.4071 105.793 73.0279 103.718 73.2095 101.583C73.3007 98.658 96.9553 101.05 96.9553 101.05Z" fill="#FFCAA5"/>
<path d="M73.2089 86.5472C73.2089 86.5472 73.452 97.7743 73.2089 101.598C85.0438 107.021 96.9547 101.049 96.9547 101.049L96.5445 96.1138C96.5445 96.1138 76.1411 82.099 73.2089 86.5472Z" fill="#FFB184"/>
<path d="M68.6357 17.4936C68.8921 14.7859 68.4707 12.0569 67.4096 9.55376C66.3484 7.05066 64.6811 4.85263 62.5587 3.15888C55.2967 -2.46229 44.7076 0.767216 40.0587 8.5363C35.4098 16.3054 35.501 28.9492 44.7076 32.6509C53.9142 36.3527 57.5604 33.2451 57.5604 33.2451C57.5604 33.2451 68.2863 26.4509 68.6357 17.4936Z" fill="#F05452"/>
<path d="M61.0549 25.3238C61.0549 25.3238 66.4938 9.35904 91.1511 10.989C115.808 12.619 119.622 33.6108 119.014 40.6487C118.406 47.6866 117.267 53.9932 118.072 62.4326C118.877 70.872 117.51 82.3276 107.437 86.4254C97.3648 90.5232 73.224 86.5472 73.224 86.5472C73.224 86.5472 67.8459 89.0151 59.7939 84.7954C51.7419 80.5757 50.6784 70.9481 51.2102 65.3727C51.7419 59.7972 49.144 50.8094 50.2531 41.258C51.3621 31.7066 58.3506 25.5675 61.0549 25.3238Z" fill="#F05452"/>
<path d="M73.2089 86.5468C73.2089 86.5468 81.7775 97.6977 92.1539 97.8196C102.53 97.9415 109.063 87.8721 111.448 72.1816C112.929 63.3829 112.929 54.3977 111.448 45.5991C111.448 45.5991 110.02 47.0311 98.5803 47.0311C87.1404 47.0311 83.2056 44.0453 83.2056 44.0453C81.7936 48.7653 81.1523 53.6832 81.3065 58.6085C81.6255 66.4842 79.8024 81.1389 73.2089 86.5468Z" fill="#FFCAA5"/>
<path d="M71.3859 107.646C71.3859 107.646 79.8785 118.888 87.3836 140.474C94.8886 162.06 97.2587 193.791 97.2587 193.791L79.1645 155.418L84.3299 147.801L76.4602 148.593C76.4602 148.593 61.8451 121.036 59.4751 115.14C58.9889 112.277 70.2465 106.031 71.3859 107.646Z" fill="white"/>
<path d="M103.381 107.965C103.381 107.965 116.325 133.451 123.131 186.631C123.952 177.872 125.577 147.938 125.577 147.938L118.27 142.713L124.468 141.403C124.468 141.403 121.688 122.772 120.26 117.836C118.832 112.901 117.981 110.083 115.763 108.986C110.645 106.985 105.237 105.828 99.7503 105.558C100.768 106.62 102.008 107.442 103.381 107.965Z" fill="white"/>
<path d="M141.529 165.929C141.206 161.444 140.181 157.038 138.491 152.874C135.877 146.78 131.669 136.467 131.669 136.467C131.669 136.467 140.769 153.666 148.366 165.929C155.962 178.192 162.039 191.826 168.541 196.99C175.044 202.154 178.857 200.402 178.857 200.402C178.857 200.402 175.211 206.496 168.374 205.658C161.538 204.82 156.858 201.088 151.389 195.314C145.92 189.541 140.906 183.295 140.906 183.295L141.529 165.929Z" fill="#EAD9D0"/>
<path d="M25.7629 171.306C25.7629 171.306 28.1481 192.633 28.4975 203.434C31.1258 185.397 29.2116 163.827 29.2116 163.827L25.7629 171.306Z" fill="#EAD9D0"/>
<path d="M192.424 130.587C192.424 130.587 189.082 117.806 189.796 113.023C190.51 108.24 193.138 104.782 195.523 100.653C197.909 96.525 198.699 93.2346 200.081 93.6459C201.464 94.0572 201.433 99.526 200.081 101.994C198.729 104.462 196.511 109.321 196.435 112.657C196.359 115.993 195.873 131.516 195.873 131.516C194.692 131.338 193.535 131.027 192.424 130.587Z" fill="#FFCAA5"/>
</svg>
