<svg width="10" height="14" viewBox="0 0 10 14" fill="none" xmlns="http://www.w3.org/2000/svg">
<path d="M0.288001 6.26965C0.199179 6.33081 0.126556 6.41264 0.0763843 6.5081C0.0262134 6.60355 -2.86613e-07 6.70978 -2.91327e-07 6.81761C-2.96041e-07 6.92545 0.0262133 7.03168 0.0763842 7.12713C0.126556 7.22259 0.199179 7.30442 0.288001 7.36558L8.95407 13.3652C9.05403 13.4346 9.1711 13.4753 9.29258 13.4829C9.41405 13.4905 9.53528 13.4646 9.64309 13.4082C9.75091 13.3517 9.84118 13.2667 9.9041 13.1625C9.96702 13.0584 10.0002 12.9389 10 12.8172L10 0.818027C9.9995 0.696598 9.9659 0.577603 9.90283 0.473838C9.83976 0.370074 9.74959 0.285466 9.64203 0.229114C9.53447 0.172761 9.41358 0.146797 9.29236 0.154012C9.17114 0.161228 9.05419 0.20135 8.95407 0.270065L0.288001 6.26965Z" fill="#585858"/>
</svg>
