<svg width="21" height="20" viewBox="0 0 21 20" fill="none" xmlns="http://www.w3.org/2000/svg">
<path d="M3.49531 17.1929C2.53867 16.2704 1.77561 15.167 1.25068 13.9469C0.725743 12.7269 0.449435 11.4147 0.437878 10.0869C0.426321 8.7591 0.679747 7.44231 1.18337 6.21334C1.68699 4.98438 2.43072 3.86786 3.37116 2.92893C4.3116 1.99001 5.42992 1.24747 6.66087 0.744665C7.89182 0.241856 9.21074 -0.0111606 10.5407 0.000377568C11.8706 0.0119157 13.1849 0.287778 14.4069 0.811868C15.629 1.33596 16.7342 2.09778 17.6581 3.05288C19.4827 4.9389 20.4922 7.46493 20.4694 10.0869C20.4466 12.7089 19.3932 15.217 17.5361 17.0711C15.6791 18.9251 13.1669 19.9768 10.5407 19.9996C7.91448 20.0224 5.38438 19.0145 3.49531 17.1929ZM16.2459 15.7829C17.7494 14.2818 18.5941 12.2458 18.5941 10.1229C18.5941 7.99997 17.7494 5.96401 16.2459 4.46288C14.7423 2.96176 12.7031 2.11843 10.5767 2.11843C8.45038 2.11843 6.41113 2.96176 4.90759 4.46288C3.40404 5.96401 2.55935 7.99997 2.55935 10.1229C2.55935 12.2458 3.40404 14.2818 4.90759 15.7829C6.41113 17.284 8.45038 18.1273 10.5767 18.1273C12.7031 18.1273 14.7423 17.284 16.2459 15.7829ZM9.57511 11.1229V9.12288H11.5783V15.1229H9.57511V11.1229ZM9.57511 5.12288H11.5783V7.12288H9.57511V5.12288Z" fill="#828282"/>
</svg>
