<svg width="308" height="31" viewBox="0 0 308 31" fill="none" xmlns="http://www.w3.org/2000/svg">
<path d="M141.32 17.106C140.915 17.4038 140.411 17.5544 139.898 17.5305C139.385 17.5066 138.898 17.3097 138.527 16.9758C138.083 16.5744 137.634 16.1896 137.03 16.0154C136.055 15.7337 135.092 15.8897 134.169 16.1881L134.095 16.2139C133.99 16.2542 133.899 16.3198 133.83 16.4041C133.761 16.4884 133.717 16.5884 133.702 16.694C133.509 17.8817 133.021 19.0093 132.276 19.9839C132.216 20.0595 132.177 20.1469 132.159 20.2395C132.142 20.332 132.148 20.4271 132.176 20.5171C132.229 20.6777 132.305 20.8307 132.403 20.9715C132.694 21.4048 133.029 21.8106 133.403 22.1833C134.056 22.8225 134.903 22.9982 135.811 23.0058C136.234 23.0053 136.648 23.1225 137 23.3427C137.353 23.5629 137.629 23.8762 137.794 24.2436C137.959 24.611 138.005 25.0161 137.927 25.4081C137.849 25.8002 137.65 26.1618 137.355 26.4478C137.06 26.7338 136.683 26.9315 136.27 27.016C135.856 27.1006 135.426 27.0683 135.032 26.9232C134.638 26.7781 134.298 26.5267 134.055 26.2003C133.812 25.874 133.676 25.4872 133.665 25.0885C133.652 24.5083 133.623 23.9358 133.327 23.4117C132.846 22.562 132.051 22.0288 131.176 21.6244L131.158 21.6168C131.053 21.5694 130.936 21.5499 130.82 21.5603C130.704 21.5707 130.594 21.6106 130.5 21.6759C129.463 22.3979 128.257 22.8738 126.983 23.0633C126.881 23.0794 126.783 23.1183 126.7 23.1768C126.616 23.2352 126.548 23.3116 126.502 23.3996C126.429 23.5361 126.375 23.6806 126.341 23.8298C126.225 24.3276 126.159 24.8348 126.144 25.3445C126.126 26.2321 126.593 26.9197 127.236 27.5362C127.535 27.818 127.739 28.1767 127.824 28.5676C127.908 28.9585 127.868 29.3641 127.709 29.7338C127.55 30.1035 127.28 30.4207 126.931 30.6459C126.582 30.8711 126.17 30.9942 125.747 30.9998C125.324 31.0054 124.909 30.8933 124.554 30.6775C124.198 30.4617 123.918 30.1517 123.748 29.7864C123.578 29.4211 123.526 29.0167 123.599 28.6237C123.671 28.2308 123.865 27.8667 124.156 27.5771C124.581 27.1591 124.991 26.7349 125.176 26.1654C125.473 25.246 125.307 24.3372 124.992 23.4662V23.4556C124.953 23.3513 124.883 23.2592 124.792 23.1895C124.7 23.1198 124.59 23.0751 124.474 23.0603C123.205 22.8737 122.002 22.4026 120.966 21.6865C120.881 21.6276 120.782 21.5888 120.678 21.5733C120.574 21.5577 120.468 21.5659 120.368 21.5971C120.212 21.6472 120.063 21.7159 119.925 21.8016C119.466 22.077 119.036 22.393 118.641 22.7452C117.963 23.3617 117.777 24.16 117.769 25.0173C117.769 25.4158 117.644 25.8054 117.411 26.1376C117.178 26.4698 116.846 26.7297 116.457 26.8848C116.068 27.0399 115.639 27.0834 115.224 27.0098C114.808 26.9362 114.425 26.7488 114.123 26.471C113.82 26.1932 113.61 25.8374 113.521 25.448C113.431 25.0586 113.465 24.6529 113.619 24.2816C113.772 23.9104 114.038 23.5901 114.384 23.3607C114.729 23.1314 115.139 23.0032 115.561 22.9921C116.176 22.98 116.783 22.9528 117.34 22.674C118.241 22.2196 118.804 21.4699 119.235 20.6444C119.235 20.6353 119.243 20.6277 119.246 20.6201C119.296 20.5215 119.316 20.412 119.306 20.3032C119.295 20.1944 119.253 20.0904 119.185 20.0021C118.432 19.0281 117.937 17.8987 117.74 16.7077C117.725 16.6157 117.689 16.528 117.633 16.4511C117.577 16.3743 117.504 16.3103 117.419 16.2639C117.254 16.1789 117.076 16.1176 116.892 16.0821C116.364 15.972 115.827 15.9096 115.286 15.8958C114.345 15.8791 113.615 16.3199 112.961 16.9258C112.662 17.208 112.282 17.4008 111.868 17.4801C111.453 17.5594 111.023 17.5216 110.632 17.3716C110.24 17.2215 109.904 16.9658 109.665 16.6365C109.427 16.3071 109.296 15.9187 109.291 15.5199C109.285 15.121 109.404 14.7294 109.633 14.3941C109.862 14.0588 110.19 13.7946 110.578 13.6345C110.965 13.4745 111.394 13.4258 111.81 13.4945C112.227 13.5631 112.613 13.7461 112.92 14.0206C113.363 14.422 113.812 14.8082 114.416 14.9824C115.391 15.2626 116.354 15.1066 117.276 14.8097C117.306 14.7991 117.337 14.7901 117.364 14.7779C117.467 14.7379 117.558 14.6731 117.627 14.59C117.695 14.5068 117.74 14.4082 117.756 14.3038C117.958 13.1338 118.448 12.0247 119.186 11.0654C119.244 10.9923 119.283 10.9078 119.301 10.8184C119.319 10.729 119.316 10.6369 119.291 10.5489C119.239 10.3625 119.155 10.1854 119.042 10.0248C118.751 9.59192 118.416 9.18617 118.043 8.81307C117.39 8.17387 116.544 7.99816 115.635 7.99059C115.212 7.99164 114.798 7.87502 114.445 7.65531C114.093 7.4356 113.816 7.12258 113.651 6.75544C113.486 6.38831 113.44 5.98338 113.517 5.59137C113.595 5.19936 113.794 4.83769 114.088 4.55166C114.383 4.26563 114.76 4.06795 115.173 3.98337C115.587 3.89879 116.017 3.93108 116.411 4.0762C116.805 4.22131 117.144 4.47279 117.387 4.79915C117.63 5.12551 117.766 5.51224 117.777 5.91091C117.79 6.49104 117.818 7.0636 118.115 7.58919C118.597 8.43894 119.4 8.9706 120.267 9.37654C120.315 9.39774 120.362 9.41743 120.408 9.43409C120.508 9.46847 120.615 9.47899 120.72 9.46471C120.825 9.45044 120.925 9.41182 121.01 9.3523C122.02 8.6633 123.186 8.20634 124.416 8.01785C124.505 8.00481 124.59 7.97434 124.665 7.92842C124.741 7.8825 124.805 7.82215 124.854 7.75127C124.974 7.57274 125.059 7.37514 125.103 7.16811C125.22 6.67027 125.286 6.16308 125.301 5.65341C125.318 4.7658 124.85 4.07662 124.209 3.46014C123.91 3.1784 123.706 2.81981 123.622 2.4292C123.538 2.0386 123.578 1.63333 123.737 1.26407C123.896 0.894819 124.167 0.577977 124.516 0.353175C124.865 0.128373 125.276 0.00559135 125.698 0.000186451C126.121 -0.00521845 126.536 0.106993 126.891 0.322787C127.246 0.538581 127.526 0.848377 127.695 1.21343C127.865 1.57848 127.917 1.98258 127.844 2.37519C127.771 2.76779 127.578 3.13148 127.287 3.42075C126.861 3.83881 126.454 4.26292 126.269 4.83245C125.97 5.75187 126.136 6.66069 126.452 7.53012C126.469 7.58171 126.49 7.63229 126.513 7.68159C126.559 7.77151 126.628 7.84927 126.714 7.90794C126.8 7.9666 126.899 8.00436 127.004 8.01785C128.234 8.20283 129.401 8.65501 130.413 9.33867C130.49 9.39091 130.579 9.42665 130.672 9.44339C130.766 9.46013 130.862 9.45747 130.954 9.43561C131.157 9.38558 131.349 9.30474 131.524 9.19629C131.984 8.92186 132.414 8.60636 132.809 8.25415C133.486 7.63767 133.673 6.83942 133.681 5.9821C133.68 5.58319 133.804 5.19301 134.038 4.86036C134.271 4.52772 134.603 4.26739 134.993 4.11195C135.382 3.9565 135.812 3.91285 136.227 3.98645C136.643 4.06004 137.026 4.24762 137.329 4.52572C137.633 4.80381 137.842 5.16007 137.932 5.54991C138.021 5.93976 137.987 6.34589 137.833 6.71748C137.68 7.08907 137.413 7.40962 137.067 7.63903C136.721 7.86844 136.311 7.99653 135.888 8.00725C135.273 8.01937 134.667 8.04663 134.111 8.32685C133.21 8.78126 132.645 9.53861 132.216 10.3565C132.195 10.3974 132.176 10.4383 132.16 10.4792C132.124 10.5735 132.114 10.6748 132.129 10.7739C132.145 10.8731 132.186 10.967 132.25 11.0472C132.994 12.0045 133.489 13.1133 133.695 14.2841C133.71 14.3751 133.747 14.4617 133.803 14.5375C133.858 14.6133 133.931 14.6763 134.016 14.7219C134.186 14.8108 134.369 14.8752 134.559 14.9127C135.087 15.0227 135.624 15.0851 136.165 15.0991C137.106 15.1157 137.834 14.6734 138.488 14.0691C138.694 13.8665 138.942 13.7064 139.216 13.5989C139.491 13.4914 139.786 13.4389 140.084 13.4445C140.381 13.4502 140.674 13.514 140.944 13.6319C141.214 13.7498 141.455 13.9192 141.652 14.1294C141.848 14.3397 141.997 14.5862 142.088 14.8533C142.178 15.1204 142.209 15.4025 142.179 15.6815C142.148 15.9605 142.056 16.2305 141.91 16.4744C141.763 16.7183 141.564 16.9308 141.325 17.0985L141.32 17.106ZM164.724 19.0751C164.313 19.4178 163.844 19.6941 163.337 19.8931C162.645 20.1628 161.9 20.2908 161.152 20.2687C160.473 20.2793 159.799 20.1614 159.169 19.9218C158.596 19.6982 158.082 19.3597 157.663 18.9297C157.233 18.4829 156.905 17.9575 156.699 17.3862C156.468 16.7477 156.355 16.0766 156.364 15.402C156.357 14.755 156.482 14.1127 156.731 13.5101C156.966 12.9486 157.307 12.4325 157.74 11.9879C158.154 11.5597 158.655 11.215 159.214 10.9745C159.761 10.738 160.357 10.6161 160.959 10.6171C161.674 10.6035 162.383 10.7471 163.029 11.0366C163.536 11.2627 164.02 11.533 164.474 11.844L165.709 9.0433C165.071 8.68042 164.392 8.38721 163.684 8.16932C162.768 7.88305 161.808 7.74478 160.844 7.76036C159.759 7.74363 158.683 7.93428 157.679 8.32079C156.746 8.68852 155.908 9.23949 155.219 9.93697C154.519 10.652 153.981 11.4935 153.636 12.4105C153.258 13.4216 153.071 14.4874 153.083 15.5595C153.077 16.542 153.261 17.5173 153.626 18.4374C153.979 19.3239 154.512 20.1364 155.196 20.8291C155.904 21.5373 156.76 22.0982 157.711 22.4756C158.781 22.8927 159.925 23.1112 161.083 23.1194C161.841 23.1395 162.598 23.0569 163.331 22.874C163.926 22.7291 164.503 22.5261 165.054 22.2681C165.392 22.1126 165.714 21.9281 166.017 21.7168L164.724 19.0751ZM168.82 18.4693C169.648 20.3119 171.202 21.7786 173.156 22.5589C174.156 22.9499 175.228 23.1511 176.31 23.1511C177.392 23.1511 178.464 22.9499 179.464 22.5589C180.438 22.1634 181.324 21.5982 182.075 20.8928C182.831 20.1955 183.435 19.3655 183.853 18.4496C184.284 17.5071 184.502 16.4905 184.495 15.4641C184.499 14.4512 184.281 13.4484 183.853 12.5195C183.432 11.5988 182.828 10.7624 182.075 10.0551C181.324 9.34389 180.439 8.77158 179.464 8.36775C178.468 7.96303 177.395 7.75429 176.31 7.75429C175.225 7.75429 174.152 7.96303 173.156 8.36775C172.186 8.76813 171.306 9.34102 170.566 10.0551C169.825 10.7655 169.232 11.6017 168.82 12.5195C168.401 13.4504 168.187 14.4525 168.193 15.4641C168.184 16.4892 168.398 17.5051 168.82 18.4496V18.4693ZM171.812 13.5616C172.049 12.9881 172.402 12.4638 172.852 12.0182C173.294 11.5788 173.825 11.2275 174.413 10.9851C175.023 10.7429 175.678 10.618 176.34 10.618C177.001 10.618 177.657 10.7429 178.266 10.9851C178.852 11.2258 179.38 11.5774 179.816 12.0182C180.262 12.467 180.615 12.9905 180.856 13.5616C181.235 14.445 181.342 15.4114 181.164 16.3494C180.986 17.2874 180.53 18.1588 179.85 18.8631C179.414 19.3101 178.885 19.6658 178.294 19.9072C177.704 20.1485 177.066 20.2702 176.423 20.2642C175.762 20.2715 175.107 20.151 174.497 19.91C173.888 19.669 173.337 19.3127 172.879 18.8631C171.942 17.9523 171.422 16.7293 171.434 15.4596C171.432 14.8101 171.56 14.166 171.812 13.5616ZM185.187 7.91788L192.47 23.6707L199.753 7.91788H196.025L191.797 18.4087L193.618 18.7555L188.962 7.91788H185.187ZM202.505 22.9679H205.649V7.91788H202.505V22.9679ZM215.315 22.9679C216.365 22.9738 217.407 22.804 218.393 22.4665C219.339 22.1458 220.208 21.6528 220.951 21.0155C221.694 20.3737 222.288 19.594 222.696 18.7252C223.136 17.7746 223.355 16.7464 223.339 15.7095C223.335 14.7573 223.173 13.8117 222.857 12.9073C222.54 11.982 222.027 11.1267 221.351 10.3929C220.605 9.6028 219.675 8.98682 218.634 8.59344C217.507 8.14408 216.141 7.91889 214.537 7.91788H209.768V22.9679H215.315ZM212.907 10.761H215.465C215.912 10.7727 216.356 10.8378 216.786 10.9548C217.337 11.0984 217.855 11.3378 218.313 11.6607C218.847 12.0404 219.278 12.5341 219.57 13.1012C219.91 13.7222 220.079 14.5235 220.079 15.505C220.092 16.1864 219.963 16.8636 219.7 17.4983C219.466 18.0537 219.095 18.5481 218.617 18.9403C218.125 19.3339 217.553 19.6291 216.937 19.8082C216.236 20.0157 215.504 20.1179 214.769 20.1112H212.91L212.907 10.761ZM238.572 23.6631L243.167 14.3599L241.722 10.2899L238.753 17.2575L239.251 17.462L235.844 8.01785H232.159L238.572 23.6631ZM246.786 23.6222L252.945 8.01785H249.564L246.638 17.0757L247.202 17.1575L243.278 8.01785H240.15L246.786 23.6222ZM254.829 22.9679L260.335 10.4944L258.058 11.9667L262.653 22.9679H266.295L259.097 7.32564H258.936L251.732 22.9679H254.829ZM255.673 20.0233H262.546L261.439 17.5286H256.653L255.673 20.0233ZM266.231 10.7837H269.959V22.9679H273.101V10.7807H276.982V7.91788H266.224L266.231 10.7837ZM290.139 19.066C289.727 19.4087 289.258 19.6851 288.751 19.884C288.059 20.1585 287.313 20.2907 286.563 20.2717C285.884 20.2824 285.21 20.1644 284.58 19.9249C284.007 19.7013 283.493 19.3627 283.072 18.9327C282.642 18.486 282.314 17.9606 282.109 17.3893C281.877 16.7508 281.763 16.0797 281.772 15.405C281.765 14.7579 281.891 14.1157 282.141 13.5132C282.375 12.9516 282.717 12.4355 283.149 11.9909C283.563 11.5627 284.065 11.218 284.623 10.9776C285.17 10.7412 285.765 10.6193 286.367 10.6201C287.083 10.6065 287.792 10.7501 288.438 11.0397C288.946 11.2656 289.43 11.5359 289.883 11.847L291.12 9.04633C290.484 8.68295 289.807 8.38873 289.101 8.16932C288.186 7.88305 287.227 7.74478 286.263 7.76036C285.178 7.74363 284.102 7.93428 283.098 8.32079C282.166 8.68852 281.327 9.23949 280.638 9.93697C279.938 10.652 279.4 11.4935 279.055 12.4105C278.677 13.4216 278.49 14.4874 278.503 15.5595C278.496 16.5419 278.679 17.5172 279.044 18.4374C279.397 19.3239 279.931 20.1365 280.616 20.8291C281.323 21.5373 282.179 22.0982 283.13 22.4756C284.2 22.8929 285.345 23.1115 286.502 23.1194C287.26 23.1395 288.017 23.0569 288.75 22.874C289.345 22.7292 289.923 22.5261 290.474 22.2681C290.813 22.1128 291.135 21.9282 291.438 21.7168L290.139 19.066ZM304.858 7.91788V13.9918H297.729V7.91788H294.582V22.9679H297.724V16.8546H304.858V22.9679H308V7.91788H304.858Z" fill="#BDBDBD"/>
<path d="M8.32864 10.7757C9.17798 10.7757 9.91531 10.9157 10.5406 11.1957C11.1753 11.4757 11.6606 11.8771 11.9966 12.3997C12.3326 12.9224 12.5006 13.5431 12.5006 14.2617C12.5006 14.9711 12.3326 15.5917 11.9966 16.1237C11.6606 16.6464 11.1753 17.0477 10.5406 17.3277C9.91531 17.6077 9.17798 17.7477 8.32864 17.7477H6.11664V20.5757H4.29664V10.7757H8.32864ZM8.24464 16.2077C9.03798 16.2077 9.63998 16.0397 10.0506 15.7037C10.4613 15.3677 10.6666 14.8871 10.6666 14.2617C10.6666 13.6364 10.4613 13.1557 10.0506 12.8197C9.63998 12.4837 9.03798 12.3157 8.24464 12.3157H6.11664V16.2077H8.24464ZM17.4828 20.6737C16.7268 20.6737 16.0455 20.5104 15.4388 20.1837C14.8321 19.8571 14.3561 19.4044 14.0108 18.8257C13.6748 18.2377 13.5068 17.5751 13.5068 16.8377C13.5068 16.1004 13.6748 15.4424 14.0108 14.8637C14.3561 14.2851 14.8321 13.8324 15.4388 13.5057C16.0455 13.1791 16.7268 13.0157 17.4828 13.0157C18.2481 13.0157 18.9341 13.1791 19.5408 13.5057C20.1475 13.8324 20.6188 14.2851 20.9548 14.8637C21.3001 15.4424 21.4728 16.1004 21.4728 16.8377C21.4728 17.5751 21.3001 18.2377 20.9548 18.8257C20.6188 19.4044 20.1475 19.8571 19.5408 20.1837C18.9341 20.5104 18.2481 20.6737 17.4828 20.6737ZM17.4828 19.1757C18.1268 19.1757 18.6588 18.9611 19.0788 18.5317C19.4988 18.1024 19.7088 17.5377 19.7088 16.8377C19.7088 16.1377 19.4988 15.5731 19.0788 15.1437C18.6588 14.7144 18.1268 14.4997 17.4828 14.4997C16.8388 14.4997 16.3068 14.7144 15.8868 15.1437C15.4761 15.5731 15.2708 16.1377 15.2708 16.8377C15.2708 17.5377 15.4761 18.1024 15.8868 18.5317C16.3068 18.9611 16.8388 19.1757 17.4828 19.1757ZM34.6031 13.0997L31.8451 20.5757H30.1651L28.2331 15.4237L26.2731 20.5757H24.5931L21.8491 13.0997H23.5011L25.4751 18.6157L27.5331 13.0997H29.0031L31.0191 18.6437L33.0491 13.0997H34.6031ZM42.6293 16.8797C42.6293 17.0011 42.62 17.1737 42.6013 17.3977H36.7353C36.838 17.9484 37.104 18.3871 37.5333 18.7137C37.972 19.0311 38.5133 19.1897 39.1573 19.1897C39.9786 19.1897 40.6553 18.9191 41.1873 18.3777L42.1253 19.4557C41.7893 19.8571 41.3646 20.1604 40.8513 20.3657C40.338 20.5711 39.7593 20.6737 39.1153 20.6737C38.294 20.6737 37.5706 20.5104 36.9453 20.1837C36.32 19.8571 35.8346 19.4044 35.4893 18.8257C35.1533 18.2377 34.9853 17.5751 34.9853 16.8377C34.9853 16.1097 35.1486 15.4564 35.4753 14.8777C35.8113 14.2897 36.2733 13.8324 36.8613 13.5057C37.4493 13.1791 38.112 13.0157 38.8493 13.0157C39.5773 13.0157 40.226 13.1791 40.7953 13.5057C41.374 13.8231 41.822 14.2757 42.1393 14.8637C42.466 15.4424 42.6293 16.1144 42.6293 16.8797ZM38.8493 14.4157C38.2893 14.4157 37.8133 14.5837 37.4213 14.9197C37.0386 15.2464 36.8053 15.6851 36.7213 16.2357H40.9633C40.8886 15.6944 40.66 15.2557 40.2773 14.9197C39.8946 14.5837 39.4186 14.4157 38.8493 14.4157ZM45.9763 14.1917C46.4803 13.4077 47.367 13.0157 48.6363 13.0157V14.6817C48.487 14.6537 48.3516 14.6397 48.2303 14.6397C47.549 14.6397 47.017 14.8404 46.6343 15.2417C46.2516 15.6337 46.0603 16.2031 46.0603 16.9497V20.5757H44.3103V13.0997H45.9763V14.1917ZM57.0805 16.8797C57.0805 17.0011 57.0711 17.1737 57.0525 17.3977H51.1865C51.2891 17.9484 51.5551 18.3871 51.9845 18.7137C52.4231 19.0311 52.9645 19.1897 53.6085 19.1897C54.4298 19.1897 55.1065 18.9191 55.6385 18.3777L56.5765 19.4557C56.2405 19.8571 55.8158 20.1604 55.3025 20.3657C54.7891 20.5711 54.2105 20.6737 53.5665 20.6737C52.7451 20.6737 52.0218 20.5104 51.3965 20.1837C50.7711 19.8571 50.2858 19.4044 49.9405 18.8257C49.6045 18.2377 49.4365 17.5751 49.4365 16.8377C49.4365 16.1097 49.5998 15.4564 49.9265 14.8777C50.2625 14.2897 50.7245 13.8324 51.3125 13.5057C51.9005 13.1791 52.5631 13.0157 53.3005 13.0157C54.0285 13.0157 54.6771 13.1791 55.2465 13.5057C55.8251 13.8231 56.2731 14.2757 56.5905 14.8637C56.9171 15.4424 57.0805 16.1144 57.0805 16.8797ZM53.3005 14.4157C52.7405 14.4157 52.2645 14.5837 51.8725 14.9197C51.4898 15.2464 51.2565 15.6851 51.1725 16.2357H55.4145C55.3398 15.6944 55.1111 15.2557 54.7285 14.9197C54.3458 14.5837 53.8698 14.4157 53.3005 14.4157ZM66.0835 10.1877V20.5757H64.4035V19.6097C64.1141 19.9644 63.7548 20.2304 63.3255 20.4077C62.9055 20.5851 62.4388 20.6737 61.9255 20.6737C61.2068 20.6737 60.5581 20.5151 59.9795 20.1977C59.4101 19.8804 58.9621 19.4324 58.6355 18.8537C58.3088 18.2657 58.1455 17.5937 58.1455 16.8377C58.1455 16.0817 58.3088 15.4144 58.6355 14.8357C58.9621 14.2571 59.4101 13.8091 59.9795 13.4917C60.5581 13.1744 61.2068 13.0157 61.9255 13.0157C62.4201 13.0157 62.8728 13.0997 63.2835 13.2677C63.6941 13.4357 64.0441 13.6877 64.3335 14.0237V10.1877H66.0835ZM62.1355 19.1757C62.5555 19.1757 62.9335 19.0824 63.2695 18.8957C63.6055 18.6997 63.8715 18.4244 64.0675 18.0697C64.2635 17.7151 64.3615 17.3044 64.3615 16.8377C64.3615 16.3711 64.2635 15.9604 64.0675 15.6057C63.8715 15.2511 63.6055 14.9804 63.2695 14.7937C62.9335 14.5977 62.5555 14.4997 62.1355 14.4997C61.7155 14.4997 61.3375 14.5977 61.0015 14.7937C60.6655 14.9804 60.3995 15.2511 60.2035 15.6057C60.0075 15.9604 59.9095 16.3711 59.9095 16.8377C59.9095 17.3044 60.0075 17.7151 60.2035 18.0697C60.3995 18.4244 60.6655 18.6997 61.0015 18.8957C61.3375 19.0824 61.7155 19.1757 62.1355 19.1757ZM76.3859 13.0157C77.1139 13.0157 77.7626 13.1744 78.3319 13.4917C78.9106 13.8091 79.3633 14.2571 79.6899 14.8357C80.0166 15.4144 80.1799 16.0817 80.1799 16.8377C80.1799 17.5937 80.0166 18.2657 79.6899 18.8537C79.3633 19.4324 78.9106 19.8804 78.3319 20.1977C77.7626 20.5151 77.1139 20.6737 76.3859 20.6737C75.8726 20.6737 75.4013 20.5851 74.9719 20.4077C74.5519 20.2304 74.1973 19.9644 73.9079 19.6097V20.5757H72.2419V10.1877H73.9919V14.0097C74.2906 13.6831 74.6406 13.4357 75.0419 13.2677C75.4526 13.0997 75.9006 13.0157 76.3859 13.0157ZM76.1899 19.1757C76.8339 19.1757 77.3613 18.9611 77.7719 18.5317C78.1919 18.1024 78.4019 17.5377 78.4019 16.8377C78.4019 16.1377 78.1919 15.5731 77.7719 15.1437C77.3613 14.7144 76.8339 14.4997 76.1899 14.4997C75.7699 14.4997 75.3919 14.5977 75.0559 14.7937C74.7199 14.9804 74.4539 15.2511 74.2579 15.6057C74.0619 15.9604 73.9639 16.3711 73.9639 16.8377C73.9639 17.3044 74.0619 17.7151 74.2579 18.0697C74.4539 18.4244 74.7199 18.6997 75.0559 18.8957C75.3919 19.0824 75.7699 19.1757 76.1899 19.1757ZM88.6345 13.0997L85.1345 21.1777C84.8078 21.9897 84.4112 22.5591 83.9445 22.8857C83.4778 23.2217 82.9132 23.3897 82.2505 23.3897C81.8772 23.3897 81.5085 23.3291 81.1445 23.2077C80.7805 23.0864 80.4818 22.9184 80.2485 22.7037L80.9485 21.4157C81.1165 21.5744 81.3125 21.7004 81.5365 21.7937C81.7698 21.8871 82.0032 21.9337 82.2365 21.9337C82.5445 21.9337 82.7965 21.8544 82.9925 21.6957C83.1978 21.5371 83.3845 21.2711 83.5525 20.8977L83.6785 20.6037L80.4165 13.0997H82.2365L84.5885 18.6297L86.9545 13.0997H88.6345Z" fill="#BDBDBD"/>
</svg>
